<svg xmlns="http://www.w3.org/2000/svg" width="405.329" height="427.615" viewBox="0 0 405.329 427.615">
  <g id="Group_438" data-name="Group 438" transform="translate(-895.171 -1116.157)">
    <g id="Group_418" data-name="Group 418" transform="translate(936.264 1116.157)">
      <path id="Path_167" data-name="Path 167" d="M265.02,66.639c-3,1.27-6.189,2.394-8.789,4.42a6.157,6.157,0,0,0-1.828,2.428,12.638,12.638,0,0,0-.457,1.626,4.718,4.718,0,0,0-1.087-.826,10.526,10.526,0,0,0-4.036-.719,12.655,12.655,0,0,0-7.94,3.022c-4.293,3.465-7.672,9.2-4.374,14.457a1.241,1.241,0,0,0,2.3-.62c.226-1.812-.55-3.489-.011-5.3a12.082,12.082,0,0,1,3.639-5.193,9.944,9.944,0,0,1,5.509-2.745c2.219-.233,3.451.55,5.23,1.594,2.4,1.406,3.306-.81,3.575-2.75.606-4.359,5.553-6.362,9.119-7.92C266.873,67.672,266.012,66.221,265.02,66.639Z" transform="translate(-115.399 -33.777)" fill="#291f27"/>
      <g id="Group_417" data-name="Group 417" transform="translate(0 0)">
        <path id="Path_168" data-name="Path 168" d="M376.751,115.974a11.2,11.2,0,0,0,4.9-14.508c-.4-.976-1.052-2.206-.819-3.312a10.954,10.954,0,0,1,1.331-2.474,9.433,9.433,0,0,0,1.022-3.315,14.107,14.107,0,0,0-2.471-9.32c-.84-1.208-2.281-2.153-3.016-3.37-.626-1.034-.4-1,.062-2.082a14.883,14.883,0,0,0,.732-1.686c.905-3.153-.716-6.1-2.189-8.808-1.511-2.775-3.048-5.051-6.079-6.29-1.431-.585-2.877-.65-3.706-1.962-.974-1.543-1.218-3.389-2.38-4.909A10.222,10.222,0,0,0,357.1,50.2a14.171,14.171,0,0,0-3.921,0c-2.436.312-3.6.579-5.743-.848a19.149,19.149,0,0,0-18.38-1.825,14.183,14.183,0,0,1-4.227,1.377c-1.809.112-3.649-.6-5.432-.838a18.2,18.2,0,0,0-10.02,1.742,19.037,19.037,0,0,0-7.213,5.08c-1,1.237-.948,1.626-2.584,1.886-1.49.237-3,.295-4.487.507A10.027,10.027,0,0,0,288,61.46c-1.406,1.833-2.238,3.727-4.922,3.357-1.688-.233-3.239-1.186-4.9-1.546a8.281,8.281,0,0,0-7.657,2.4,14.052,14.052,0,0,0-2.554,3.4c-.934,1.709-1.2,3.983-2.99,5.007-1.125.644-2.576.779-3.759,1.329a12.013,12.013,0,0,0-3.967,3.21c-2.364,2.786-3.3,6.467-4.493,9.848a20.3,20.3,0,0,1-2.353,5.281,24.691,24.691,0,0,1-5.459,5.053c-2.49,1.827-4.984,3.606-7.6,5.228-.4.151-.8.295-1.2.443-.239.027-.481.049-.725.059a1.069,1.069,0,0,0-.939.55c-.781.277-1.562.551-2.349.818-1.682.569-3.276,1.4-4.972,1.919-2.035.618-4.077,1.07-6.087,1.8a107.2,107.2,0,0,1-11.54,3.513c-4.128,1-8.04,2.654-12.143,3.69-3.092.781-6.852,2.094-10.055,1.712-4.012-.481-7.6-2.96-11.577-3.735-3.373-.655-5.947-.735-9.03.873-2.662,1.388-5.668,3.081-6.392,6.24a12.9,12.9,0,0,0,1.042,8.577c1.731,2.962,5.743,3.687,8.706,4.745a12.443,12.443,0,0,0,1.6.625c-.078.139-.15.281-.233.416a30.953,30.953,0,0,0-2.063,4.54,13.656,13.656,0,0,0-.147,9.647c2.362,6.146,8.445,8.931,14.547,6.486a15.321,15.321,0,0,0,6.966-5.435,11.484,11.484,0,0,0,1.76-4.409c.143-.74.057-2.086.513-2.716.673-.928,2.23-1.3,3.252-1.663,4.047-1.438,8.451-1.973,12.632-2.912,4.565-1.028,9.154-1.927,13.743-2.847,4.073-.818,8-2.1,12.026-3.092a70.731,70.731,0,0,0,8.811-2.558c.33,0,.668-.016,1.017-.008,1.9.048,3.792.228,5.7.245,1.78.019,3.6-.086,5.373.053,1.992.153,3.8,1.05,5.721,1.524,3.39.835,7.128,1.149,10.356,2.52,3.158,1.341,4.5,4.841,7.458,6.54,3.008,1.726,6.73,1.286,9.678,3.078,1.369.832,2.488,1.978,3.916,2.737a22.768,22.768,0,0,0,5.816,1.9,18.172,18.172,0,0,0,9.205-.475c1.809-.475,2.982.489,4.587,1.172a12.4,12.4,0,0,0,5.268,1.033c3.108-.1,5.646-1.371,8.52-2.334,3.55-1.187,7.383.48,11.049-.081a16.246,16.246,0,0,0,7.893-3.416c1.524-1.267,2.372-2.911,4.43-3.314,1.5-.293,3.027-.129,4.535-.521a13.181,13.181,0,0,0,7.009-4.337c.955-1.172,1.541-2.675,2.507-3.8,1.245-1.451,3.567-1.927,5.211-2.769,2.6-1.333,4.669-3.035,5.609-5.872a13.807,13.807,0,0,0,.6-4.619C374.9,118.371,374.58,117.223,376.751,115.974ZM241.208,127.736a1.566,1.566,0,0,0-.646.6c-.838.169-1.682.324-2.493.51-1.774.411-3.441,1.127-5.209,1.57-4.066,1.017-7.941,2.542-12.046,3.489-4.237.977-8.459,2-12.677,3.052-4.192,1.042-8.513,1.586-12.656,2.829-3.625,1.089-5.388,2.235-6.191,5.987-.909,4.242-4.728,7.385-8.95,8.228-4.514.9-8.078-3.532-8.252-7.732-.161-3.937,2.353-6.988,3.3-10.589a1.633,1.633,0,0,0-.419-1.594c-1.3-1.063-2.84-.878-4.439-1.183-2.692-.512-6.212-1.481-7.343-4.222-1.058-2.566-.767-6.542,1.709-8.07a18.435,18.435,0,0,1,5.447-2.471c4.272-.775,9.038,2.346,12.894,3.679,3.816,1.318,7.237.735,11-.341,4.127-1.178,8.057-2.608,12.122-3.983,4.336-1.468,8.784-2.439,13.013-4.224,3.943-1.664,7.957-3.08,11.835-4.866,1.309-.6,2.624-1.1,3.907-1.685a1.264,1.264,0,0,0,.312.059c1.908.11,4.237-.776,6.043.194,2.126,1.143,1.857,3.6,1.019,5.477-.714,1.594-2.393,4.293-.558,5.785,2.051,1.669,8.328-.268,7.653,3.674C248.964,125.553,243.951,126.326,241.208,127.736ZM371.261,122.3c-.492,4.411-4.395,5.376-7.877,6.927-2.963,1.32-3.539,4.025-5.842,6.022s-5.147,2.56-8.086,2.825c-3.548.319-4.549,2.56-7.127,4.6a12.863,12.863,0,0,1-9.455,2.35c-3.529-.351-6.177-.4-9.553.779-3.473,1.219-6.894,1.631-10.351.156a10.548,10.548,0,0,0-4.135-1.243c-1.863.013-3.527,1.14-5.365,1.35-3.778.434-8.042-1.213-11.065-3.306a15.02,15.02,0,0,0-4.283-2.246c-1.874-.559-3.87-.607-5.724-1.272-3.416-1.227-4.65-5.078-7.74-6.792-2.96-1.64-6.679-2.185-9.935-2.907-3.574-.791-6.811-2.179-10.52-2.13-1.927.025-3.851.1-5.777.159a9.457,9.457,0,0,0,3.625-4.422c1.607-4.237-1.726-6.02-5.447-6.564-.465-.069-2.911-.045-3.185-.5-.075-.123,1.581-2.869,1.787-3.4a6.674,6.674,0,0,0,.179-4.983,5.755,5.755,0,0,0-3.4-3.387,5.626,5.626,0,0,0-2.1-.343c.231-.148.462-.3.693-.449a40.328,40.328,0,0,0,10.63-7.2c4.607-4.49,4.458-12.034,9.2-16.345,2.071-1.882,4.591-1.785,6.892-3.131,2.391-1.4,2.979-4.323,4.237-6.593,1.6-2.882,3.877-4.481,7.23-3.642,2.358.59,4.881,1.656,7.31.713,2.84-1.1,3.366-4.6,5.818-6.193,2.416-1.567,5.44-1.143,8.145-.945,2.636.193,3.325-.531,5.031-2.361,2.38-2.549,6.049-4.151,9.374-5.008s6.236.4,9.519.547c3.19.137,5.8-1.573,8.754-2.5a13.366,13.366,0,0,1,9.785.652c2.785,1.178,4.712,3.663,7.922,3.406,2.946-.236,6.094-1.3,8.872.349,2.86,1.7,2.206,5.26,4.332,7.35,2.152,2.115,5.553,1.643,7.444,4.216a27,27,0,0,1,2.5,4.433,9.612,9.612,0,0,1,.8,1.962c.3,1.468-.5,2.31-.964,3.585-.794,2.2.11,3.838,1.688,5.391,2.684,2.641,5.072,5.1,4.962,9.223-.083,3.08-2.729,5.05-2.268,8.246.528,3.655,2.485,6.027.47,9.744-1.42,2.62-4.111,3.065-5.955,5.126C370.384,116.724,371.549,119.729,371.261,122.3Z" transform="translate(-160.035 -45.994)" fill="#291f27"/>
        <path id="Path_169" data-name="Path 169" d="M309.906,90.218c-1.232,1.565-2.954,3.5-5.034,3.88-1.627.3-2.651-.838-4.018.392-1.326,1.194-2.185,3.135-3.384,4.493a11.371,11.371,0,0,1-5.4,3.824c-1.605.416-2.357-.131-3.829-.536a3.12,3.12,0,0,0-1.451-.194c-1.647.238-2.5,2.042-3.76,2.968a8.363,8.363,0,0,1-5.694,1.779c-1.549-.171-2.139-.84-3.247-1.739a2.994,2.994,0,0,0-1.438-.883c-1.455-.276-2.326.838-3.162,1.8a14.177,14.177,0,0,1-4.635,3.671c-1.795.872-4.125,1.479-6.008.516-1.58-.808-1.53-2.628-2.942-3.539-2.278-1.466-4.839,1.29-7,1.771a9.293,9.293,0,0,1-7.079-1c-2.825-1.728-3.014-4.61-3.1-7.64a.552.552,0,0,0-1.1.006c-.073,4.492.316,8.215,4.713,10.364a13.243,13.243,0,0,0,9.632.18c.34-.142,1.717-1.111,1.938-1.034s.454,1.816.736,2.31a6.16,6.16,0,0,0,2.074,1.98,9.589,9.589,0,0,0,6.175,1.3,13.135,13.135,0,0,0,6.216-2.554,12.345,12.345,0,0,0,2.332-2.271c.32-.406.687-1.191,1.087-1.811a6.7,6.7,0,0,0,2.125,1.568,10.174,10.174,0,0,0,5.064.674,10.941,10.941,0,0,0,4.619-1.57,13.034,13.034,0,0,0,1.678-1.27c.293-.258.9-1.132,1.361-1.618a8.365,8.365,0,0,0,6.57.593,14.086,14.086,0,0,0,6.88-5.611c.81-1.156,1.218-3.048,2.118-4.038.072-.078.121-.137.158-.185.013.067.108.126.424.092.545-.057,1.063-.1,1.6-.209a11.578,11.578,0,0,0,6.934-4.285C313.254,90.865,311.119,88.675,309.906,90.218Z" transform="translate(-113.96 -20.04)" fill="#291f27"/>
        <path id="Path_170" data-name="Path 170" d="M303.52,60.2c-1.707-4.1-6.868-4.4-10.641-3.668-1.057.2-3.075,1.229-4.049.894-.588-.2-1.321-1.494-1.951-1.937a8.769,8.769,0,0,0-6.484-1.211c-2.358.529-4.036,2.408-5.993,3.665-1.318.846-.893.512-2.56-.175a13.854,13.854,0,0,0-3.961-1.111,9.814,9.814,0,0,0-6.75,2.515,16.83,16.83,0,0,0-2.636,2.668c-.459.572-.9,1.5-1.417,2.147-2.654.155-5.512-.391-7.818,1.356-2.33,1.765-2.227,4.372-2.879,6.865-.9.054-1.89-.148-2.759-.078a13.181,13.181,0,0,0-2.957.591,13.721,13.721,0,0,0-4.2,2.182c-3.223,2.511-4.13,5.987-4.207,9.906-.024,1.264,1.879,1.237,1.953-.01.3-5.045,2.832-8.829,7.981-9.9,2.606-.542,5.676,1.116,6.851-1.849.663-1.67.958-4.345,2.81-5.129,1.769-.748,3.829-.035,5.609-.14,2.887-.171,3.749-3.636,5.719-5.346a6.616,6.616,0,0,1,6.008-1.852c1.372.281,2.99,1.369,4.372,1.3,1.293-.064,1.972-1.108,2.829-1.929,1.529-1.46,3.392-3.212,5.577-3.478a6.868,6.868,0,0,1,3.014.379c1.188.429,1.731,1.568,2.764,2.026.982.435,1.655.14,2.726-.083,4.146-.867,8.662-1.7,11.362,2.372A.976.976,0,0,0,303.52,60.2Z" transform="translate(-117.139 -41.176)" fill="#291f27"/>
        <path id="Path_171" data-name="Path 171" d="M288.843,64.094a8.145,8.145,0,0,0-4.613-3.4,7.514,7.514,0,0,0-3.684-.148,6.941,6.941,0,0,0-1.72.76q-.65.418-1.289.856a1.37,1.37,0,0,0-.295-.579c-1.07-.638-1.264-1.631-2.6-2.01a6.656,6.656,0,0,0-3.4.147,9.4,9.4,0,0,0-6.3,4.9.849.849,0,0,0,1.462.861c1.412-2.157,4.4-4.7,7.335-3.822,1.737.521,1.768,2.979,3.623,3.207,1.481.183,2.761-1.443,4.253-1.613,2.678-.308,3.848,1.741,5.475,3.292a.973.973,0,0,0,1.258.8l.308-.108a1.193,1.193,0,0,0,.842-1c2.488-2.225,9.862-1.235,9.208,2.6a.96.96,0,0,0,1.744.735C303.873,64.084,293.5,61.2,288.843,64.094Z" transform="translate(-97.795 -38.025)" fill="#291f27"/>
        <path id="Path_172" data-name="Path 172" d="M261.123,91.892c-1.949.1-4.383,1.541-6.319.944-2.187-.676-1.184-3.139-2.464-4.409a.984.984,0,0,0-1.377-.01c-1.61,1.785-3.816,3.072-6.3,2.547-2.64-.558-3.626-2.279-4.911-4.388a.891.891,0,0,0-1.545.888c1.54,3.081,2.942,5.324,6.543,6.036,2.287.454,4.159-.81,5.848-2.22a3.6,3.6,0,0,0,.008,1.341,4.8,4.8,0,0,0,2.563,3.253c2.606,1.312,6.424.531,8.73-1.09C263.069,93.964,262.8,91.809,261.123,91.892Z" transform="translate(-113.665 -22.15)" fill="#291f27"/>
        <path id="Path_173" data-name="Path 173" d="M293.764,80.083c-.214-1.071-2.047-1.127-2.212,0a15,15,0,0,1-3.527,7.5c-1.388,1.65-6.76,5.847-8.767,2.876-.379-.561-1.524-.626-1.64.214-.486,3.527-8.1,8.08-9.624,3.3a.977.977,0,0,0-1.884.512c.687,3.11,2.93,4.862,6.231,4.358a7.554,7.554,0,0,0,4.538-2.911,11.893,11.893,0,0,0,1.532-3.027c2.094,2.627,7.27,1.415,9.854-.225A12.287,12.287,0,0,0,293.764,80.083Z" transform="translate(-97.047 -26.236)" fill="#291f27"/>
        <path id="Path_174" data-name="Path 174" d="M284.217,69.76c-2.047-1.232-4.694-.668-6.907-.312-1.175.188-.915,2.208.284,2.085a11.492,11.492,0,0,1,4.34-.022c1.556.464,1.151,1.451.991,2.748-.145,1.191,1.8,1.691,2.291.618C286.083,72.975,286.246,70.981,284.217,69.76Z" transform="translate(-90.828 -32.327)" fill="#291f27"/>
        <path id="Path_175" data-name="Path 175" d="M276.252,76.73c-.787-1.989-3.009-2.82-4.822-3.57-.92-.381-1.6,1.208-.685,1.629,1.175.54,2.9,1.1,3.4,2.437.426,1.135-.9,2.514-1.538,3.355-.756,1,.808,2.058,1.659,1.294C275.651,80.634,277.017,78.659,276.252,76.73Z" transform="translate(-94.533 -29.894)" fill="#291f27"/>
        <path id="Path_176" data-name="Path 176" d="M269.179,78.276a1.014,1.014,0,1,0-2-.26,13.616,13.616,0,0,1-.988,3.7.786.786,0,0,0,1.353.8A8.461,8.461,0,0,0,269.179,78.276Z" transform="translate(-97.032 -27.556)" fill="#291f27"/>
      </g>
      <path id="Path_177" data-name="Path 177" d="M229.128,72.823c-1.742,1.613-3.7,3.123-4.506,5.439-.555,1.6-1.017,3.607-.14,5.152.365.646,1.541.41,1.465-.4a11.6,11.6,0,0,1,.338-4.307c.6-2.043,2.319-3.48,3.738-4.98A.637.637,0,0,0,229.128,72.823Z" transform="translate(-122.046 -30.166)" fill="#291f27"/>
    </g>
    <g id="Group_422" data-name="Group 422" transform="translate(1033.797 1311.635)">
      <path id="Path_202" data-name="Path 202" d="M372.661,206.328c-1.46-.473-3.22-.124-4.712-.011-2.181.167-4.356.054-6.54.094-4.49.084-8.984.049-13.472.2a74.934,74.934,0,0,1-13.565-1.025c-3.435-.5-7.618-1.031-11.029-.143a3.185,3.185,0,0,0-2.538,2.262c-.861,2.093-1.69,4.2-2.643,6.252a48.95,48.95,0,0,0-2.565,6.9c-.465,1.6-.612,3.781-1.215,5.407a11.605,11.605,0,0,0-2.839-1.117,9.221,9.221,0,0,0-5.327.65,8.589,8.589,0,0,0-.523-2.584c-.18-.4-.376-.8-.574-1.2a.828.828,0,0,0,.269-.724,13.571,13.571,0,0,0-1.605-4.219,10.5,10.5,0,0,0-2.22-3.295.4.4,0,0,0-.215-.094c-1.3-.732-3.295.429-4.431.995a21.8,21.8,0,0,0-5.157,3.234c-.526-3.6-.985-7.216-1.425-10.834-.768-6.317-1.647-12.717-2.97-18.943-.6-2.826-1.376-5.612-2.192-8.383a29.25,29.25,0,0,0-2.7-7.257,9,9,0,0,0-3.778-3.61c-1.956-.845-4.162.612-6.062,1.1-2.074.534-4.64.728-6.432,2.012-1.833,1.313-1.291,3.094-1.121,5.018,1.007,11.462,4.366,22.653,6.507,33.948.8,4.2,1.5,8.418,2.22,12.632a1.643,1.643,0,0,0-.843.108,18.913,18.913,0,0,0-3.4,1.576,9.286,9.286,0,0,0-1.348.888c-.269.249-.443.555-.684.811-1.243-2.1-2.49-4.2-3.76-6.285-1.329-2.182-2.931-4.135-4.4-6.221a86.85,86.85,0,0,1-5.1-8.735,133.578,133.578,0,0,0-9.455-15.391c-.974-1.333-2.233-2.5-3.162-3.854-.411-.6-.679-1.583-1.336-2-1.47-.923-4.234.751-5.507,1.414a16.982,16.982,0,0,0-5.6,4.2c-1.5,1.911-.94,3.822.319,5.722,3.384,5.107,6.444,10.327,9.468,15.669,3.088,5.45,6.736,10.5,9.94,15.865,1.192,2,2.407,3.991,3.62,5.987-2.722,1.269-5.279,2.933-8.026,4.184-3.333,1.519-6.532,3.347-9.878,4.836-2.643,1.176-5.324,2.262-7.946,3.492-2.338,1.1-4.6,2.324-5.3,5.015-.685,2.632.76,5.828,2.031,8.062,1.764,3.1,3.907,5.952,5.67,9.065,1.691,2.989,3.325,6.038,5.19,8.921,1.511,2.337,2.831,4.919,5.042,6.566-.006.038-.016.073-.021.113-.223,1.884,1.538,4.573,2.056,6.3,1.926,6.438,3.5,12.964,5.6,19.349,4.12,12.525,9.514,24.53,13.926,36.939,4.556,12.815,9.42,25.566,14.191,38.3,1.675,4.469,7.619,6.046,11.609,7.726,5.807,2.447,11.835,4.3,17.765,6.412,2.4.853,5,2.029,7.575,2.125,2.708.1,4.841-1.525,7.128-2.737,5.864-3.1,11.849-6.017,17.8-8.96,5.863-2.9,11.65-5.867,17.245-9.261,2.444-1.482,4.921-2.911,7.312-4.477,2.117-1.387,4.533-2.726,5.373-5.259.781-2.357.434-5.193.435-7.637,0-3.47-.081-6.937-.155-10.407-.135-6.441-.33-12.892-.7-19.325-.856-14.891-.652-29.767-.862-44.669-.105-7.406-.212-14.813-.778-22.2-.3-3.862-.713-7.723-.936-11.588-.1-1.706.206-4.514-.58-6.355a1.07,1.07,0,0,0,.163-.478c.107-1.09,1.065-2.766,1.428-3.838.748-2.2,1.6-4.364,2.334-6.572,1.337-4.049,2.367-8.222,3.591-12.305a115.342,115.342,0,0,0,2.691-11.44C373.98,210.86,376.137,207.452,372.661,206.328Zm-65.848,82.54a21.159,21.159,0,0,0-13.064-9.385,20.71,20.71,0,0,0-12.258,1.431,26.82,26.82,0,0,0-2.78,1.114c-2.863,1.176-.115-2.6.609-3.2,3.913-3.266,10.844-4.3,15.723-3.48,6.548,1.108,12.619,3.3,16.209,9.269,3.148,5.231,4.122,11.325,5.1,17.266,1.076,6.57,1.946,12.65.885,19.29-.279,1.734-.711,6.293-2.455,7.3-2.809,1.627-2.7-5.075-2.614-6.508C312.847,310.784,312.944,298.732,306.812,288.868Zm-1.231-13.447c-5.192-3.142-12.113-3.551-17.956-2.6a23.809,23.809,0,0,0-8.933,3.577c-1.683,1.144-4.055,3.66-3.848,5.925l.006.038c-1.262,0-2.53-.072-3.8-.187a29.812,29.812,0,0,1,3.459-5.526,23.05,23.05,0,0,1,3.808-3.985c3.177-2.683,7.036-5.015,11.252-5.364,2.255-.187,3.695.454,5.8,1.106,2.142.665,3.982.9,6.017,2.015a27.419,27.419,0,0,1,3.982,2.7,36.784,36.784,0,0,1,3.693,3.111,1.185,1.185,0,0,0,.107.228c-.371.25-.743.5-1.124.741A19.4,19.4,0,0,0,305.582,275.422Zm-29.957-8.293c-1.831,1.935-3.862,4.768-3.61,7.565a14.042,14.042,0,0,0-2.391,7.334c-1.572-.175-3.145-.389-4.718-.585,2.3-6.146,4.691-12.245,9.358-17.025a16.828,16.828,0,0,1,9.312-4.7,26,26,0,0,1,6.253-.083,23.643,23.643,0,0,0-5.888,3.523A11.464,11.464,0,0,0,275.625,267.128Zm6.309-2.063a16.765,16.765,0,0,0-2.133,2.887,20.79,20.79,0,0,0-3.951,2.448,16.8,16.8,0,0,0-2.743,2.762,17.118,17.118,0,0,1,3.516-5,12.187,12.187,0,0,1,3.464-2.613A7.367,7.367,0,0,1,281.934,265.066Zm24.993,6.479a26.765,26.765,0,0,0-5.319-3.429c-2.257-1.076-4.64-.9-7.034-1.53a17.445,17.445,0,0,0-5.711-.784,26,26,0,0,0-4.6.615,26.464,26.464,0,0,1,3.918-2.812,38.45,38.45,0,0,1,3.725-1.831c1.372.027,2.734-.043,4.163.035a17.1,17.1,0,0,1,8.34,2.93c1.889,1.246,3.505,2.941,5.263,4.367a18.547,18.547,0,0,1,3.5,4.516c-.682.5-1.363.995-2.048,1.486l-.014-.022A29.988,29.988,0,0,0,306.927,271.545ZM312.112,269a64.926,64.926,0,0,0-6.86-5.464,20.073,20.073,0,0,0-6.816-2.813,12.83,12.83,0,0,0-3.494-.037,20.269,20.269,0,0,1,5.082-.835,18.749,18.749,0,0,1,10.987,3.623,19.143,19.143,0,0,1,4.108,4c.712,1.122,1.1,2.367,1.782,3.5-.585.389-1.16.791-1.731,1.2A13.29,13.29,0,0,0,312.112,269Zm-.5-7.567c-3.134-1.755-7.418-3.513-11.038-3.746a21.289,21.289,0,0,0-2.742.013c1.792-.572,3.68-.969,5.372-1.458a17.741,17.741,0,0,1,9.855.064c5.177,1.349,9.1,5.555,11.094,10.453-1.219.736-2.447,1.436-3.679,2.08-.34.179-.673.367-1,.555A18.268,18.268,0,0,0,311.61,261.436Zm10.313-2.515a17.915,17.915,0,0,0-2.885-2.1.794.794,0,0,0-.539-.529c-.268-.078-1.025-1.334-1.21-1.514a12.9,12.9,0,0,0-2.566-2.114,27.711,27.711,0,0,0-6.884-2.517c-4.411-1.128-9.416,1.364-12.651,4.208-.281.247.014.749.365.566a43.883,43.883,0,0,1,5.273-2.032,12.472,12.472,0,0,1,8.678-.359,12.3,12.3,0,0,1,4.642,2.235c-.422-.12-.851-.23-1.29-.332a17.616,17.616,0,0,0-9.57.08,49.656,49.656,0,0,0-6.816,2.284c-.717-1.78-2.585-2.963-4.658-3.715a18.042,18.042,0,0,1,10.589-6.851,20.126,20.126,0,0,1,6.427-.854,16.018,16.018,0,0,1,6.522,1.663c3.558,1.914,7.24,3.537,9.451,7.131a27.785,27.785,0,0,1,2.2,4.35,27.373,27.373,0,0,1,1.688,5.333q-.983.658-1.973,1.3A20.621,20.621,0,0,0,321.923,258.921Zm3.626-7.361a24.072,24.072,0,0,0-5.522-4.114,40.259,40.259,0,0,0-6.1-2.99c-4.422-1.471-8.848-.856-13.23.225-4.5,1.109-7.718,4.24-10.324,7.892-.011.016-.018.032-.029.049a20.506,20.506,0,0,0-4.127-.646c-.113,0-.226,0-.34-.01,3.539-3.207,6.744-6.714,11.207-8.851,4.815-2.306,11.74-4.176,17.067-2.992,4.312.958,8.483,2.128,12.125,4.712a19.521,19.521,0,0,1,5.759,7.08c1.27,2.377,1.941,5.027,3.276,7.367-.333.226-.669.449-1,.681-1,.708-2.029,1.425-3.065,2.141-.936-1.953-1.465-4.09-2.523-6.016A20.859,20.859,0,0,0,325.549,251.56Zm-24.282-12.639c2.458-2.839,7.466-6.757,10.614-4.463,1.1.8,1.709,2.735,2.742,3.821l-.022.022a.646.646,0,0,0-.135.214c-.531-.158-1.063-.314-1.6-.462a16.159,16.159,0,0,0-7.842.013C303.8,238.318,302.529,238.593,301.267,238.922Zm31.415,9.526a14.485,14.485,0,0,1,4.12,1.006,16,16,0,0,1,4.184,2.6,10.079,10.079,0,0,1,1.883,2.509c-1.659.983-3.314,1.972-4.946,3a32.46,32.46,0,0,0-3.72-7.05C333.714,249.8,333.21,249.112,332.682,248.447Zm6.9.282c-2.182-1.175-5.266-2.437-7.651-1.189a16.351,16.351,0,0,0-4.454-3.7q-1.922-1.054-3.918-1.959a38.006,38.006,0,0,1,5.837-.783c2.866.07,5.08.206,7.667,1.554a24.513,24.513,0,0,1,5.829,3.872,14.132,14.132,0,0,1,3.143,3.921,11.2,11.2,0,0,1,.641,1.844q-.877.528-1.757,1.049A16.672,16.672,0,0,0,339.581,248.729Zm-.735-7.473a15.317,15.317,0,0,0-7.916-1.949,19.334,19.334,0,0,0-4.634.269,17.06,17.06,0,0,0-3.755,1.859q-2.855-1.236-5.82-2.212c.418-.19.846-.43,1.164-.547a27.841,27.841,0,0,1,3.869-1.148,30.467,30.467,0,0,1,12.54-.027,32.165,32.165,0,0,1,5.78,1.75c1.892.781,3.35,2.193,5.054,3.288a13.758,13.758,0,0,1,4.191,3.625,30.065,30.065,0,0,1,2.225,3.183c-.762.434-1.484.87-2.173,1.3C348.153,246.227,342.4,243.044,338.846,241.257ZM309.21,227.12c3.331-.792,6.191,1.576,7.635,4.374a6.2,6.2,0,0,1,.633,3.867c-.011.29-.014.564-.006.834-.155.078-.3.167-.453.252-2.732-2.021-4.724-5.075-8.611-4.213-3.539.786-6.746,3.95-8.462,7.056a24.455,24.455,0,0,0-3.923,1.5c-.147-.5-.36-.974-.524-1.58a17.9,17.9,0,0,1-.392-2c1.38-2.173,4.243-4,6.2-5.528C303.51,229.959,306.415,227.786,309.21,227.12Zm-17.167-7.337a24.072,24.072,0,0,0,4.305-1.218c1.047-.451,2.136-.864,3.167-1.34.056-.026.218-.094.4-.179a17.653,17.653,0,0,1,1.057,2.079q.473,1.47,1,2.925c.583,1.611,1.325,3.218,2.061,4.772-1,.539-1.948,1.132-2.782,1.686-2.469,1.642-5.338,3.676-6.508,6.47q-.827-4.5-1.659-9.006C292.7,223.913,292.36,221.849,292.043,219.783Zm-16.662-.233c-1.21-10.393-3.319-20.717-5.316-30.979-.448-2.3-.843-4.661-1.113-6.988-.183-1.578-1.364-5.866-.258-7.216.609-.743,2.713-.964,3.6-1.266a24.861,24.861,0,0,0,2.4-.964c.982-.453,2.281-1.484,3.347-1.419,1.561.094,2.869,2.071,3.582,3.347,1.341,2.405,1.835,5.286,2.483,7.936.646,2.633,1.229,5.287,1.65,7.967.885,5.631,1.537,11.331,2.126,17,.641,6.151,1.277,12.309,2.294,18.41q.768,4.6,1.543,9.2c.236,1.4.456,2.809.709,4.206a17.875,17.875,0,0,1,.759,2.9,1.531,1.531,0,0,0,.12.677,34.226,34.226,0,0,0-5.5,4.3c-1.226,1.2-3.417,3.349-3.558,5.3-.631.018-1.253.067-1.871.132a1.583,1.583,0,0,0-.164-.293q-.6-.858-1.172-1.739c-.641-4.6-1.833-9.264-2.825-13.759A169.054,169.054,0,0,1,275.381,219.55Zm6.717,34.219a20.786,20.786,0,0,1,3.1-.064,14.588,14.588,0,0,1,6.719,1.935c1.148.717,1.664,1.731,2.584,2.367-.1.075-.194.147-.287.225-.359.08-.716.169-1.073.265-1.052-1.881-5.549-.9-7.005-.838a20.716,20.716,0,0,0-10.778,3.9c-6.6,4.6-9.857,12.2-11.618,19.749-.867-.1-1.733-.191-2.6-.257,1.2-8.469,4.326-17.165,11.105-22.744C275.513,255.612,278.4,254.138,282.1,253.769ZM259.44,280.951c-.172-.006-.346-.016-.518-.021-1.545-.033-3.107-.1-4.675-.15a31.225,31.225,0,0,1,3.929-7.855A28.531,28.531,0,0,1,260.9,269.5C259.374,273.12,258.407,277.255,259.44,280.951ZM254.715,267.8a19.031,19.031,0,0,1,6.075-4.809,16.466,16.466,0,0,1,3.285-1.4,7.985,7.985,0,0,1,1.688-.188,31.358,31.358,0,0,0-3.284,4.857c-2.26.7-4.7,3.688-5.821,5.083a13.44,13.44,0,0,0-3.322,9.417c-1.326-.041-2.656-.075-3.982-.07C250.008,276.276,251.827,271.1,254.715,267.8Zm-7,12.916c-1.374.04-2.742.126-4.095.289.684-2.3.936-4.9,1.554-7.117a34.4,34.4,0,0,1,4.235-9.844c3.851-6.014,12.186-9.883,18.171-4.654-.022.022-.045.046-.067.07a.976.976,0,0,0-.137,0,15.493,15.493,0,0,0-3.9.338,22.279,22.279,0,0,0-3.8,1.833,25.534,25.534,0,0,0-6.961,5.343A19.61,19.61,0,0,0,247.718,280.714Zm23.6-53.328a13.017,13.017,0,0,0,2.955-1.057q.457,2.659.937,5.316a144.949,144.949,0,0,0,3.884,15.235c-1.871-3.191-3.6-6.487-5.494-9.64-1.8-3-3.569-6.012-5.345-9.025A12.518,12.518,0,0,0,271.316,227.386ZM237.7,203.478c-1.13-2.075-2.262-4.159-3.43-6.213-.62-1.093-1.419-2.091-1.975-3.22-.929-1.887.48-2.8,1.954-3.9,1.106-.824,4.516-3.244,5.464-2.987,1.026.279,2.574,2.59,3.3,3.443a37.959,37.959,0,0,1,2.848,3.918,150.812,150.812,0,0,1,8.376,15.01c2.381,4.732,5.617,8.851,8.155,13.479,3.064,5.585,6.239,11.137,9.54,16.587,2.584,4.265,4.7,8.813,7.332,13.042a24.173,24.173,0,0,0-7.629,3.409,25.885,25.885,0,0,0-2.362,1.8,1.448,1.448,0,0,0-.161-.151c-.121-.088-.244-.169-.367-.252-.644-1.256-1.215-2.561-1.954-3.779-1.481-2.437-3.021-4.85-4.393-7.353-2.593-4.723-5.365-9.333-8-14.035C248.966,222.579,243.02,213.241,237.7,203.478Zm2.965,78.235a3.226,3.226,0,0,0-.427.277c-.931-1.764-1.543-3.916-2.378-5.6-1.443-2.914-2.966-5.789-4.4-8.706a83.508,83.508,0,0,0-4.262-8c-1.521-2.393-3.309-4.8-4-7.6-.971-3.956,3.036-5.313,5.928-6.789,2.228-1.138,4.616-1.919,6.916-2.917,5.274-2.287,10.515-4.634,15.769-6.942,1.851,3.059,3.682,6.13,5.41,9.24,1.7,3.065,3.59,5.969,5.429,8.949.515.834,1.036,1.7,1.6,2.541-5.888-2.131-13.142.641-17.352,5.016-2.99,3.107-5.625,6.433-6.854,10.621C241.229,274.542,239.547,278.761,240.661,281.713Zm66.4,88.827c.548,4.889,1.2,9.83,1.525,14.738a61.01,61.01,0,0,0,1.368,11.008c-2.31-.625-4.554-1.5-6.833-2.225-5.093-1.621-10.214-3.221-15.178-5.212-2.217-.888-4.469-1.784-6.623-2.821-2.687-1.3-3.325-2.737-4.3-5.4-3.7-10.118-7.766-20.1-11.641-30.156-4.288-11.129-8.78-22.226-12.683-33.5a169.438,169.438,0,0,1-5.574-18.343,133.717,133.717,0,0,0-3.666-12.873,22.008,22.008,0,0,1,3.441-1.085c1.274-.129,2.614-.048,3.9-.129,3.073-.2,6.185-.153,9.264-.169,5.215-.027,10.6.918,15.716-.25a3.407,3.407,0,0,0,3.073.2c2.78-.988,5.4-2.149,8.228-2.989,2.394-.711,6.892.266,8.974,1.549,1.97,1.216,2.464,3.5,2.84,5.625a56.473,56.473,0,0,1,.631,8.4c.121,5,.3,9.988.279,14.983a180.68,180.68,0,0,0,2.3,30.552C303.7,351.821,306.007,361.078,307.066,370.54Zm53.018-115.883c.142,2.949.6,5.875.85,8.816.461,5.44.808,10.834,1.011,16.29.394,10.629.636,21.3.673,31.932.037,10.855.662,21.708.993,32.555.163,5.258.236,10.519.306,15.779.034,2.479.186,5.034.01,7.509-.212,2.973-3.078,4.347-5.394,5.759a313.494,313.494,0,0,1-27.909,14.615c-4.7,2.254-9.49,4.433-14.086,6.886a24.179,24.179,0,0,1-2.885,1.451c-.392-1.733-1.039-3.406-1.428-5.139-.5-2.224-.7-4.522-1.17-6.758a131.961,131.961,0,0,1-2.436-13.568c-.931-9.172-1.581-18.294-3.1-27.4a244.273,244.273,0,0,1-3.14-29.657q-.3-7.092-.695-14.169c-.121-2.176-.346-4.339-.588-6.5-.153-1.36-.335-2.715-.52-4.071a27.029,27.029,0,0,1-.475-3.242c.019-.035.037-.072.056-.107,5.171,4.841,7.523,12.878,8.25,19.7.716,6.717-.768,13.63.169,20.3.526,3.739,5.027,9.75,8.515,4.882,3.382-4.725,3.349-12.417,2.864-17.927a124.305,124.305,0,0,0-4.053-22.129A26.962,26.962,0,0,0,308.94,278c4.154-.889,7.812-4.222,11.612-5.92a102.874,102.874,0,0,0,13.364-7.538c4.842-3.115,9.659-6.107,14.779-8.752,2.308-1.194,4.428-2.611,6.813-3.668,1.53-.679,3.025-1.2,4.482-1.876C360.107,251.57,360.048,253.884,360.084,254.657Zm-8.824-10.382a15.9,15.9,0,0,1,7.511,2A23.383,23.383,0,0,0,354.1,248,18.434,18.434,0,0,0,351.26,244.276Zm18.581-32.131c-.322,1.749-.665,3.483-1.022,5.227-.735,3.591-1.969,7.029-2.9,10.568-.99,3.76-1.935,7.531-3.119,11.234a24.01,24.01,0,0,0-1.556,6.742c-.145,0-.292.022-.438.035a9.093,9.093,0,0,0-4.291-3.008,15.754,15.754,0,0,0-6.57-.776.985.985,0,0,0-.587.257c-1.352-1.1-2.92-1.892-4.337-2.923a22.239,22.239,0,0,0-6.2-3.26,31.5,31.5,0,0,0-13.781-1.926,34.975,34.975,0,0,0-3.894.607,6.223,6.223,0,0,0-.9-3.51,15.6,15.6,0,0,0-3.245-3.41c1.24-1.647,1.368-4.524,1.874-6.432.8-3,1.932-5.773,3.006-8.673a21.208,21.208,0,0,1,1.368-3.735c.792-1.291,2.249-1.186,3.727-1.294a42.881,42.881,0,0,1,8.515.4,149.549,149.549,0,0,0,18.321.749c3.22.018,6.464.072,9.679.276,1.275.081,2.547.153,3.824.193a18.394,18.394,0,0,1,3.384.151C370.453,210.453,369.949,211.548,369.841,212.145Z" transform="translate(-221.223 -168.631)" fill="#291f27"/>
      <path id="Path_203" data-name="Path 203" d="M314.67,263.073c-2.214-5.034-6.086-9.282-11.975-9.132-6.342.161-10.232,5.7-13.107,10.689a44.1,44.1,0,0,0-6.153,20.608c-.185,4.344.6,9.078,3.065,12.611a10.934,10.934,0,0,0,5.531,4.964c5.761,2.394,11.156-.483,15.256-4.567C316.028,289.538,319.736,274.591,314.67,263.073Zm-7.214,29.637c-2.973,4.018-6.873,9.1-12.5,8.5-6.913-.733-8.74-7.541-8.917-13.456a43.5,43.5,0,0,1,3.736-17.787,51.686,51.686,0,0,1,4.152-8.219,14.4,14.4,0,0,1,4.686-3.76c5.244-2.5,10.155.427,12.4,5.345C315.2,272.487,313.39,284.692,307.456,292.71Z" transform="translate(-184.287 -117.962)" fill="#291f27"/>
    </g>
    <g id="Group_423" data-name="Group 423" transform="translate(939.832 1396.337)">
      <path id="Path_204" data-name="Path 204" d="M269.443,273c-1.073-8.526-9.274-12.156-16.692-14.127-4.288-1.14-8.534-2.093-12.98-1.5-2.168.287-4.316.711-6.457,1.152-1.143.237-2.922.813-4.517,1.026a15.785,15.785,0,0,0,.778-1.522,40.129,40.129,0,0,0,1.688-4.806,52.493,52.493,0,0,0,1.433-10.705c.306-5.512-.191-13.2-3.574-17.832-3.217-4.406-10.254-2.919-14.578-1.305a26.667,26.667,0,0,0-11.521,8.964c-1.706,1-4.388,1.042-6.266,1.745a21.592,21.592,0,0,0-8.783,6.1,20.929,20.929,0,0,0-5.145,9.961c-.4,2.292-.258,4.36-2.33,5.783a20.139,20.139,0,0,0-4.01,3,22.966,22.966,0,0,0-5.327,9.573,17.957,17.957,0,0,0-.206,6.28c.191,1.559,1.006,3.389,1.106,4.991a27.073,27.073,0,0,0-2.625,2.909,21.216,21.216,0,0,0-2.306,4.567,18.985,18.985,0,0,0-.982,11.464c.3,1.218.859,2.281.724,3.556a4.786,4.786,0,0,1-1.21,2.5,22.989,22.989,0,0,0-2.447,4.643c-1.117,2.828-1.615,6.207.662,8.6,1.854,1.951,5.375,3.551,8.077,3.03a20.049,20.049,0,0,0,4.168-1.372,7.742,7.742,0,0,1,2.73-1.044c1.511-.059,2.89,1.451,4.031,2.287,6.153,4.5,14.158,2.082,20.267-1.251,1.68-.918,3.264-2.22,5.225-2.386s3.975.355,5.958.258a18.667,18.667,0,0,0,10.147-3.456c2.982-2.244,5.1-6.723,8.776-7.656,3.5-.888,6.848-1.173,9.825-3.473a18.491,18.491,0,0,0,3.429-3.752,8.5,8.5,0,0,1,4.41-3.261c3.183-1.28,6.479-2.455,8.972-4.925,2.587-2.563,4.076-6.063,6.381-8.866C268.479,279.467,269.888,276.535,269.443,273Zm-9.908,11.335a14.5,14.5,0,0,1-4.78,5.483,36.873,36.873,0,0,1-6.424,2.885,9.851,9.851,0,0,0-3.83,2.241c-1.906,1.989-3.057,4.3-5.606,5.612-3.54,1.824-8.019,1.025-11.076,3.893-1.76,1.65-3.025,3.76-4.839,5.391a15.669,15.669,0,0,1-7.3,3.9c-2.456.54-4.827.164-7.3.279a10.281,10.281,0,0,0-4.93,1.745c-4.694,2.788-9.449,5.442-15.125,4.946-4.658-.406-7.2-4.96-12.049-3.653-2.042.55-4.74,1.288-6.779.6-3.087-1.035-4.548-3.068-3.413-6.256,1.49-4.181,5.612-6.669,4.463-11.457-.69-2.872-1.3-5.314-.614-8.282a20.623,20.623,0,0,1,2.788-6.588c1.034-1.564,3.107-2.609,3.408-4.536.333-2.123-1.023-4.648-1.211-6.789a15.044,15.044,0,0,1,6.518-13.2c1.677-1.062,3.483-1.9,4.436-3.728,1.275-2.45.9-5.353,1.742-7.927a18.888,18.888,0,0,1,11.024-11.22c2.174-.8,4.8-.945,6.64-2.463,1.557-1.286,2.058-3.315,3.04-5.013a21.537,21.537,0,0,1,6.637-3.808,22.108,22.108,0,0,1,7.793-1.3c3.162.214,4.492,2.329,5.276,5.174,1.5,5.431,1.023,11.523.2,17.011a50.066,50.066,0,0,1-1.737,7.554c-.668,2.141-1.992,4.146-2.136,6.4a1.826,1.826,0,0,0,1.785,1.785c1.669.191,3.5-.724,5.107-1.111a60.206,60.206,0,0,1,8-1.415c5.126-.515,10.412,1.144,15.13,3.065,4.371,1.779,8.874,4.149,10.171,8.99C265.8,277.237,261.714,280.57,259.535,284.333Z" transform="translate(-162.273 -221.77)" fill="#291f27"/>
      <path id="Path_205" data-name="Path 205" d="M203.634,238.057c-5.778-.907-12.538,1.357-13.407,7.92-.089.666,0,1.4-.113,2.051a2.708,2.708,0,0,0-.069.7c-.04-.059-.179-.131-.606.11-1.621.92-3.357.657-4.842,2.01a8.1,8.1,0,0,0-2.557,7.473,6.331,6.331,0,0,0,.609,1.549,15.86,15.86,0,0,0-2.426,1.87,11.709,11.709,0,0,0-3.79,7.983,10.937,10.937,0,0,0,.11,2.013c.11.66.7,1.674.63,2.335-.163,1.466-2.233,1.949-3.064,3.051a9.986,9.986,0,0,0-1.318,8.481.956.956,0,0,0,1.841-.508c-.558-2.7-.2-6.2,1.956-8.156,1.49-1.347,2.212-1.32,2.117-3.478-.132-3.022-.618-5.4,1.082-8.211a7.834,7.834,0,0,1,2.844-2.893c1.038-.531,1.838-.295,2.888-.488a1.772,1.772,0,0,0,1.211-2.133c-.171-1.05-.783-1.906-.684-3.03a4.366,4.366,0,0,1,1.9-3.1c1.677-1.13,4.64-1.238,5.161-3.673a4.127,4.127,0,0,0-.257-1.871c-.473-2.09-.435-4.114,1.006-5.845a8.832,8.832,0,0,1,9.363-2.648C204.211,239.846,204.612,238.212,203.634,238.057Z" transform="translate(-156.261 -212.21)" fill="#291f27"/>
      <path id="Path_206" data-name="Path 206" d="M194.886,249.8a9.732,9.732,0,0,0-4.283,4.718c-.606,1.364-.669,2.326-2.09,3.038a14.46,14.46,0,0,0-2.469,1.1,7.69,7.69,0,0,0-2.84,5.282,9.148,9.148,0,0,0,.242,3.36,6.97,6.97,0,0,0,.378,1.076,9.4,9.4,0,0,0-2.644,4.729,10.112,10.112,0,0,0,.043,3.618,21.658,21.658,0,0,1,.668,2.474c-.247.63-2.592,1.415-3.166,1.87a8.625,8.625,0,0,0-2.251,2.625c-1.337,2.45-.866,4.46.771,6.593.548.716,1.779.057,1.245-.728-2.171-3.19-.426-5.923,2.542-7.613.972-.553,2.8-1.073,3.116-2.351a2.557,2.557,0,0,0-.217-1.275,7.316,7.316,0,0,1-.228-3.73,6.433,6.433,0,0,1,3.658-4.211,2,2,0,0,0,.9-2.208c-.268-1.462-1.5-2.324-1.537-3.991-.064-2.67,1.506-3.322,3.4-4.522,1.186-.749,1.326-1.647,1.737-2.946a8.407,8.407,0,0,1,3.94-5.329A.913.913,0,0,0,194.886,249.8Z" transform="translate(-154.3 -205.194)" fill="#291f27"/>
      <path id="Path_207" data-name="Path 207" d="M194.77,243.461a6.041,6.041,0,0,0-2.53-.025,4.2,4.2,0,0,0-2.107,1.47,6.149,6.149,0,0,0-.858,4.664c.182,1.4,2.393,1.457,2.249,0a4.514,4.514,0,0,1,.4-3.131c.762-1.014,2.047-.649,3.131-.851C196.34,245.347,195.9,243.568,194.77,243.461Z" transform="translate(-146.294 -208.981)" fill="#291f27"/>
      <path id="Path_208" data-name="Path 208" d="M200.839,238.415c-1.385-1.068-3.2-.239-4.387.735a17.573,17.573,0,0,0-3.013,3.789c-.953,1.374,1.285,2.657,2.236,1.305.813-1.156,2.424-4.269,4.246-3.658C201.313,241.052,201.817,239.168,200.839,238.415Z" transform="translate(-143.898 -212.181)" fill="#291f27"/>
      <path id="Path_209" data-name="Path 209" d="M200.4,235.26c-.63-1.082-.838-2.265-2.079-2.85-1.557-.735-3.143-.045-4.6.569-1.148.483-.7,2.372.531,1.922.99-.36,2.51-1.175,3.39-.252.577.6.842,1.326,1.6,1.772A.856.856,0,0,0,200.4,235.26Z" transform="translate(-143.985 -215.639)" fill="#291f27"/>
      <path id="Path_210" data-name="Path 210" d="M222.5,264.066c-.587,1.366-2.276,2.109-3.182,3.339-1.062,1.443-2.071,3.277-3.621,4.254-2.453,1.546-2.77-.507-4.666-1.2a2.581,2.581,0,0,0-2.911.886c-1.626,1.728-2.786,3.77-5.182,4.651-2.319.853-3.614-.367-5.687-.975-3.784-1.108-7.971,5.842-10.935.663a1.274,1.274,0,0,0-2.2,1.285c.939,1.576,1.941,3.062,3.932,3.217,2.405.188,4.412-1.272,6.382-2.378a1.866,1.866,0,0,1,1.506-.625q.937-.6,1.463.268c.285.118.524.437.783.6a5.942,5.942,0,0,0,2.807.936,9.415,9.415,0,0,0,6.574-2.365,17.421,17.421,0,0,0,2.493-2.861l.011-.019c.033.038.067.075.108.118a9.144,9.144,0,0,0,.864.913,5.485,5.485,0,0,0,5.649.448,11.249,11.249,0,0,0,4.7-4.576,21.687,21.687,0,0,1,2.211-3.206,4.018,4.018,0,0,0,1.384-2.334C225.24,263.718,223.144,262.555,222.5,264.066Z" transform="translate(-149.41 -197.07)" fill="#291f27"/>
      <path id="Path_211" data-name="Path 211" d="M206.316,263.128c-1,.55-1.857,1.35-2.907,1.808-1.494.649-2.793-.1-4.1-.822a1,1,0,0,0-1.007,1.721c1.642,1.144,3.363,2.3,5.459,2.066a5.559,5.559,0,0,0,4.1-3.233A1.135,1.135,0,0,0,206.316,263.128Z" transform="translate(-141.148 -197.293)" fill="#291f27"/>
      <path id="Path_212" data-name="Path 212" d="M210.576,259.2c-.646.413-1.2.9-1.808,1.358a3.05,3.05,0,0,1-2.117.641,1.1,1.1,0,0,0,0,2.206,8.215,8.215,0,0,0,3.277-.092A5.091,5.091,0,0,0,212.376,261,1.325,1.325,0,0,0,210.576,259.2Z" transform="translate(-136.546 -199.651)" fill="#291f27"/>
      <path id="Path_213" data-name="Path 213" d="M213.641,255.922c-.673.226-1.251.575-1.9.854a2.794,2.794,0,0,1-2.15-.077c-1.176-.363-1.68,1.479-.508,1.843a7.247,7.247,0,0,0,3.008.62,4.218,4.218,0,0,0,2.6-1.431C215.375,256.98,214.723,255.558,213.641,255.922Z" transform="translate(-134.863 -201.52)" fill="#291f27"/>
      <path id="Path_214" data-name="Path 214" d="M209.107,250.567a49.61,49.61,0,0,0-13.7,9.9c-4.042,4.066-6.749,9.006-10.477,13.271a.616.616,0,0,0,.87.87c1.808-1.729,3.244-3.811,4.908-5.678,1.841-2.064,3.8-4.031,5.784-5.953,4.2-4.06,9.022-7.125,13.638-10.648A1.019,1.019,0,0,0,209.107,250.567Z" transform="translate(-148.911 -204.741)" fill="#291f27"/>
    </g>
    <g id="Group_427" data-name="Group 427" transform="translate(1096.884 1194.984)">
      <path id="Path_236" data-name="Path 236" d="M464.284,167.653c-.084-6.146-.673-12.377-1.216-18.5-.241-2.708-.355-5.455-.44-8.169-.078-2.565-.151-5.59-1.044-8a1.958,1.958,0,0,0-.759-.977,11.763,11.763,0,0,0,.985-5.364c-.077-3.217.016-8.423-3.113-10.243-3.572-2.077-8.273-2.464-12.272-3.1-9.937-1.564-19.8-3.586-29.711-5.284-10.055-1.721-20.1-3.491-30.054-5.722-4.8-1.076-9.785-1.769-14.507-3.142-4.125-1.2-8.44-3.759-12.811-3.714-4.49.045-9.269,2.9-13.273,4.689-5.153,2.3-10.142,5.023-15.226,7.482-6.032,2.917-12.093,5.8-18.109,8.775-6.569,3.037-13.09,6.165-19.611,9.3-7.264,3.5-14.7,6.68-21.861,10.386-2.649,1.371-6.1,2.952-8.188,5.12-2.566,2.654-2.472,6.269-2.034,9.718A33.033,33.033,0,0,0,264,161.515c.085,1.368.281,2.8.268,3.432-.056,2.764,0,5.549-.155,8.309-.3,5.169-1.028,10.316-1.35,15.489-.309,4.954-1.516,10.552-.062,15.433,1.038,3.486,4.608,6.146,7.831,7.482a87.717,87.717,0,0,0,14.891,4.262c5.322,1.164,10.525,2.624,15.756,4.112,5.16,1.468,10.46,2.206,15.675,3.419,5.274,1.226,10.6,2.19,15.874,3.382,5.335,1.205,10.75,1.926,16.086,3.1a147.773,147.773,0,0,0,16.207,2.6,65.724,65.724,0,0,0,7.05.607,16.653,16.653,0,0,0,6.816-2.012c5.117-2.365,9.934-5.434,14.857-8.169,18.935-10.514,38.34-20.1,57.115-30.915,2.322-1.337,4.54-2.818,6.8-4.243a13.455,13.455,0,0,0,4.723-4.267C465.053,179.072,464.354,172.626,464.284,167.653ZM265.68,145.03c.818-1.752,3.591-2.906,5.155-3.905,2.805-1.792,5.818-3.282,8.76-4.833,8.113-4.275,16.254-8.558,24.442-12.757a96.671,96.671,0,0,1,18.329-2.34c3.3-.131,6.6.234,9.908.069s6.6-.539,9.892-.8a52.947,52.947,0,0,0,16.4-3.99c4.272-1.768,9.977-3.907,12.717-7.831.45-.646-.457-1.576-1.1-1.1a64.36,64.36,0,0,1-14.5,7.441c-5.526,2.165-11.046,3.048-16.893,3.848a86.884,86.884,0,0,1-9.632,1.014c-3.145.08-6.213.051-9.347.384a105.244,105.244,0,0,0-13.683,2.251c8.065-4.114,16.18-8.14,24.37-11.977q2.467-1.088,4.933-2.184c5.871-2.614,11.679-5.23,17.656-7.592,2.651-1.047,5.145-2.174,8.051-1.444,2.821.709,5.577,1.79,8.343,2.7A20.123,20.123,0,0,1,367.4,103.3c-1.607.846-3.2,1.682-4.862,2.413-4.528,1.991-9.2,3.7-13.837,5.418a106.662,106.662,0,0,1-11.885,3.379c-4.074.991-8.113,1.454-12.221,2.177-.118.021-.091.215.027.209,4.13-.247,8.024-.151,12.132-.9a85.771,85.771,0,0,0,12.962-3.188c4.589-1.6,9.2-3.193,13.689-5.043a48.132,48.132,0,0,0,8.647-5.016c5.306,1.441,10.968,2.114,16.319,3.2.215.043.434.083.649.126-2.6,2.107-5.035,4.43-7.688,6.489a72.855,72.855,0,0,1-12.325,7.334c-9.184,4.557-19.923,6.36-30.006,7.608-10.335,1.282-20.476,2.439-30.424,5.673A66.751,66.751,0,0,0,295.7,138.94c-4.253,2.466-7.975,5.7-11.779,8.783-.129.105.046.336.18.234,4.163-3.139,8.239-6.4,12.908-8.772a84.028,84.028,0,0,1,15.72-5.906c10.389-2.888,21.195-2.616,31.769-4.313,9.38-1.508,19.025-3.266,27.446-7.892a71.039,71.039,0,0,0,11.559-7.611c1.887-1.576,3.642-3.4,5.59-4.871a13.8,13.8,0,0,0,2.41-2.028c.9.175,1.808.341,2.711.508-.968,1.191-1.715,2.676-2.777,3.771-1.473,1.519-3.139,2.856-4.75,4.222a62.729,62.729,0,0,1-12.435,7.774,75.781,75.781,0,0,1-7.614,3.606c-2,.743-4.138,1.122-6.177,1.742a111.958,111.958,0,0,1-14.24,3.013c-9.569,1.6-19.032,2.707-28.451,5.149-8.469,2.195-17.706,4.63-23.729,11.347a.467.467,0,0,0,.66.66c7.654-6.472,17.363-9,26.941-11.265a227.306,227.306,0,0,1,29.737-4.511c8.9-.894,17.551-4.254,25.354-8.485a54.843,54.843,0,0,0,11.194-7.79,39.724,39.724,0,0,0,4.383-4.587c1-1.28,1.706-3.134,2.7-4.5,3.988.732,7.987,1.406,11.988,2.051q3.873.626,7.745,1.266c-5.815,3.113-10.315,8.9-15.211,13.115a83.315,83.315,0,0,1-10.35,7.951,64.079,64.079,0,0,1-11.9,5.4,145.418,145.418,0,0,1-24.587,6.369c-8.344,1.5-16.721,2.84-24.88,5.131a70.435,70.435,0,0,0-12.734,4.56c-1.729.87-4.807,2.348-6.323,4.237-1.576-.336-3.151-.682-4.72-1.066-8.638-2.117-17.3-4.058-25.937-6.2a.191.191,0,0,0-.1.368c8.821,2.7,17.685,5.276,26.559,7.8,4.591,1.305,9.269,2.153,13.874,3.376,4.9,1.3,9.72,2.807,14.575,4.251,4.442,1.32,8.845,2.895,13.319,4.092,4.066,1.087,8.273,1.755,12.377,2.686,3.757.851,7.453,2.247,11.167.724a91.732,91.732,0,0,0,11.837-5.869.382.382,0,0,0-.384-.66c-4.061,1.946-8.971,4.513-13.614,4.492-1.855-.008-3.908-.864-5.759-1.226-2.023-.4-4.1-.81-6.106-1.307-8.415-2.085-16.748-4.318-25.1-6.68-3.158-.893-6.342-1.615-9.538-2.276,1.637-.945,3.425-1.712,5.078-2.509,2.388-1.156,4.854-2.2,7.308-3.212,4.756-1.951,9.685-2.436,14.749-2.933,9.659-.948,19.475-1.524,28.757-4.562,8.98-2.939,18.056-6.733,25.554-12.572,3.767-2.933,6.338-6.835,9.545-10.318a53.474,53.474,0,0,1,11.556-8.856.51.51,0,0,0-.515-.88,47.892,47.892,0,0,0-11.588,7.922c-3.583,3.36-6.494,7.278-10.431,10.275A91.218,91.218,0,0,1,373.741,145.9c-9.706,3.07-19.912,3.465-29.96,4.535a42.759,42.759,0,0,0-12.489,3.432c-3.559,1.533-7.614,3.263-10.727,5.794-3.443-.7-6.9-1.347-10.342-2.055.567-.37,1.133-.706,1.473-.929a36.242,36.242,0,0,1,5.815-3.033,97.174,97.174,0,0,1,12.113-3.763c7.871-2.181,16.152-3.1,24.217-4.363,15.581-2.448,30.467-7.085,42.761-17.35a117.6,117.6,0,0,0,10.358-9.5,44.468,44.468,0,0,1,9.5-7.847c9.282,1.532,18.554,3.1,27.834,4.634a82.268,82.268,0,0,1,8.823,1.648,9.819,9.819,0,0,1,3.464,1.517c1.444,1.125,1.334,2.726,1.286,4.514-.073,2.82.139,5.775-1.4,8.23-1.392,2.224-2.863,4.124-3.66,6.672-1.739,5.574-.489,12.047-3.7,17.172-1.207,1.927-3.145,3.325-5.254,1.27a8.152,8.152,0,0,1-1.669-3.508c-.779-2.45-.988-5.161-2.042-7.5-.658-1.46-1.449-3.009-3.217-2.907-1.827.105-2.884,1.4-3.682,2.9a39.23,39.23,0,0,0-2.562,7.2c-.773,2.525-1.509,6.044-3.524,7.928-3.8,3.559-6.42-7.48-11.2-3.641a8.723,8.723,0,0,0-2.3,3.969,56.8,56.8,0,0,0-2.321,9.046c-.507,2.64-.925,5.3-1.422,7.935s-1.143,5.933-3.256,7.8c-5.89,5.211-6.856-10.345-7.34-13.168-.567-3.3-3.111-8.384-7.289-7.069-3.975,1.253-5.112,7.187-6.424,10.549-1.784,4.571-4.508,12.406-10.166,12.954-3.594.348-5.523-1.167-7.928-3.578-1.325-1.326-3.067-3.288-5.134-3.15-1.723.115-2.909,1.57-3.789,2.906-.276.418-.5.87-.778,1.286-.7,1.046-.692,1.489-1.973,1.275-1.482-.247-2.361-2.163-3.169-3.315-2.028-2.895-4.264-6.145-8.3-4.715a10.645,10.645,0,0,0-4.562,3.7c-1.329,1.7-2.48,4.541-4.691,5.235-5.129,1.61-5.914-9.707-8.18-12.6-2.562-3.276-6.956-1.5-9.038,1.388-3.143,4.358-3.006,10.64-4.092,15.705-.389,1.811-1.3,7.7-4.191,6.459-2.327-1-4.01-5.185-4.857-7.394-2.115-5.52-1.081-11.324-1.221-17.075-.065-2.668-.368-9.72-4.053-10.2-4.165-.547-5.9,8.075-10.479,5.486-3.65-2.061-3.134-8.411-7.342-9.661-4.554-1.353-7.654,6.889-12.044,1.328a17.557,17.557,0,0,1-3.236-7.066C265.759,152.318,264.457,147.646,265.68,145.03Zm72.7,80.392c-9.886-1.656-19.689-4.165-29.48-6.283-4.8-1.039-9.365-2.821-14.087-4.136-5-1.393-10.045-2.587-15.076-3.878-4.592-1.178-11.175-2.509-13.718-7.037-1.39-2.475-1.156-6.183-1.113-8.952.043-2.738.238-5.48.3-8.22.135-5.51.76-11.037.545-16.549-.083-2.107-.081-4.224-.179-6.331a11.075,11.075,0,0,0,4.3,3.5c2.818,1.25,5.415.435,7.794-1.321,1.046-.773,2.585-2.909,3.934-2.128,1.079.626,1.58,2.74,2.125,3.755,1.1,2.05,2.608,4.366,4.9,5.2,2.6.947,4.983-.383,6.824-2.153a24.5,24.5,0,0,1,2.853-2.9c1.969-1.331,2.227,2.386,2.426,3.779.558,3.883-.164,7.912-.357,11.8-.316,6.326,1.374,15.049,6.88,19.061,6.158,4.489,9.607-3.558,10.651-8.4.808-3.751,1.076-7.59,1.847-11.338.379-1.849.858-4.034,2.383-5.3,2.648-2.19,3.712,1.559,4.4,3.481,1.54,4.312,3.672,12.86,10.177,9.645,2.214-1.093,3.417-3.314,4.828-5.219a9.7,9.7,0,0,1,3.309-3.159c2.7-1.27,4.085,1.25,5.337,3.137,1.3,1.961,2.807,5.046,5.37,5.572,2.858.588,4.269-2.51,5.639-4.388,1.764-2.416,3.284.311,4.6,1.768a23.2,23.2,0,0,0,2.177,2.232c.08,3.126.58,6.2.446,9.374a44.722,44.722,0,0,0,.83,10.33,91.575,91.575,0,0,1,1.607,10.511c.129,1.857.477,3.682.728,5.525.124.909.132,1.9.228,2.856a13.373,13.373,0,0,1-1.932.105C359.255,229.142,348.824,227.173,338.376,225.422ZM460.357,178.14c-.488,5.289-5.392,7.549-9.486,10.031-17.165,10.41-35.641,18.554-53.31,28.033-4.6,2.467-9.116,5.077-13.648,7.662a62.768,62.768,0,0,1-8.25,4.379c-.033-.244-.065-.491-.105-.725-.343-2.058-.872-4.074-1.329-6.1-.776-3.446-1.938-6.746-2.716-10.193a58,58,0,0,1-1.541-11.677,33.225,33.225,0,0,0-.332-5.019c-.193-1.1-.521-2.149-.8-3.218a12.781,12.781,0,0,0,9.4,1.187c7.186-1.814,9.9-11.711,11.967-17.862.461-1.369,1.178-4.914,2.558-5.647,2.627-1.4,3.876,4.294,4.076,5.737.539,3.924.451,8.053,2.444,11.625a6.078,6.078,0,0,0,6.484,3.358c3.038-.639,4.981-3.468,6.1-6.159,1.645-3.966,2.09-8.435,2.994-12.608a69.511,69.511,0,0,1,1.776-6.883c.249-.762.728-3.124,1.588-3.987,2.638,1.766,3.886,5.241,7.759,4.74,3.1-.4,4.718-3.075,5.82-5.716a51.234,51.234,0,0,0,2.07-6.575c.422-1.583,1.041-6.61,2.919-6.712,2.027-.112,3.134,9.267,4.138,11.112a6.456,6.456,0,0,0,7.71,3.151c3.178-.977,4.844-5.933,5.651-8.8,1.3-4.626,1.025-9.671,3.226-14.044a12.98,12.98,0,0,1,.827-1.393,35.358,35.358,0,0,1,.437,5.152c.072,2.241.158,4.514.324,6.752.381,5.08.781,10.158,1.154,15.24A93.705,93.705,0,0,1,460.357,178.14Z" transform="translate(-260.802 -95.448)" fill="#291f27"/>
      <path id="Path_237" data-name="Path 237" d="M399.76,117.959c-8.408,4.957-16.625,10.27-24.885,15.489,3.143-3.325,5-7.335,7.56-11.214a65.3,65.3,0,0,1,5.077-6.781c1.777-2.061,3.967-3.566,5.981-5.378.7-.63-.193-1.688-.977-1.266-4.7,2.525-7.541,6.025-10.072,10.664-2.89,5.294-5.1,10.928-9.642,15.077a.265.265,0,0,0-.092.261q-1.332.839-2.667,1.672c-4.911,3.062-9.94,5.934-14.8,9.084-4.747,3.078-9.347,6.358-14.1,9.428a.085.085,0,0,0,.086.147c4.878-2.848,9.612-5.915,14.484-8.77,5.142-3.011,10.444-5.748,15.643-8.66,5.177-2.9,10.448-5.584,15.417-8.839,2.451-1.607,5.031-2.984,7.488-4.579,2.259-1.468,4.972-2.646,6.754-4.7C401.765,118.733,400.825,117.333,399.76,117.959Z" transform="translate(-213.103 -87.568)" fill="#291f27"/>
      <path id="Path_238" data-name="Path 238" d="M386.653,108.516a44.2,44.2,0,0,0-9.726,9.229,136.385,136.385,0,0,1-10.155,12.5,83,83,0,0,1-12.677,10.487c-4.442,3.175-8.545,7.147-13.206,9.962a.148.148,0,0,0,.15.255c4.885-2.413,9.452-5.6,14.054-8.51,4.363-2.759,8.811-5.751,12.352-9.548a76.982,76.982,0,0,0,8.652-11.62,69.978,69.978,0,0,1,4.415-6.636,48.461,48.461,0,0,1,6.322-5.891C386.959,108.64,386.789,108.414,386.653,108.516Z" transform="translate(-213.276 -87.701)" fill="#291f27"/>
    </g>
    <g id="Group_428" data-name="Group 428" transform="translate(895.171 1248.996)">
      <path id="Path_239" data-name="Path 239" d="M309.477,142.679c-3.916-6.333-11.52-9.21-18.786-9.16a110.028,110.028,0,0,1-13.753-.284c-4.2-.494-8.314-2.01-12.5-2.743a40.135,40.135,0,0,0-8.116-.582,64.16,64.16,0,0,0-16.945-.027,60.848,60.848,0,0,0-9.868,2.091c-4.025,1.259-8.15,2.8-12.428,2.42-7.364-.66-13.789,2.262-20.124,5.792-6.819,3.8-12.407,10.115-19.988,12.476-6.857,2.136-13.536,2.826-18.732,8.317a64.161,64.161,0,0,0-6.279,8.424c-2.225,3.3-5.021,5.49-7.989,8.038-5.416,4.653-9.4,10.538-9.7,17.835a20.958,20.958,0,0,0,8.161,17.365c5.353,3.964,13.62,4.658,20.028,3.969a71.87,71.87,0,0,0,10.732-1.881,38.625,38.625,0,0,1,6.126-1.336,31.681,31.681,0,0,1,7.087.647A41.969,41.969,0,0,0,209.29,211.1c3.688-1.572,7.039-3.759,10.662-5.443,3.736-1.736,7.692-1.964,11.752-1.97a65.371,65.371,0,0,0,8.673-.577,1.341,1.341,0,0,0,.464-.067,48.677,48.677,0,0,0,12.784-3.577c6.684-2.963,11.456-8.909,18.689-10.742,3.693-.937,7.3-1.275,10.852-2.772a68.241,68.241,0,0,0,10.345-5.225A44.511,44.511,0,0,0,308.4,164.394c1.76-3.2,3.413-6.4,3.736-10.114A20.009,20.009,0,0,0,309.477,142.679Zm-133.5,67.506c-7.095,1.812-13.837,4.117-21.307,3.551-3.328-.252-7-.873-9.865-2.689a18.081,18.081,0,0,1-6.969-9.7c-2.173-7.637,1.071-14.18,6.586-19.3,2.308-2.142,5.053-3.733,7.356-5.88.312-.292.612-.6.9-.905,1.188.306,2.474.426,3.614.682a26.9,26.9,0,0,1,5.443,1.661c4.672,2.187,7.382,6.575,9.9,10.837s4.594,8.013,5.133,13.018c.3,2.791.429,5.614.819,8.4C177.058,209.944,176.518,210.048,175.979,210.185Zm34.831-12.35c-.11,2.777-1.152,5.662-1.686,8.413a44.033,44.033,0,0,1-10.77,3.841c-5.952,1.138-11.909-.646-17.792-.494.658-2.23-.268-5.969-.421-7.517-.521-5.26-2.485-9.535-5.282-13.957-2.636-4.165-5.408-8.561-9.726-11.191a21.338,21.338,0,0,0-6.617-2.415,26.51,26.51,0,0,0-5.051-.134c1.739-2.055,3.164-4.383,4.771-6.535a25.115,25.115,0,0,1,6.642-6.559c2.993-1.852,6.857-2.538,10.24-3.354.378-.091.746-.2,1.111-.3a24.225,24.225,0,0,1,4.473.556,45.387,45.387,0,0,1,9.176,3.936,39.849,39.849,0,0,1,13.306,11.657c3.315,4.375,4.659,10.071,6.236,15.235A28.787,28.787,0,0,1,210.811,197.835Zm7.954,3.838c-1.721.713-3.392,1.506-5.046,2.318a28.756,28.756,0,0,0,.985-5,27.992,27.992,0,0,0-1.168-9.674c-1.508-5.636-3.979-11.955-7.648-16.542a42.81,42.81,0,0,0-14.4-11.62,71.321,71.321,0,0,0-9.068-3.765,14.059,14.059,0,0,0-3.775-.609c5.78-2.34,10.2-6.5,15.391-10.216a58.389,58.389,0,0,1,10-5.565c1.188-.54,2.349-1.039,3.515-1.462a20.218,20.218,0,0,1,6.75,2.356c3.1,1.691,5.34,4.38,7.764,6.872a52.485,52.485,0,0,1,6.714,7.626c1.867,2.832,3.57,5.816,5.148,8.818a53.408,53.408,0,0,1,6.37,19.8,54.58,54.58,0,0,1-.191,10.039,33.106,33.106,0,0,1-.515,4.387c-.013.059-.03.116-.048.175q-.665.1-1.334.175C231.773,200.577,224.938,199.118,218.765,201.673Zm47.4-20.242a64.421,64.421,0,0,1-1.623,7.058c-2.4,1.341-4.613,3.029-6.87,4.591a39.24,39.24,0,0,1-14.679,5.945c.024-.11.049-.217.073-.34.346-1.725.582-3.432.76-5.182a40.62,40.62,0,0,0-.274-10.724c-1.245-7.638-4.882-13.735-8.882-20.261a103.084,103.084,0,0,0-6.116-9.683,74.912,74.912,0,0,0-7.009-7.149,25.4,25.4,0,0,0-8.156-5.851,18.665,18.665,0,0,0-3.374-1.047,16.957,16.957,0,0,1,5.761-.47,23.274,23.274,0,0,0,11.341-1.685c1.439-.575,2.97-1.24,4.546-1.876,5.835-.469,12.749-.053,16.922,3.872a62.83,62.83,0,0,1,11.43,14.333c3.295,5.67,4.83,11.687,5.706,18.13A36.881,36.881,0,0,1,266.161,181.431Zm26.951-5.466a1.394,1.394,0,0,0-.108.717,44.852,44.852,0,0,1-18.659,8.52,40.488,40.488,0,0,0-6.706,1.831,31.585,31.585,0,0,0,1.465-3.626c1.027-3.425.655-7.319.175-10.8-1.076-7.81-2.525-14.884-6.75-21.675a51.716,51.716,0,0,0-6.33-8.633,38.522,38.522,0,0,0-7.391-6.365,20.078,20.078,0,0,0-8.913-2.364c-1.6-.086-3.245-.1-4.89-.056a18.863,18.863,0,0,1,8.482-1.113c5.544.8,11.236.332,16.87.925a63.038,63.038,0,0,1,10.189,2.408,35.812,35.812,0,0,0,5.608,1.092,25.817,25.817,0,0,1,5.335,3.529c3.229,2.761,6.9,5.729,8.679,9.663a54.362,54.362,0,0,1,3.6,12.766C294.537,167.159,294.9,171.751,293.112,175.966Zm13.169-17.025a48.586,48.586,0,0,1-9.183,14.044,16.508,16.508,0,0,0-.018-8.461A83.846,83.846,0,0,0,291.94,149.6c-2.093-4.251-5.859-7.281-9.5-10.195a22.245,22.245,0,0,0-3.61-2.354c.714.037,1.435.062,2.166.069,7.174.072,14.319-1.1,20.889,2.694S309.12,152.638,306.281,158.941Z" transform="translate(-134.254 -129.333)" fill="#291f27"/>
      <path id="Path_240" data-name="Path 240" d="M168.019,169.715a28.856,28.856,0,0,0-13.531-12.648c-.073-.032-.139.07-.065.11A32.188,32.188,0,0,1,166.5,169.609a45.65,45.65,0,0,1,3.614,8.246,24.051,24.051,0,0,1,1.012,10.439.255.255,0,0,0,.491.135C173.589,181.839,171.059,175.458,168.019,169.715Z" transform="translate(-122.293 -112.864)" fill="#291f27"/>
      <path id="Path_241" data-name="Path 241" d="M196.438,171.839a42.033,42.033,0,0,0-15.85-20.186c-3.615-2.385-7.284-4.7-11.653-5.2-.07-.008-.086.11-.016.124,4.044.912,7.788,3.606,11.14,5.985a35.255,35.255,0,0,1,9.02,9.817,68.145,68.145,0,0,1,4.874,9.572c1.514,3.779,1.184,8.136,1.729,12.113a.534.534,0,0,0,1.023,0C197.311,180.176,197.8,175.628,196.438,171.839Z" transform="translate(-113.691 -119.167)" fill="#291f27"/>
      <path id="Path_242" data-name="Path 242" d="M211.965,135.443c-.116-.084-.265.107-.155.2,9.655,8.22,13.284,21.471,13.233,33.736a.786.786,0,0,0,1.57,0C227.549,156.552,222.493,143.215,211.965,135.443Z" transform="translate(-88.211 -125.717)" fill="#291f27"/>
      <path id="Path_243" data-name="Path 243" d="M207.581,157.752a66.323,66.323,0,0,0-4.433-7.251,48.546,48.546,0,0,0-6.354-6.9c-2.378-2.145-5.169-3.821-7.495-5.977-.36-.333-.9.2-.54.54,1.985,1.86,4.374,3.172,6.347,5.072a57.283,57.283,0,0,1,6.46,7.637,44.86,44.86,0,0,1,7.128,14.6.448.448,0,0,0,.875-.12A16.111,16.111,0,0,0,207.581,157.752Z" transform="translate(-101.95 -124.474)" fill="#291f27"/>
    </g>
  </g>
</svg>
