<svg xmlns="http://www.w3.org/2000/svg" width="501.186" height="239.07" viewBox="0 0 501.186 239.07">
  <g id="Group_444" data-name="Group 444" transform="matrix(0.978, 0.208, -0.208, 0.978, -587.804, -1529.13)">
    <g id="Group_406" data-name="Group 406" transform="translate(1347.433 1329.69)">
      <path id="Path_65" data-name="Path 65" d="M485.445,261.638c-.326,1.326.656,2.665,1.729,3.848a100.613,100.613,0,0,0,7.192,10.538c2.965,4.059,5.673,8.264,8.421,12.47,2.324,3.56,4.544,7.16,6.963,10.66.8,1.156,1.912,3.167,3.15,3.91,1.05.631,2.637.572,3.835.758,1.939.3,3.873.658,5.809.972,1.161.188,2.2.792,3.375.337,1.416-.551,2.911-2.306,3.967-3.348.766-.757,1.372-1.644,2.109-2.427.457-.486,1.215-.911,1.573-1.495,1.5-2.439-2.46-6.357-3.8-8.167-2.336-3.161-4.6-6.414-7.069-9.478-3.877-4.818-7.724-9.643-11.673-14.4-1.562-2.293-3.047-4.645-4.708-6.867a8.929,8.929,0,0,0-5.016-3.752c-2.669-.872-5.193-2.275-7.879-3.045-2.348-.673-2.636.771-3.657,2.479C488.45,256.853,486.083,259.049,485.445,261.638Zm28.23,39.929a.761.761,0,0,0,.236-.236c.861-1.351,1.465-2.809,2.368-4.137,1.424-2.092,2.315-3.71,5.322-3.035s6.013,1.306,9.009,1.962c.114.025.186-.145.074-.2a41.385,41.385,0,0,0-5.937-1.972c-1.5-.412-3.768-1.443-5.333-1.256a2.525,2.525,0,0,0-.478.111,22.418,22.418,0,0,0-3.3-5.734c-1.222-1.751-2.472-3.485-3.719-5.218-2.312-3.212-4.681-6.377-6.986-9.583-2.327-3.241-4.06-6.822-6.378-10.027-1.183-1.636-2.246-3.375-3.377-5.05-.552-.819-1.083-1.869-1.763-2.694a21.862,21.862,0,0,1,3.37,1.45c1.836.708,4.3.983,5.972,2,2.056,1.253,3.856,4.21,5.3,6.06q2.128,2.722,4.3,5.363c2.632,3.789,5.321,7.542,8.172,11.138,2.34,2.953,4.285,6.194,6.509,9.23,1.051,1.434,2.043,2.918,3.039,4.392a7.475,7.475,0,0,1,1.146,1.871c.213.787.294.057-.062.84a5.872,5.872,0,0,1-.819.9,41.149,41.149,0,0,1-3.667,3.993c-.939.865-1.307,1.375-2.689,1.441-.518.024-1.154-.087-1.673-.1-1.877-.062-3.744-.53-5.611-.75a11.127,11.127,0,0,1-2.228-.264A2.356,2.356,0,0,1,513.676,301.567Zm-22.1-45.5a4.364,4.364,0,0,0,.243-.429c.935,1.083,1.558,2.7,2.4,3.815,1.14,1.525,2.006,3.241,3.205,4.732,2.3,2.868,4.519,6,6.653,9.021,4.692,6.651,9.879,13.009,14.331,19.849a10.265,10.265,0,0,0-2.318,2.576,25.114,25.114,0,0,0-3.292,4.865c-.154-.228-.3-.456-.449-.663-4.18-5.9-7.939-12.048-11.929-18.075-1.681-2.541-3.477-5-5.2-7.517a.319.319,0,0,0-.055-.236c-1.443-2.031-2.514-4.325-3.791-6.462a39.525,39.525,0,0,0-2.22-3.369c-.737-.984-1.492-1.391-1.031-2.545C488.945,259.574,490.4,257.9,491.58,256.066Z" transform="translate(-485.382 -251.987)" fill="#291f27"/>
    </g>
    <g id="Group_408" data-name="Group 408" transform="translate(1053.627 1411.782)">
      <path id="Path_78" data-name="Path 78" d="M292.872,334.209c-2.491-1.483-6.928-.21-8.4,2.241a1.841,1.841,0,0,0,.634,2.887c1.124,1.08,3.6,1.181,5.2.791,1.41-.343,3.455-1.12,4.028-2.619A2.742,2.742,0,0,0,292.872,334.209Zm-.116,3.39a6.4,6.4,0,0,1-3.024,1.512,7.944,7.944,0,0,1-1.348.234,6.176,6.176,0,0,1-3.263-1,1.851,1.851,0,0,1-.221-1.148,3.155,3.155,0,0,1,.773-1.017,6.517,6.517,0,0,1,5.5-1.482C292.328,334.987,293.942,336.033,292.756,337.6Z" transform="translate(-256.124 -307.923)" fill="#291f27"/>
      <path id="Path_79" data-name="Path 79" d="M310.582,320.975c-2.489-1.484-6.928-.21-8.4,2.241a1.839,1.839,0,0,0,.634,2.885c1.124,1.08,3.6,1.181,5.2.791,1.41-.343,3.455-1.12,4.028-2.617A2.742,2.742,0,0,0,310.582,320.975Zm-.115,3.389a6.416,6.416,0,0,1-3.024,1.513,8.065,8.065,0,0,1-1.348.234,6.173,6.173,0,0,1-3.263-1,1.847,1.847,0,0,1-.221-1.148,3.145,3.145,0,0,1,.771-1.016,6.516,6.516,0,0,1,5.5-1.483C310.038,321.753,311.653,322.8,310.467,324.364Z" transform="translate(-250.446 -312.166)" fill="#291f27"/>
      <path id="Path_80" data-name="Path 80" d="M306.392,335.876c-2.491-1.484-6.929-.21-8.4,2.241a1.839,1.839,0,0,0,.634,2.885c1.124,1.08,3.6,1.181,5.2.791,1.41-.343,3.455-1.12,4.028-2.619A2.741,2.741,0,0,0,306.392,335.876Zm-.116,3.389a6.4,6.4,0,0,1-3.024,1.512,7.936,7.936,0,0,1-1.348.234,6.173,6.173,0,0,1-3.263-1,1.848,1.848,0,0,1-.221-1.148,3.134,3.134,0,0,1,.773-1.016,6.512,6.512,0,0,1,5.5-1.483C305.848,336.654,307.462,337.7,306.276,339.265Z" transform="translate(-251.79 -307.389)" fill="#291f27"/>
      <path id="Path_81" data-name="Path 81" d="M298.515,325.036c-2.491-1.484-6.929-.21-8.4,2.241a1.839,1.839,0,0,0,.634,2.885c1.124,1.08,3.6,1.181,5.2.791,1.41-.343,3.455-1.12,4.028-2.617A2.741,2.741,0,0,0,298.515,325.036Zm-.116,3.389a6.4,6.4,0,0,1-3.024,1.513,7.937,7.937,0,0,1-1.348.234,6.173,6.173,0,0,1-3.263-1,1.847,1.847,0,0,1-.221-1.148,3.152,3.152,0,0,1,.773-1.016,6.514,6.514,0,0,1,5.5-1.483C297.971,325.814,299.585,326.86,298.4,328.425Z" transform="translate(-254.315 -310.864)" fill="#291f27"/>
      <path id="Path_82" data-name="Path 82" d="M315.541,328.5c-2.491-1.484-6.928-.21-8.4,2.241a1.84,1.84,0,0,0,.634,2.885c1.124,1.08,3.6,1.181,5.2.791,1.41-.343,3.455-1.12,4.028-2.619A2.739,2.739,0,0,0,315.541,328.5Zm-.115,3.389A6.4,6.4,0,0,1,312.4,333.4a7.914,7.914,0,0,1-1.348.234,6.167,6.167,0,0,1-3.262-1,1.847,1.847,0,0,1-.222-1.148,3.173,3.173,0,0,1,.773-1.016,6.514,6.514,0,0,1,5.5-1.483C315,329.279,316.611,330.325,315.426,331.89Z" transform="translate(-248.857 -309.753)" fill="#291f27"/>
      <path id="Path_83" data-name="Path 83" d="M321.089,319.96c-2.819-.672-6.674,1.87-7.349,4.65a1.841,1.841,0,0,0,1.469,2.565c1.395.695,3.787.05,5.2-.8,1.243-.749,2.962-2.1,3.061-3.7A2.741,2.741,0,0,0,321.089,319.96Zm.9,3.268a6.4,6.4,0,0,1-2.435,2.347,7.855,7.855,0,0,1-1.216.626,6.167,6.167,0,0,1-3.411.024,1.847,1.847,0,0,1-.555-1.029,3.149,3.149,0,0,1,.433-1.2,6.509,6.509,0,0,1,4.8-3.057C320.8,320.865,322.655,321.381,321.992,323.229Z" transform="translate(-246.635 -312.323)" fill="#291f27"/>
      <path id="Path_84" data-name="Path 84" d="M282.019,333.714c-2.819-.672-6.674,1.87-7.349,4.65a1.841,1.841,0,0,0,1.467,2.565c1.4.695,3.789.05,5.2-.8,1.243-.749,2.962-2.1,3.061-3.7A2.74,2.74,0,0,0,282.019,333.714Zm.9,3.268a6.407,6.407,0,0,1-2.435,2.347,7.972,7.972,0,0,1-1.216.626,6.171,6.171,0,0,1-3.412.024,1.858,1.858,0,0,1-.553-1.029,3.147,3.147,0,0,1,.433-1.2,6.514,6.514,0,0,1,4.8-3.059C281.732,334.618,283.585,335.134,282.922,336.982Z" transform="translate(-259.161 -307.914)" fill="#291f27"/>
      <path id="Path_85" data-name="Path 85" d="M294.735,340.109c-2.819-.672-6.674,1.87-7.349,4.65a1.841,1.841,0,0,0,1.469,2.565c1.395.695,3.787.05,5.2-.8,1.243-.749,2.962-2.1,3.061-3.7A2.74,2.74,0,0,0,294.735,340.109Zm.9,3.268a6.4,6.4,0,0,1-2.435,2.347,7.847,7.847,0,0,1-1.216.626,6.171,6.171,0,0,1-3.412.024,1.854,1.854,0,0,1-.553-1.029,3.147,3.147,0,0,1,.433-1.2,6.509,6.509,0,0,1,4.8-3.057C294.448,341.014,296.3,341.53,295.638,343.378Z" transform="translate(-255.084 -305.863)" fill="#291f27"/>
      <path id="Path_86" data-name="Path 86" d="M327.867,327.052c-2.241-1.838-6.82-1.239-8.642.965a1.839,1.839,0,0,0,.2,2.948c.951,1.236,3.385,1.7,5.022,1.557,1.445-.129,3.583-.593,4.372-1.99A2.74,2.74,0,0,0,327.867,327.052Zm-.618,3.334a6.4,6.4,0,0,1-3.217,1.045,7.844,7.844,0,0,1-1.368.03,6.157,6.157,0,0,1-3.077-1.472,1.84,1.84,0,0,1-.048-1.167,3.133,3.133,0,0,1,.914-.889,6.515,6.515,0,0,1,5.657-.647C327.214,327.74,328.654,329.016,327.249,330.387Z" transform="translate(-245.049 -310.363)" fill="#291f27"/>
      <path id="Path_87" data-name="Path 87" d="M305.355,330.292c-2.241-1.837-6.82-1.239-8.642.965a1.841,1.841,0,0,0,.2,2.949c.951,1.235,3.385,1.7,5.022,1.556,1.446-.129,3.583-.593,4.372-1.99A2.74,2.74,0,0,0,305.355,330.292Zm-.618,3.334a6.4,6.4,0,0,1-3.217,1.045,7.962,7.962,0,0,1-1.368.032,6.174,6.174,0,0,1-3.077-1.474,1.837,1.837,0,0,1-.048-1.166,3.12,3.12,0,0,1,.914-.89,6.516,6.516,0,0,1,5.657-.647C304.7,330.98,306.142,332.256,304.737,333.627Z" transform="translate(-252.266 -309.324)" fill="#291f27"/>
      <path id="Path_88" data-name="Path 88" d="M288.948,327.655c-2.241-1.838-6.82-1.24-8.642.964a1.841,1.841,0,0,0,.2,2.949c.951,1.235,3.385,1.7,5.022,1.556,1.446-.129,3.583-.593,4.372-1.989A2.74,2.74,0,0,0,288.948,327.655Zm-.618,3.333a6.405,6.405,0,0,1-3.217,1.046,7.972,7.972,0,0,1-1.368.03,6.184,6.184,0,0,1-3.077-1.472,1.841,1.841,0,0,1-.048-1.167,3.151,3.151,0,0,1,.914-.89,6.516,6.516,0,0,1,5.657-.647C288.295,328.343,289.735,329.617,288.33,330.988Z" transform="translate(-257.526 -310.17)" fill="#291f27"/>
      <path id="Path_89" data-name="Path 89" d="M302.632,319.374c-2.242-1.837-6.821-1.239-8.643.965a1.841,1.841,0,0,0,.2,2.949c.951,1.235,3.385,1.7,5.022,1.556,1.446-.129,3.583-.593,4.372-1.989A2.741,2.741,0,0,0,302.632,319.374Zm-.619,3.335a6.418,6.418,0,0,1-3.217,1.046,7.963,7.963,0,0,1-1.367.03,6.183,6.183,0,0,1-3.078-1.472,1.841,1.841,0,0,1-.048-1.167,3.143,3.143,0,0,1,.915-.89,6.512,6.512,0,0,1,5.656-.647C301.977,320.062,303.418,321.338,302.013,322.709Z" transform="translate(-253.139 -312.825)" fill="#291f27"/>
      <path id="Path_90" data-name="Path 90" d="M322.654,334.878c-2.242-1.838-6.82-1.24-8.643.964a1.841,1.841,0,0,0,.2,2.949c.951,1.235,3.385,1.7,5.022,1.556,1.446-.128,3.584-.592,4.374-1.989A2.742,2.742,0,0,0,322.654,334.878Zm-.619,3.335a6.4,6.4,0,0,1-3.216,1.045,7.976,7.976,0,0,1-1.368.03,6.161,6.161,0,0,1-3.078-1.472,1.859,1.859,0,0,1-.048-1.167,3.16,3.16,0,0,1,.915-.89,6.515,6.515,0,0,1,5.657-.647C322,335.566,323.44,336.84,322.035,338.212Z" transform="translate(-246.721 -307.855)" fill="#291f27"/>
      <path id="Path_91" data-name="Path 91" d="M317.43,316.734c-2.241-1.838-6.82-1.239-8.642.965a1.839,1.839,0,0,0,.2,2.948c.951,1.236,3.385,1.7,5.022,1.557,1.446-.129,3.583-.593,4.372-1.989A2.741,2.741,0,0,0,317.43,316.734Zm-.618,3.334a6.4,6.4,0,0,1-3.217,1.045,7.841,7.841,0,0,1-1.368.032,6.173,6.173,0,0,1-3.077-1.474,1.84,1.84,0,0,1-.048-1.167,3.135,3.135,0,0,1,.914-.889,6.516,6.516,0,0,1,5.657-.647C316.777,317.422,318.217,318.7,316.812,320.069Z" transform="translate(-248.395 -313.671)" fill="#291f27"/>
      <path id="Path_92" data-name="Path 92" d="M384.681,364.41c-.424-2.694,4.775-6.462.672-8.713a8.536,8.536,0,0,0-8.666.512,20.468,20.468,0,0,0-.927-14.365c-2.463-5.638-6.6-9.873-10.88-14.174-6.5-6.542-15.061-9.988-24-11.675a61.791,61.791,0,0,0-8.583-1.721,35.56,35.56,0,0,0-8.559.38,59.631,59.631,0,0,0-17.648,3.666,46.848,46.848,0,0,0-8.458,4.122,78.083,78.083,0,0,0-10.466,6.1c-9.874,6.846-17.811,16.128-21.717,27.582a51.19,51.19,0,0,0-2.5,18.454c.26,5.8,2.023,11.666,6.707,15.426.057.045.116.086.173.131a8.415,8.415,0,0,0-2.277,2.617c-1.43,3.249-1.233,6.68,1.834,8.773a.824.824,0,0,0,.19.1,3.721,3.721,0,0,0,.468,3.614c1.276,1.512,3.607,1.228,5.313.807l.054-.016a5.6,5.6,0,0,0,1.216,4.815,8.361,8.361,0,0,0-1.025,1.286,9.625,9.625,0,0,0-.592,3.642,3.687,3.687,0,0,0,3.191,3.846,3.376,3.376,0,0,0,.378.044,30.926,30.926,0,0,0,2.843,12.756,14.9,14.9,0,0,0,3.2,4.449c1.591,1.577,3.324,1.969,5.454,2.462,10.66,2.462,21.186.806,31.867-.586,5.719-.746,11.319-2.794,16.942-4.073,5.3-1.2,10.616-2.732,15.817-4.308,5.068-1.536,10.031-3.658,14.966-5.565a54.671,54.671,0,0,0,13.222-7.459,31.461,31.461,0,0,0,5.892-5.5,12.879,12.879,0,0,0,2.124-6.306c.312-2.657-.345-5.235-.806-7.83-.477-2.7-1.677-4.612-2.8-7.03a12.611,12.611,0,0,0,.586-6.474c-.26-1.987-.792-4.181-2.588-5.012.2-.325.4-.664.584-1.026,1.265-2.472.7-4.124.153-6.691a1.456,1.456,0,0,0-.395-.741,4.8,4.8,0,0,0,.613-1.5C386.681,367.182,384.962,366.2,384.681,364.41Zm-6.743-2.771c-.283.957-.788,1.52-.609,2.665.277,1.762,2.26,2.665.424,4.357a11.179,11.179,0,0,1-3.5,1.834,1.629,1.629,0,0,0-.151-.173c.165-.177.325-.359.475-.551,1.985-2.537,1.6-5.923,1.191-8.892a1.38,1.38,0,0,0-.714-.917,14.083,14.083,0,0,0,.718-1.344c.154-.338.293-.677.425-1.02C377.189,359.034,378.484,359.792,377.938,361.64Zm-95.887,36.74c-3.408.2-7.117-2.953-8.555-6.1a24.752,24.752,0,0,0,12.214,1.463,152.579,152.579,0,0,0,19.726-3.547q3.037-.731,6.044-1.558c-1.3,2.855-5.821,4.881-8.141,6.249a26.181,26.181,0,0,1-12.056,3.329C288.19,398.381,285.144,398.2,282.051,398.38Zm9.667,2.188a11.888,11.888,0,0,1-1.737.47,12.914,12.914,0,0,1-3.806.209,7.931,7.931,0,0,1-2.4-.812c.284-.018.568-.034.853-.042,2.191-.054,4.369.28,6.579.2C291.381,400.589,291.549,400.576,291.718,400.568Zm54.427-20.394a24.635,24.635,0,0,1-4.127,2.644c-2.66,1.531-5.243,3.089-8.013,4.416-3.134,1.5-7.085,2.962-10.622,2.885a30.752,30.752,0,0,1-5.136-.4c-.688-.135-4.374-1.68-4.535-1.56a.292.292,0,0,0,.115-.184q5.648-1.616,11.2-3.558c6.377-2.234,12.851-4.258,19.164-6.661q1.771-.676,3.54-1.373A4.516,4.516,0,0,1,346.144,380.174Zm4.268-2.775a12.949,12.949,0,0,0,2.176,1.093,8.632,8.632,0,0,0,4.036-.024c.471-.089.935-.194,1.392-.31-.392,1.756-1.356,2.734-2.917,3.889a9.219,9.219,0,0,1-2.353,1.449,8.848,8.848,0,0,1-2.526.009c-1.253-.04-2.525-.193-3.758-.147C348.661,381.9,350.435,379.9,350.413,377.4Zm-29.89,13.945.808.062c-.528.494-.972,1.088-1.515,1.561a17.237,17.237,0,0,1-4.079,2.864,12.014,12.014,0,0,1-5.628.629c-1.15-.063-2.3-.343-3.44-.5a16.089,16.089,0,0,0,4.3-3.564,10.925,10.925,0,0,0,2.254-3.554C314.379,390.641,318.986,391.227,320.522,391.345Zm-16.492,6.124c.481-.244.956-.507,1.428-.783a13.454,13.454,0,0,0,7.081,1.36c-.483.38-.99.831-1.59,1.29a9.691,9.691,0,0,1-4.085,2.1,13.252,13.252,0,0,1-3.844.118A7.048,7.048,0,0,0,304.031,397.469Zm6.633,4.589c.709-.528,1.438-1.153,2.1-1.734,1.013-.885,1.817-1.9,3.148-.839a5.828,5.828,0,0,0,4.561,1.369c.033,0,.065-.011.1-.015.158,4.469-4.825,7.471-8.514,8.593a49.519,49.519,0,0,1-13.867,2.363c-3.949.049-7.831-.049-11.77-.207-2.374-.1-4.865-.17-7-1.359-1.393-.777-1.742-1.776-2.314-3.147a3.47,3.47,0,0,0-.919-1.276,31.827,31.827,0,0,0,3.14-1.179c1.064-.45,2.1-.976,3.115.051.3.305.4.984.685,1.359,1.178,1.536,3.213,1.673,4.977,1.309,3.053-.63,4.943-3.2,8.25-2.479a6.061,6.061,0,0,0,5.865-2.2A8.479,8.479,0,0,0,310.664,402.058Zm6.014-4.466c-.156-.081-.3-.149-.449-.21a12.212,12.212,0,0,0,6.785-5.439h0a1.047,1.047,0,0,0,.054-.108l.028-.069a.6.6,0,0,0,.046-.239,19.876,19.876,0,0,0,3.952-.144,33.582,33.582,0,0,0,7.337-1.994c.225-.088.448-.184.672-.275a4.039,4.039,0,0,1-2.542,3.764c-1.754.872-3.679,1.432-5.457,2.277-1.54.732-3,1.558-4.507,2.343A5.8,5.8,0,0,1,316.678,397.591Zm6.417,2.576c.981-.4,1.92-.9,2.895-1.377,2.26-1.113,4.548-2.1,6.889-3.029,2.592-1.023,4.593-2.956,4.674-5.486,1.762,2.5,5.1,2.918,8.024,1.833,2.328-.864,3.943-2.658,6.109-3.725,1.509-.745,2.909-.1,4.477-.2a8.482,8.482,0,0,0,2.885-.7c2.409-1.066,3.674-3.43,5.342-5.33a5.488,5.488,0,0,1,.541-.528c-.066,1.689.244,3.393.145,5.09-.157,2.7-1.906,4.32-3.95,5.877a24.69,24.69,0,0,1-5.278,2.78c-2.13.911-4.116,2.123-6.241,3.047a96.125,96.125,0,0,1-13.18,4.56c-3.935,1.051-10.7,2.446-13.459-1.42A6.887,6.887,0,0,0,323.095,400.168Zm34.868-14.974c-1.9.831-3.471-.062-5.362.155-1.665.19-2.97,1.327-4.251,2.3-2.912,2.221-7.768,4.878-10.861,1.647a5.965,5.965,0,0,0-.271-1.084,82.447,82.447,0,0,0,7.729-3.95c3.11-.379,6.617,1.48,9.569-.18a16.542,16.542,0,0,0,4.086-3.144,6.13,6.13,0,0,0,.9-1.417c.145-.317.247-1.532.371-1.692a.657.657,0,0,0,.122-.273,71.332,71.332,0,0,0,6.846-2.925,37.2,37.2,0,0,0,5.413-2.755c.148.287.483.5.576.729a3.543,3.543,0,0,1-.627,3.129c-1.321,1.9-3.437,2.5-5.484,3.239C363.189,380.249,361.315,383.725,357.962,385.194Zm13.86-16.065c-1.84,1.9-4.359,2.955-6.653,4.174-4.256,2.261-10.559,5.947-14.915,2.075,4.108-1.668,8.177-3.448,12.131-5.429,3.691-1.849,7.761-4.139,10.668-7.317a1.345,1.345,0,0,0,.132.062C373.457,364.968,373.5,367.4,371.822,369.129ZM266.757,380.556c-1.681-5.587-1.127-11.974-.17-17.651,1.887-11.2,8.557-20.863,17.111-28.074a77.632,77.632,0,0,1,35.549-16.646,67.972,67.972,0,0,1,9.734-1.306h0a61.467,61.467,0,0,1,26.659,7.512c4.864,2.763,8.4,6.924,12.18,10.958,3.677,3.923,7.126,10.162,6.621,15.653a16.914,16.914,0,0,1-2.517,8.223,23.433,23.433,0,0,1-6.509,5.94c-4.825,3.274-10.128,5.667-15.4,8.106-5.848,2.7-11.9,4.718-17.947,6.916-5.6,2.035-11.213,4.1-16.958,5.668a175.351,175.351,0,0,1-17.77,4.225c-5.891.971-12.592,2.36-18.531,1.166A15.177,15.177,0,0,1,266.757,380.556Zm1.678,16.279a10.883,10.883,0,0,1,.536-3.081,13.718,13.718,0,0,1,1.8-2.944,16.9,16.9,0,0,0,1.874,1.08,6.991,6.991,0,0,0,1.71,3.857,7.2,7.2,0,0,0-4.049,3.993l-.081.18C269.326,399.056,268.411,398.208,268.436,396.835Zm2.875,4.979a10.771,10.771,0,0,1,1.715-3.024c.226-.264,2.315-1.8,2.017-2.19a11.669,11.669,0,0,0,3.946,3.452,7.676,7.676,0,0,0,3.9.448,7.251,7.251,0,0,0,5.9,1.966,12.121,12.121,0,0,0,5.688-2.135,29.443,29.443,0,0,0,7.675-2,5.363,5.363,0,0,1-2.743,3.786c-1.867.976-3.481-.153-5.41.083-2.99.368-7.238,5.284-9.85,1.811-.684-.91-1.07-1.9-2.418-1.82-1.52.085-3.088,1.492-4.458,2.071C274.867,405.277,269.517,406.357,271.311,401.813Zm5.486,14.7a7.053,7.053,0,0,1,.483-4.593,2.227,2.227,0,0,1,.189-.305c5,3.84,17.318,2.158,21.7,1.721a64.36,64.36,0,0,0,16.632-3.852,12.054,12.054,0,0,0,6.967-7.073c1.458,2.711,5.261,3.486,8.336,3.329,5.9-.3,12.019-2.129,17.547-4.124,2.769-1,5.3-2.426,8-3.574a26.007,26.007,0,0,0,6.6-3.48,15.086,15.086,0,0,0,3.556-3.8,42.553,42.553,0,0,0,13.725-6.752,25.606,25.606,0,0,0,3.131-2.713,1.265,1.265,0,0,0,.411.1c1.381.087,1.638,3.131,1.7,4.124a9.081,9.081,0,0,1-.563,3.9,6.451,6.451,0,0,1-2.565,3.2c-1.294.741-2.867.454-4.169,1.144-1.773.94-2.258,3.081-3.686,4.367a5.33,5.33,0,0,1-4.1,1.277,4.025,4.025,0,0,0-2.483.623c-1.842,1.244-3.053,3.073-5.076,4.189a4.885,4.885,0,0,1-4.51.449,3,3,0,0,0-2.539.025c-1,.539-1.589,1.706-2.373,2.48a10.261,10.261,0,0,1-3.473,2.25,11.913,11.913,0,0,1-4.161.93c-1.328.012-2.116-.883-3.324-1.162-1.751-.4-2.855,1.017-3.956,2.158a11.656,11.656,0,0,1-8.029,3.692,7.592,7.592,0,0,1-3.937-.886,2.97,2.97,0,0,0-2-.584c-.972.176-1.513,1.1-2.121,1.763a8.86,8.86,0,0,1-4.079,2.66,16.772,16.772,0,0,1-7.559.593c-2.021-.343-3.237.477-4.791,1.77-1.87,1.554-5.141,4.519-7.152,1.879-1.008-1.325-1.655-2.34-3.453-1.694-2.751.986-5.252,2.719-8.328,2.505-1.964-.137-2.818-1.292-3.284-3.171-.155-.625-.112-1.384-.63-1.849C281.628,416.414,278.075,419.68,276.8,416.511ZM388.24,404.7c-.12,2.026-.6,4.437-2,5.969a39.8,39.8,0,0,1-4.6,4.246,50.975,50.975,0,0,1-13.374,7.567c-4.235,1.59-8.441,3.382-12.738,4.788-9.244,3.027-18.877,4.8-28.254,7.348-4.923,1.336-10.067,1.852-15.113,2.567a86.537,86.537,0,0,1-14.143.716,76.028,76.028,0,0,1-7.946-.984,8.04,8.04,0,0,1-6.126-3.585c-1.371-1.9-2.077-4.806-2.784-7.056a34.53,34.53,0,0,1-1.2-6.676,6.956,6.956,0,0,1,1.05-.037c1.756.1,1.211,1.608,1.607,2.979.692,2.4,2.569,3.255,4.924,3.375a13.135,13.135,0,0,0,8.061-2.357c.353-.246.887-.927,1.38-.754.284.1.705,1.175.918,1.437a3.305,3.305,0,0,0,2.229,1.257c2.43.395,4.906-.993,6.676-2.562,1.446-1.282,2.249-2.577,4.354-2.233a20.67,20.67,0,0,0,4.136.45c2.652-.086,5.573-.483,7.776-2.076a8.193,8.193,0,0,0,1.7-1.606c.613-.8.293-.622.96-.561,1.255.112,2.534.909,3.871,1.03a13.435,13.435,0,0,0,8.473-2.055,12.966,12.966,0,0,0,2.763-2.673c.324-.4.956-1.491,1.471-1.48.412.009,1.051.663,1.461.844,2.282,1.006,5.517.489,7.76-.408a11.509,11.509,0,0,0,3.333-2.089,11.158,11.158,0,0,0,1.317-1.442,6.074,6.074,0,0,1,.717-.967c.677-.531,1-.313,1.651-.165,2.59.589,4.59.005,6.932-1.306a11.952,11.952,0,0,0,2.9-2.22,4.248,4.248,0,0,1,1.8-1.47,9.616,9.616,0,0,1,2.417-.189c3.375-.35,4.795-2.661,6.414-5.265,1.1-1.77,2.732-1.385,4.435-2.188a7.2,7.2,0,0,0,2.094-1.535,16.463,16.463,0,0,1,1.7,3.918A27.689,27.689,0,0,1,388.24,404.7Zm-4.84-26.558c-.956,2.607-3.554,4.4-5.812,5.888a67.19,67.19,0,0,1-10.293,5.727,6.5,6.5,0,0,0,.289-.9c.614-2.526-.285-4.994-.461-7.484a1.15,1.15,0,0,0-.368-.792c1.61-.6,3.394-.708,5-1.669a7.2,7.2,0,0,0,3.371-4.193c.034-.139.065-.284.091-.429a5.063,5.063,0,0,0,2.81.664,11.207,11.207,0,0,0,5.21-1.826C383.7,374.82,384.08,376.286,383.4,378.139Zm.1-10.97c.72,1.965-.853,3.477-2.431,4.482a7.5,7.5,0,0,1-3.538,1.263,17.4,17.4,0,0,1-2.246-.437,3.712,3.712,0,0,0-.082-.444,2.413,2.413,0,0,0-.563-.975c2.586-.028,6.566-1.009,5.928-3.962-.2-.94-1.206-1.367-1.642-2.15-1.091-1.958.94-2.594,1.091-4.252.145-1.6-1.577-2.723-2.427-3.851a9.541,9.541,0,0,1,3.012-.316c1.6.1,4.674.907,3.67,3.018-.792,1.668-2.355,3.267-1.965,5.274C382.484,365.727,383.2,366.334,383.5,367.169Z" transform="translate(-262.901 -314.15)" fill="#291f27"/>
      <path id="Path_93" data-name="Path 93" d="M302.928,390.078c-2.063,1.023-3.106,3.488-5.846,3.008-1.376-.24-1.663-2.072-3.015-2.105-1.162-.028-2.11,1.531-2.95,2.176a6.627,6.627,0,0,1-3.737,1.577c-1.653.03-2.808-.957-4.042-1.89-.211-.158-.457.17-.283.355,1.585,1.678,3.068,3.122,5.549,2.728a8.845,8.845,0,0,0,3.448-1.507c-.11.074,2.118-1.739,1.871-1.76.185.016,1.13,1.521,1.5,1.743a5.257,5.257,0,0,0,2.85.563,6.871,6.871,0,0,0,5.669-3.834A.764.764,0,0,0,302.928,390.078Z" transform="translate(-256.459 -289.838)" fill="#291f27"/>
      <path id="Path_94" data-name="Path 94" d="M328.786,383.506c-1.07-.774-1.848-1.016-2.817.016-.844.9-1.263,2.015-2.413,2.627a6.188,6.188,0,0,1-4.281.438c-.876-.358-1.282-1.175-2.281-.577-.873.523-1.43,1.483-2.41,2-1.648.866-3.766,1.223-4.972-.462-.321-.448-1.07-.069-.769.428,1.01,1.667,2.061,2.414,4.066,2.24a8.775,8.775,0,0,0,3.213-.942,6.255,6.255,0,0,0,1.694-1.585,2.806,2.806,0,0,1,.231.243,4.317,4.317,0,0,0,1.268.54,7.922,7.922,0,0,0,3.106.214,5.722,5.722,0,0,0,2.83-1.145c.438-.326,2.36-2.891,2.73-2.714A.774.774,0,0,0,328.786,383.506Z" transform="translate(-248.195 -292.131)" fill="#291f27"/>
      <path id="Path_95" data-name="Path 95" d="M352.958,373.245c-.893.961-1.689,3.041-3.344,2.619-.621-.159-.909-.833-1.669-.733-.854.114-1.578,1.173-2.125,1.741-1.091,1.13-2.076,2.573-3.679,3-1.178.316-2.264-.491-3.389-.176-.915.256-.988.891-1.492,1.614-1.07,1.533-4.935,4.619-6.332,1.954-.3-.565-1.285-.211-1.071.419.8,2.351,3.156,2.748,5.292,1.828a7.753,7.753,0,0,0,3.064-2.421c.374-.491.611-1.562,1.239-1.676.46-.083,1.676.651,2.267.675a6.251,6.251,0,0,0,4.317-2,10.118,10.118,0,0,0,1.714-2.1c.052-.085.378-.754.523-.988a.686.686,0,0,0,.228.254c1.252.673,1.573,1.325,3.134.691a5.182,5.182,0,0,0,3.241-3.533C355.129,373.356,353.8,372.34,352.958,373.245Z" transform="translate(-241.445 -295.317)" fill="#291f27"/>
    </g>
    <g id="Group_419" data-name="Group 419" transform="translate(1174.545 1419.941)">
      <path id="Path_178" data-name="Path 178" d="M446.6,347.464c-3.951-4.239-10.316-6.122-15.706-7.745-2.821-.848-5.738-1.672-8.637-2.238-1.537-.3-3.077-.572-4.606-.911a15.491,15.491,0,0,0-3.313-.672,5.428,5.428,0,0,0-.886-1.461c-2.555-3.062-6.917-3.452-10.534-4.305-4.423-1.043-8.885-1.84-13.315-2.838-8.724-1.966-17-5.92-25.955-6.853-3.608-.376-7.766.008-8.909,4.089-1.067,3.809,1.236,8.608,2.8,11.962,2.306,4.93,4.939,9.8,7.558,14.574.913,1.663,1.847,3.282,2.841,4.852,2.43,4.753,5.618,10.978,10.826,12.083a18.516,18.516,0,0,1,1.078,1.789c.572,1.152,1.031,2.36,1.5,3.554,1.276,3.228,2.632,6.4,4.128,9.531,2.673,5.6,5.475,11.032,8.583,16.406,2.691,4.656,5.568,9.178,10.847,11.1,5.314,1.936,9.541-.854,13.315-4.438,4.129-3.922,7.084-8.527,10.258-13.206,3.447-5.08,7.286-9.8,10.4-15.111a114.361,114.361,0,0,0,8.209-16.147C448.846,356.966,450.315,351.45,446.6,347.464Zm-77.985,4a99.63,99.63,0,0,1-5.973-11.762c-1.71-4.119-3.387-8.3-5.313-12.321a.55.55,0,0,0-.071-.1,4.192,4.192,0,0,1,.358-2.2c.971-1.923,3.511-1.731,5.331-1.562,7.766.718,14.916,3.993,22.4,5.924,3.661.946,7.36,1.627,11.065,2.364a89.672,89.672,0,0,1,11.483,2.678c1.6.549,4.4,1.972,3.758,4.033-.623,2-3.284,2.513-5.054,2.611-2.855.159-6.464-1.682-9.146-.238-2.183,1.177-2,3.663-.993,5.577,1.671,3.167,4.852,5.722,5.61,9.322.609,2.888-2.533,2.574-4.215,1.516a27.764,27.764,0,0,1-5.01-4.232c-1.721-1.763-3.958-4.8-6.386-5.6-2.351-.773-4,1.335-4.411,3.426-.668,3.436.642,6.575.883,9.948.152,2.122-.394,4.271-3.02,3.951a7.823,7.823,0,0,1-4.354-2.579C372.669,359.242,370.679,355.032,368.614,351.462Zm77.582,1.7c.338,2.846-.695,5.525-1.632,8.153-1.818,5.1-4.687,9.862-7.443,14.5a112.926,112.926,0,0,1-8.9,12.612c-3.125,3.929-5.678,8.313-9.068,12.031-3.179,3.485-7.822,8.515-12.993,6.7s-7.76-7.047-10.369-11.481c-3-5.1-5.832-10.2-8.483-15.5-1.422-2.842-2.818-5.7-4.235-8.542a21.365,21.365,0,0,0-1.6-2.843,8.1,8.1,0,0,0-.511-.643c.045,0,.088,0,.133-.007a5.932,5.932,0,0,0,5.376-6.161,25.772,25.772,0,0,0-1.01-5.652,28.527,28.527,0,0,1-.7-3.218,12.911,12.911,0,0,1-.145-1.294,3.965,3.965,0,0,1,.094-1.457l1.943-.717c1.507.259,3.436,3.22,4.424,4.333a37.368,37.368,0,0,0,4.829,4.671c2.208,1.746,5.8,3.142,8.077.6,1.966-2.192.1-6.029-1.272-8.019-1.148-1.668-2.653-3.056-3.863-4.676-.75-1-2.089-2.738-.985-3.9.889-.939,2.46-.569,3.608-.339,3.521.708,7.667,1.929,10.858-.507a5.908,5.908,0,0,0,2.155-2.966,18.829,18.829,0,0,1,3.2.893c.887.224,1.785.395,2.686.561,2.62.485,5.087,1.322,7.666,1.924,4.592,1.072,9.836,2.6,13.836,5.164C444.068,348.8,445.871,350.424,446.2,353.162Z" transform="translate(-354.465 -320.328)" fill="#291f27"/>
      <path id="Path_179" data-name="Path 179" d="M406.214,385.528c-1.869.8-3.489,2.116-5.54,2.423-1.725.26-2.93-.482-4.186-1.554-2.624-2.244-4.309-5.549-6.234-8.374-3.947-5.793-7.324-11.93-11.146-17.791-.021-.033-.078,0-.059.037,2.01,3.831,3.831,7.79,5.766,11.665a104.094,104.094,0,0,0,6.316,10.635c1.615,2.456,4.079,5.925,7.118,6.771,3.185.887,6.009-1.438,8.366-3.158C406.973,385.92,406.607,385.36,406.214,385.528Z" transform="translate(-346.585 -307.539)" fill="#291f27"/>
    </g>
    <g id="Group_420" data-name="Group 420" transform="translate(1245.143 1298.628)">
      <path id="Path_180" data-name="Path 180" d="M428.632,261.718a.464.464,0,0,0-.79,0c-1.619,2.159-4.177,3.98-6.925,3.933-.444-.007-.565.714-.107.795A7.045,7.045,0,0,0,426.3,265.3C427.321,264.618,429.423,263.18,428.632,261.718Z" transform="translate(-403.886 -217.876)" fill="#291f27"/>
      <path id="Path_181" data-name="Path 181" d="M456.748,296.357c-1.115-3.432-2.225-6.913-3.474-10.3a25.865,25.865,0,0,0-2.108-3.79,23.743,23.743,0,0,1-2.023-5.054c-1.051-3.457-1.859-6.936-2.726-10.447a106.015,106.015,0,0,0-2.821-10.724.276.276,0,0,0-.2-.186,6.418,6.418,0,0,0,3.025-2.427.691.691,0,0,0-.938-.938c-1.161.647-2.2,1.483-3.4,2.077-1.717.857-2.9.479-4.65.325-.576-.05-.688.868-.136,1,1.9.46,3.227,1.142,5.185.357.193-.078.395-.164.6-.254a.291.291,0,0,0-.028.194c.357,1.92.432,3.813.967,5.7.487,1.714.857,3.453,1.259,5.191.833,3.611,1.747,7.213,2.561,10.82a22.838,22.838,0,0,0,1.531,4.638,42.486,42.486,0,0,1,2.29,4.672,42.776,42.776,0,0,0,4.347,9.459C456.245,297.043,456.895,296.809,456.748,296.357Z" transform="translate(-398.623 -220.792)" fill="#291f27"/>
      <path id="Path_182" data-name="Path 182" d="M454.828,272.214c-.833-3.519-1.566-7.236-2.1-10.81-.493-3.315-.874-6.633-1.417-9.943-.264-1.608-.442-3.222-.692-4.828a11.5,11.5,0,0,0-.277-1.907,9.947,9.947,0,0,0,4.033-2.7.643.643,0,0,0-.448-1.08c-.918-.114-2.2.862-3.014,1.28-1.569.8-4.379,2.467-5.881.569-.184-.231-.6.02-.5.292.6,1.622,2.724,2.162,4.264,2a6.328,6.328,0,0,0,.963-.184c0,1-.223,2.2-.186,3.058a42.6,42.6,0,0,0,.5,4.247c.473,3.272.6,6.666,1.3,9.9s1.63,6.409,2.369,9.624c.743,3.241,1.445,6.512,2.215,9.746a.3.3,0,0,0,.586-.079C456.521,278.3,455.535,275.2,454.828,272.214Z" transform="translate(-396.192 -224.466)" fill="#291f27"/>
      <path id="Path_183" data-name="Path 183" d="M465.42,251.663a4.382,4.382,0,0,0-2.789.663,8,8,0,0,1-1.6.742c-1.084.284-1.66-.374-1.814-1.375-.04-.252-.469-.2-.449.061a2.492,2.492,0,0,0,1.9,2.533c1.6.279,3.485-.835,4.907-1.435A.656.656,0,0,0,465.42,251.663Z" transform="translate(-391.623 -221.071)" fill="#291f27"/>
      <path id="Path_184" data-name="Path 184" d="M470.808,238.13a8.074,8.074,0,0,1-3.1.92c-1.805.3-2.908-.411-4.122-1.632-.367-.37-1.082.135-.746.574,1.059,1.389,2.124,2.734,3.941,2.784a.222.222,0,0,0-.164.135c-1,2.425-1.816,5.105-1.07,7.708a.583.583,0,0,0,1.14-.155c-.07-2.575-.437-4.919.337-7.441a.184.184,0,0,0-.135-.248c.092,0,.186,0,.283-.007,1.355-.1,3.732-.486,4.45-1.821C471.9,238.447,471.333,237.789,470.808,238.13Z" transform="translate(-390.345 -225.636)" fill="#291f27"/>
      <path id="Path_185" data-name="Path 185" d="M512.206,332.2c-1.521-11.514-1.183-23.028-1.223-34.6-.013-3.976.065-9.751-2.516-13.08a3.649,3.649,0,0,0-4.106-1.428c.239-2.216.589-4.421.821-6.635.374-3.563.52-7.152.906-10.719.379-3.518,1.4-7,1.251-10.555-.1-2.394-.323-4.943-2.687-6.154a17.062,17.062,0,0,0-8.3-1.362,4.827,4.827,0,0,0-2.25.611c.052-.953.1-1.907.124-2.863.046-1.914.182-3.96-.873-5.688a9.872,9.872,0,0,0-4.005-3.185c-1.807-.816-4.056-.766-6.117-.741.176-1.906.153-5.914-1.614-6.855-1.146-.61-2.974-.46-4.217-.465a59.282,59.282,0,0,0-6.129.221c-1.936.193-3.857.574-5.776.891a2.9,2.9,0,0,0-2.509,1.68c-.644,1.433-.292,3.286-.121,4.782.153,1.35.135,3.132.779,4.392a16.871,16.871,0,0,0-1.8.141c-.35.044-.7.091-1.053.14a8,8,0,0,0-.283-1.608,19.082,19.082,0,0,0-.655-3.23c-.691-1.636-2.268-1.173-3.694-.948-3.8.6-8.344,2.056-11.426,4.578a8.4,8.4,0,0,0-1.395-2.448c-1.123-1.276-2.121-1.185-3.671-.874a25.091,25.091,0,0,0-5.871,2.072,23.377,23.377,0,0,0-5.1,2.657,3.4,3.4,0,0,0-1.144,4.132,24.626,24.626,0,0,0,1.113,2.963,13.416,13.416,0,0,0,1.214,1.768,34.115,34.115,0,0,0-4.585,2.26c-.218-1.557-1.425-3.3-2.915-3.379-.952-.054-2.571.938-3.455,1.311a46.774,46.774,0,0,0-5.047,2.7c-2.048,1.178-5.8,3.011-5.3,5.955.251,1.466,1.52,2.817,2.3,4.034a11.065,11.065,0,0,0,1.892,2.367c-3.251,1.718-6.3,4.532-4.118,8.11,1.59,2.613,3.646,4.931,5.223,7.576a94.725,94.725,0,0,0,5.216,7.909c1.748,2.363,3.72,4.485,5.653,6.69.753.858,1.486,1.816,2.277,2.711-1.906-.8-4.655-1.644-6.591-1.406-5.014.614-1.735,7.741-.868,10.315,1.764,5.236,3.259,10.394,5.436,15.492,2.246,5.263,5.087,10.261,7.526,15.438,2.505,5.318,4.672,10.785,7.188,16.1a36.924,36.924,0,0,0,3.583,6.74c1.367,1.78,3.422,2.444,5.507,3.043a66.951,66.951,0,0,0,8.207,1.935,28.808,28.808,0,0,0,7.86.572c2.658-.351,5.145-1.681,7.634-2.613,2.908-1.088,5.776-2.244,8.649-3.42,5.269-2.155,10.537-4.291,15.73-6.625,2.384-1.071,4.788-2.109,7.138-3.253,2.367-1.15,5.123-2.364,6.966-4.306C514.173,342.691,512.743,336.266,512.206,332.2Zm-18.5-58.572c.026-3.752-.177-7.554.1-11.3.12-1.638.085-3.272.2-4.91.133-1.886-.122-4.52.646-6.258.9-2.044,3.962-1.372,5.737-1.08,2.215.366,4.269.56,4.788,3.084.783,3.814-.461,7.612-.973,11.362-.5,3.692-.794,7.4-1.153,11.1-.279,2.885-.836,5.729-1.088,8.612a19.244,19.244,0,0,0-2.8,2.359c.473-4.718.108-9.561.486-14.266.227-2.829-.227-5.7-.085-8.52.124-2.442.621-4.637.317-7.07a6.077,6.077,0,0,0,1.391-.333,4.457,4.457,0,0,0,2.046-1.029.479.479,0,0,0-.462-.794c-.841.194-1.734.178-2.594.383-.953.227-3.175.567-3.356-1-.041-.354-.625-.522-.691-.094a2.555,2.555,0,0,0,2.057,2.72,3.788,3.788,0,0,0,1.375.16c-.309,2.562-1.13,5.045-1.027,7.662a38.21,38.21,0,0,1-.284,8.819c-.5,2.7-.641,5.42-.984,8.135a24.033,24.033,0,0,0,.018,7.078c-1.255,1.272-2.542,2.472-3.883,3.591C494.3,285.97,493.661,279.7,493.7,273.626Zm-11.455-35.775c3.75-.058,10.183-.052,10.195,5.208a45.537,45.537,0,0,1-.534,5.169,18.736,18.736,0,0,0,.129,5.014c-.907,6.421-.532,13.14-.511,19.584.012,3.651.2,7.295.244,10.95.026,2.179-.011,4.346-.032,6.524a9.757,9.757,0,0,0,.306,2.882c-.585.45-1.178.889-1.784,1.307-.4-6.51-1.376-13.014-2.114-19.483a104.864,104.864,0,0,0-1.7-11.509c-.4-1.734-1.006-3.4-1.512-5.108a10.814,10.814,0,0,0-1.669-3.91c-1.268-1.479-3.408-1.343-5.36-.992a14.618,14.618,0,0,0,.03-3.093c-.013-1.672.028-3.287-.083-4.95a32.641,32.641,0,0,1,.347-5.072c.1-1.1.056-2.018,1.387-2.472A10.121,10.121,0,0,1,482.249,237.852Zm-3,43.844c-.025,3.1.94,5.885,1.676,8.852.654,2.642,1.1,5.443,1.623,8.126-1.692.746-3.379,1.486-5.079,2.182-.07-1.228.144-2.635.112-3.748-.057-1.981-.275-3.931-.5-5.9-.486-4.157-.606-8.345-1.186-12.489-.568-4.058-.984-8.148-1.6-12.2-.276-1.807-.6-3.634-.963-5.426-.411-2.05-1.223-3.774,1.2-4.765a15.841,15.841,0,0,1,5.869-1.051c2.722.263,2.938,3.729,3.633,5.871a54.935,54.935,0,0,1,2.156,12.164c.67,7.512,1.657,15.081,1.82,22.631a38.5,38.5,0,0,1-4.219,2.183l-.8.35c-.018-2.686.011-5.524-.265-8.174-.318-3.056-1.612-5.877-1.735-8.989-.234-5.965-1.665-11.773-1.888-17.7a.229.229,0,0,0-.458,0C478.248,269.63,479.3,275.654,479.249,281.7ZM465.01,234c-.077-1.924.9-2.365,2.526-2.808a30.888,30.888,0,0,1,4.367-.865,32.835,32.835,0,0,1,4.615-.152c.9.014,2.786-.265,3.572.238,1.27.814.655,3.544.873,5.34-1.429-.088-3-.2-3.983.955-.906,1.059-.946,2.632-1.027,3.939a54.92,54.92,0,0,0-.161,6.9c.118,2.02-.136,4.338.754,6.208-.253.053-.5.1-.733.148a9.513,9.513,0,0,0-4.136,1.359l-.154-.935c-.434-2.642-.5-5.479-1.34-8.024a10.329,10.329,0,0,0-2.884-4.827,4.734,4.734,0,0,0-2.525-.985C465.555,238.513,465.094,236.064,465.01,234Zm-3.785,8.613c2.5-.481,5.112-.876,6.553,1.73,1.062,1.92,1,4.165,1.177,6.27a72.841,72.841,0,0,0,2.028,11.593.711.711,0,0,0,.161.3c.3,1.339.648,2.664.868,3.9.705,3.97.976,8.056,1.552,12.05.672,4.664.917,9.375,1.509,14.052.263,2.079.444,4.174.733,6.246a9.907,9.907,0,0,0,.535,2.546c-1.573.623-3.156,1.206-4.765,1.719-.077-.265-.168-.54-.265-.829-.615-1.82-1.2-3.628-1.879-5.42-1.471-3.865-2.7-7.939-3.813-11.922-2.242-8.029-4.074-16.144-6.764-24.049-.638-1.873-1.56-3.814-3.138-4.779a28.506,28.506,0,0,0-.848-6.75c-.181-.956-.393-1.921-.526-2.885-.2-1.491-.091-1.907,1.274-2.36A44.284,44.284,0,0,1,461.226,242.618Zm7.99,61.109a43.54,43.54,0,0,1-4.67,1q-1.814.281-3.63.508c-.473-1.68-.559-3.4-1.1-5.087s-1.282-3.332-1.841-5.029c-1.074-3.263-2.289-6.433-3.6-9.606-2.668-6.441-5.541-12.763-8.353-19.137-.774-1.752-1.916-3.453-.638-5.28.934-1.332,3.011-1.972,4.419-2.644,2.137-1.023,4.7-2.229,6.475.061,1.088,1.405,1.384,3.465,1.888,5.137,2.051,6.793,3.349,13.739,5.153,20.589.985,3.74,2.142,7.416,3.189,11.139.471,1.677,1.088,3.291,1.552,4.965.235.849.511,1.7.791,2.536C468.926,303.122,469.081,303.422,469.215,303.727Zm-15.072-66.022a23.712,23.712,0,0,1,2.782-.549c1.08-.143.652-.441,1.046.259.588,1.046.444,2.426.73,3.657a31.054,31.054,0,0,0-4.11,1.045c-1.465.49-2.429,1.163-2.541,2.768-.162,2.331.618,4.971,1.194,7.2.305,1.185.506,2.283.824,3.37a4.8,4.8,0,0,0-1-.033,10.186,10.186,0,0,0-1.622.267.8.8,0,0,0-.193-.255l-.147-.12a1.143,1.143,0,0,0-.255-.157c.395-.078-.374-1.681-.493-1.962-.53-1.252-1.027-2.513-1.532-3.776-.915-2.294-2.05-4.5-2.962-6.8-.246-.618-.465-1.289-.7-1.964C448.18,239.768,451.083,238.488,454.143,237.705Zm-22.594,4.617a43.476,43.476,0,0,1,4.143-2.135c1.517-.786,3.445-2.009,5.174-2.133,2.147-.155,2.761,3.007,3.329,4.618.6,1.709,1.221,3.415,1.888,5.1.677,1.71,1.185,3.457,1.811,5.185.413,1.136.64,2.423,1.151,3.529a20.922,20.922,0,0,0-4.956,2.9,4.547,4.547,0,0,0-1.376,1.748,48.93,48.93,0,0,1-3.812-7.372c-.6-1.61-1.391-3.7-3.041-4.5-1.482-.722-3.432-.391-5.021.158a8.794,8.794,0,0,0,.069-2.343C430.684,245.244,429.646,243.582,431.549,242.322Zm-7.09,13.215a8.512,8.512,0,0,1,1.9-1.483,26.879,26.879,0,0,1,5.005-2.563,7.475,7.475,0,0,1,2.925-.6c1.755.176,2.39,1.976,2.854,3.357a32.186,32.186,0,0,0,1.69,4.435c1.725,3.416,3.828,6.594,5.554,10.01a.841.841,0,0,0,.111.165c1.519,3.4,3.107,6.763,4.5,10.212,1.832,4.518,4,8.952,5.7,13.515a130.362,130.362,0,0,0,5.255,12.763c-.79.088-1.581.169-2.373.232-.437-.876-1.149-1.614-1.644-2.475-.844-1.466-1.715-2.933-2.623-4.362a107.087,107.087,0,0,1-5.735-10.046,75.251,75.251,0,0,0-6.108-10.777c-2.076-2.9-4.59-5.366-6.884-8.065-1.395-1.641-2.66-4.391-5.1-3.217-.337.161-.663.33-.984.5-.942-2.867-3.234-5.237-4.379-8.029C423.523,257.645,423.269,256.9,424.459,255.537Zm9.323,27.765a44.354,44.354,0,0,0,4.139,7.768,67.79,67.79,0,0,1,4.268,7.78,26.082,26.082,0,0,0,3.509,5.9c-.285-.062-.57-.123-.861-.189-.687-.155-1.376-.324-2.064-.5-1.59-2.975-3.786-5.453-5.8-8.2-2.336-3.192-4.594-6.439-6.93-9.63-2.168-2.963-4.635-5.434-6.073-8.864-.477-1.138-1.179-2.513-.506-3.729a11.864,11.864,0,0,1,1.978-2.17,13.672,13.672,0,0,1,4.416-3.163c1.9-.773,2.757,1.523,3.9,2.855,1.321,1.542,2.7,2.984,3.949,4.593a62.478,62.478,0,0,1,6.7,10.89c1.916,3.888,3.568,7.924,5.722,11.693.961,1.682,1.874,3.4,2.86,5.059.4.68.754,1.393,1.183,2.056a3.4,3.4,0,0,0,.219.293h-.011a31.5,31.5,0,0,1-6.249-.518,41.153,41.153,0,0,1-4.6-7.048,76.781,76.781,0,0,0-3.962-7.216,76.143,76.143,0,0,1-4.173-7.111c-.6-1.344-1.136-2.72-1.833-4.021a42.4,42.4,0,0,1-2.316-3.966c-.086-.217-.477-.221-.448.061C431.054,278.517,432.874,280.882,433.782,283.3Zm-21.955-24.123c-1.075-2.443,2.31-4.078,4.009-5.358,1.83-1.38,3.914-2.269,5.754-3.593.89-.642.46-.633.967.412.42.864.619,1.787,1.026,2.644a5.2,5.2,0,0,0-2.174,4.173c.123,2.171,1.7,4.515,2.9,6.231a32.507,32.507,0,0,0,2.946,4.156,25.445,25.445,0,0,0-3.051,2.178c-.9-1.627-2.79-2.793-4.056-4.1-1.321-1.362-2.2-2.915-4.305-2.2-.475.161-.989.355-1.52.582-.329-.759-.6-1.554-.944-2.3C412.926,261.04,412.254,260.148,411.828,259.179Zm11.438,30.914a117.423,117.423,0,0,1-7.545-11.379c-1.105-1.845-2.32-3.611-3.6-5.339-.909-1.229-2.052-2.44-1.166-3.995a7.9,7.9,0,0,1,2.815-2.241c.812-.5,2.594-1.99,3.641-1.546.493.209,1.091,1.22,1.439,1.626.947,1.1,2.962,2.454,3.428,3.83a1.112,1.112,0,0,0,.273.444c-.066.063-.132.123-.2.188-4.922,4.773,2.22,11.792,5.129,15.611,2.479,3.255,4.821,6.608,7.342,9.832a59.726,59.726,0,0,0,3.946,4.634,19.257,19.257,0,0,1,1.307,1.578,66.3,66.3,0,0,1-6.685-2.327l-.268-.122c-1.023-.46-2.032-.949-3.041-1.434-1.089-1.369-1.96-3.006-2.969-4.4C425.893,293.351,424.541,291.752,423.265,290.093Zm24.885,70.484c-2.606-.848-3.56-2.72-4.856-4.981-1.265-2.208-2.381-4.5-3.441-6.812-2.187-4.769-4.332-9.557-6.533-14.319-2.518-5.449-5-10.855-7.114-16.474-1.02-2.706-1.714-5.445-2.495-8.225-.807-2.87-2.028-5.663-2.639-8.58-.305-1.463-.132-1.944,1.458-1.764a16.294,16.294,0,0,1,3.616.858c2.269.835,4.5,2.089,6.714,3.093.982.446,1.994.917,3.02,1.351a56.142,56.142,0,0,0,2.72,6.867c1.314,2.921,2.244,6.015,3.292,9.037,1.981,5.71,4.058,11.58,7.023,16.848,1.293,2.3,2.1,4.878,3.317,7.217,1.261,2.422,2.608,4.8,3.864,7.241,1.41,2.742,2.731,5.545,4.1,8.31.384.778.73,1.982,1.247,3.011A53.554,53.554,0,0,1,448.15,360.577Zm15.975,2.7a.751.751,0,0,0-.085-.048c-.651-.283-1.314-2.411-1.63-2.953-.734-1.259-1.428-2.538-2.195-3.778-1.441-2.326-2.734-4.758-3.98-7.195-2.319-4.532-3.836-9.405-6.158-13.92-2.8-5.45-4.733-11.487-7.048-17.165a138.264,138.264,0,0,0-6.205-13.106,23.418,23.418,0,0,0,2.388.808c.432.117.87.221,1.31.317a44,44,0,0,0,12.188,2.677,61.168,61.168,0,0,0,15.06-1.323,51.894,51.894,0,0,1,2.485,4.969,23.966,23.966,0,0,1,1.232,7.93c-.029,5.749-2.983,10.751-4.857,16.057-1.577,4.466-3.852,9.417-3.884,14.248a27.006,27.006,0,0,0,1.231,7.327c.427,1.507.819,3.633,1.92,4.848A9.936,9.936,0,0,1,464.126,363.275Zm7.2-2.366c-1.416.535-2.9,1.249-4.413,1.758a.445.445,0,0,0-.015-.116c-1.459-4.765-3.179-9.61-2.1-14.64a90.057,90.057,0,0,1,5.432-16.188,32.7,32.7,0,0,0,2.451-6.575,27.37,27.37,0,0,0,.343-7.436,20.349,20.349,0,0,0-1.647-6.31,12.211,12.211,0,0,0-3-3.941q2.615-.576,5.183-1.355c.582,1.31,1.764,2.471,2.407,3.694a19.982,19.982,0,0,1,2.425,8.126c.515,6.287-2.116,11.733-3.309,17.762a47.45,47.45,0,0,1-2.55,7.546,19.929,19.929,0,0,0-1.072,6.908,26.987,26.987,0,0,0,.91,6.755A11.449,11.449,0,0,0,473.4,359.4a3.939,3.939,0,0,0,.386.543C472.966,360.272,472.151,360.6,471.327,360.908Zm7.041-2.849c-.99.425-1.985.837-2.981,1.245a10.188,10.188,0,0,1-1.478-3.439,24.722,24.722,0,0,1-.749-7.949,27.958,27.958,0,0,1,2.216-7.854c.986-2.592,1.428-5.356,2.242-8.005,1.652-5.375,3.214-10.379,2.385-16.065a17.283,17.283,0,0,0-5.389-10.216,75.308,75.308,0,0,0,8.4-3.249c1.737-.792,3.414-1.552,5.039-2.373a29.546,29.546,0,0,1,2.852,6.367,25.938,25.938,0,0,1,1.041,8.074,45.252,45.252,0,0,1-3.424,16.167c-2.06,4.918-4.977,9.591-6.279,14.809-.708,2.837-1.173,7.636.324,10.7Q480.468,357.161,478.368,358.06Zm15-6.485c-3.225,1.487-6.491,2.875-9.759,4.258a18.855,18.855,0,0,1-.28-6.219A28.734,28.734,0,0,1,486,340.807c2.112-4.881,4.392-9.573,6.064-14.633,2.921-8.84,2.88-19.039-2.3-26.918.557-.308,1.107-.634,1.653-.969,1.292,1.148,2.538,2.485,3.678,3.666a13.975,13.975,0,0,1,4.008,7.892c.611,5.189-.733,10.171-2.08,15.135-2.112,7.787-3.583,17.338.711,24.621C496.273,350.26,494.811,350.91,493.371,351.574Zm13.685-6.66a77.861,77.861,0,0,1-7.8,3.995c-5.182-8.955-1.912-19.878.547-29.324,1.1-4.207,1.487-9.58-.4-13.639a19.06,19.06,0,0,0-7.55-7.935,31.59,31.59,0,0,0,3.055-2.187,59.781,59.781,0,0,0,5.123-4.638c.593-.61,1.834-2.352,3.167-3.647a1.088,1.088,0,0,0,.857-.75c.89-.683,1.768-1.026,2.472-.569,1.723,1.115,1.984,4.922,2.164,6.719.25,2.484.185,4.965.224,7.456.082,5.1-.21,10.108-.3,15.2a147.656,147.656,0,0,0,.621,15.512C509.612,335.339,511.364,342.324,507.057,344.914Z" transform="translate(-407.924 -228.465)" fill="#291f27"/>
      <path id="Path_186" data-name="Path 186" d="M461.211,232.944a17.066,17.066,0,0,1-4.589-.115,19.081,19.081,0,0,0-3.266-.889c-.46-.012-.494.617-.1.761a18.56,18.56,0,0,1,1.822,1.154,10.409,10.409,0,0,0,2.209.811,5.167,5.167,0,0,0,4.246-.543C462.016,233.8,461.88,232.9,461.211,232.944Z" transform="translate(-393.479 -227.351)" fill="#291f27"/>
      <path id="Path_187" data-name="Path 187" d="M457.541,241.242c.055-2.176.137-4.334,0-6.509a.281.281,0,0,0-.563,0c-.391,3.967-1.616,8.338-.915,12.321a.69.69,0,0,0,1.322,0A39.632,39.632,0,0,0,457.541,241.242Z" transform="translate(-392.56 -226.543)" fill="#291f27"/>
      <path id="Path_188" data-name="Path 188" d="M433.783,239.021c-2.394.829-4.353,2.071-7,2.063a.053.053,0,0,0,0,.106c2.2.007,5.958.7,7.514-1.286C434.585,239.533,434.338,238.829,433.783,239.021Z" transform="translate(-401.895 -225.092)" fill="#291f27"/>
      <path id="Path_189" data-name="Path 189" d="M435.719,251.209c-1.1-3.607-2.38-7.1-3.8-10.6a.123.123,0,0,0-.238.066,73.134,73.134,0,0,0,2.986,10.824C434.928,252.126,435.929,251.9,435.719,251.209Z" transform="translate(-400.309 -224.599)" fill="#291f27"/>
      <path id="Path_190" data-name="Path 190" d="M419.875,256.716c-.213-.374-.354-.786-.555-1.165a10.725,10.725,0,0,0-1.093-1.471,14.852,14.852,0,0,0-1.3-1.833,6.87,6.87,0,0,0,2.233-1.412c.52-.5-.173-1.455-.788-1.021a27.06,27.06,0,0,1-2.669,1.416,11.338,11.338,0,0,1-3.551,1.026.459.459,0,0,0,.121.9,17.286,17.286,0,0,0,4.2-.737,8,8,0,0,1,.3,1.181,6.145,6.145,0,0,0,.634,1.453,5.141,5.141,0,0,0,1.741,2.386A.532.532,0,0,0,419.875,256.716Z" transform="translate(-406.672 -221.656)" fill="#291f27"/>
      <path id="Path_191" data-name="Path 191" d="M419.178,267.774c-.581-2.263-2.406-3.9-2.532-6.3a.254.254,0,0,0-.042-.127,12.363,12.363,0,0,0,1.15-.638c.511-.321.182-1.281-.433-1.027-.846.349-1.586.831-2.394,1.256a8.536,8.536,0,0,1-3.348.881c-.464.044-.482.75,0,.738a11.863,11.863,0,0,0,4.572-1,7.085,7.085,0,0,0,.724,3.389,19.3,19.3,0,0,1,.8,1.945,2.408,2.408,0,0,0,.709,1.342A.478.478,0,0,0,419.178,267.774Z" transform="translate(-406.866 -218.471)" fill="#291f27"/>
      <path id="Path_192" data-name="Path 192" d="M430.775,247.658c-1.236.672-2.364,1.516-3.63,2.135-1.4.681-3.457,1.731-4.968.949a.369.369,0,0,0-.372.637,4.894,4.894,0,0,0,2.12,1.15,9.277,9.277,0,0,0,2.757-.362c2.19-.45,3.515-1.825,4.861-3.515A.636.636,0,0,0,430.775,247.658Z" transform="translate(-403.53 -222.341)" fill="#291f27"/>
      <path id="Path_193" data-name="Path 193" d="M435.048,266.272c-1.678-5.48-4.88-10.484-7.176-15.722-.123-.28-.556-.078-.482.2a59.758,59.758,0,0,0,2.859,7.625,53.305,53.305,0,0,0,3.963,8.246A.46.46,0,0,0,435.048,266.272Z" transform="translate(-401.686 -221.428)" fill="#291f27"/>
      <path id="Path_194" data-name="Path 194" d="M442.583,238.776a32.809,32.809,0,0,0-4.642.108c-.469.04-.477.773,0,.738,1.545-.111,3.094-.166,4.642-.248A.3.3,0,0,0,442.583,238.776Z" transform="translate(-398.415 -225.173)" fill="#291f27"/>
    </g>
    <g id="Group_426" data-name="Group 426" transform="translate(930.837 1378.956)">
      <path id="Path_229" data-name="Path 229" d="M276.756,358.541c-1.023-2.175.572-4.326.949-6.607a10.886,10.886,0,0,0-.634-5.486c-1.229-3.4-4.133-6.429-6.74-8.859-1.355-1.264-3.381-3.267-5.321-3.233a4.816,4.816,0,0,0-.033-.493c-.357-3.118-3.1-5.38-5.436-7.167-3.081-2.361-6.476-3.794-9.881-5.569-3.69-1.923-7.332-3.917-11.065-5.762-3.871-1.912-7.79-3.428-11.162-6.212a25.763,25.763,0,0,1-6.808-8.559c-1.457-2.945-2.19-6.938-4.82-9.091-1.862-1.525-5.078-3.032-7.39-1.7-3.11,1.795-5.094,4.582-7.6,7.053a54.612,54.612,0,0,0-6.7,7.834,31.329,31.329,0,0,0-3.666,7.659,17.751,17.751,0,0,0-1.043,3.336l-.016.091a27.551,27.551,0,0,0-.771,3.972c-.223,1.936.524,3.765.018,5.664a.753.753,0,0,0,.635.96,8.628,8.628,0,0,1-.185.955c-.969,3.7-3.506,7.214-5.614,10.359-2.024,3.02-4.732,5.886-5.63,9.511a7.912,7.912,0,0,0,.743,6.24,26.9,26.9,0,0,0-3.386,3.515c-2.245,2.444-4.52,5.243-5.111,8.594s.353,5.31,2.617,7.678c.395.411,1.7,1.472,1.692,2.027-.007.424-.7,1.355-.854,1.8a8.908,8.908,0,0,0-.342,4.954,11.073,11.073,0,0,0,5.333,7.193,14.069,14.069,0,0,0,4.229,1.586,53.921,53.921,0,0,0,2.488,6.912c1.441,3.358,2.463,6.849,3.818,10.239,2.322,5.8,4.564,11.961,7.617,17.412,3.144,5.618,6.025,11.48,9.8,16.709a19.828,19.828,0,0,0,6,5.929,21.161,21.161,0,0,0,8.082,2.277c12.979,1.622,25.884.528,38.033-4.6,4.824-2.036,9.883-5.352,12.164-10.241,2.648-5.676,2.157-12.806,2.026-18.911-.079-3.724.209-7.426.255-11.147.049-3.955.131-7.941.341-11.891.209-3.908.31-7.776.306-11.689,0-1.9-.078-3.79-.075-5.684a16.137,16.137,0,0,0,.017-4,11.252,11.252,0,0,0,3.927-4.35C279.083,364.523,278.166,361.539,276.756,358.541Zm-94.713-12.115c1.544-2.992,3.8-5.59,5.553-8.464a34.137,34.137,0,0,0,4.276-8.716c.942-3.494-.108-6.475-.359-9.956-.556-7.715,5.747-14.772,10.4-20.336.168-.165.335-.334.5-.5,1.159-1.125,2.158-2.362,3.25-3.547,1.194-1.3,3.121-3.115,4.9-3.024,4.4.226,5.012,4.705,6.278,8.033a28.374,28.374,0,0,0,4.318,7.671c4.7,5.87,11.888,8.044,18.377,11.214,3.217,1.571,6.4,3.26,9.632,4.783a42.019,42.019,0,0,1,9.35,5.475,13.734,13.734,0,0,1,3.329,3.492c1.478,2.656-.2,4.317-2.982,3.618-3.424-.86-5.3-4.008-8.009-5.968-1.2-.866-2.994-1.578-3.8.148-1.179,2.54.722,6.483,1.542,8.853.588,1.7,1.186,3.393,1.729,5.105.232.733,1.319,3.027.983,3.892-1.018,2.611-6.934-4.355-7.665-5.318-4.111-5.421-6.746-11.8-9.664-17.9-.993-2.075-2.163-5.356-4.4-6.482-1.628-.819-3.468.248-4.343,1.681-1.461,2.392-.214,5.4.361,7.867.357,1.529.629,3.077.844,4.633.166,1.208.59,3.2-.048,4.32-2.061,3.621-5.982-3.847-7.066-5.116-1.607-1.879-3.719-.948-4.765,1.012-1.359,2.542-1.009,5.6-.642,8.342.5,3.737,1.215,7.459,1.388,11.23.137,2.978.412,6.52-1.325,9.117-2.353,3.518-6.4-2.166-7.243-4.436-2.4-6.488-.868-13.813-.681-20.5.04-1.387-.108-3.188-1.575-3.807-1.964-.829-4.378,1.223-5.561,2.566-2.155,2.447-3.311,5.84-5.029,8.612-1.845,2.977-4.226,6.077-7.438,7.683-1.223.611-3.045,1.162-4.345.452C180.2,351.115,181.3,347.868,182.043,346.426ZM216.3,445.879a13.656,13.656,0,0,1-6.751-5.142c-3.785-4.909-6.636-10.442-9.94-15.669-3.431-5.429-6.021-11.633-8.646-17.493-2.443-5.457-4.588-11.06-6.882-16.581a22.165,22.165,0,0,0,5.1-.083c1.636-.193,3.657-1.212,5.082-.117,1.2.92,2.007,2.312,3.295,3.22.215.152.433.292.652.428.734,1.958.913,4.312,1.554,6.25.862,2.6,1.594,5.256,2.51,7.838.931,2.625,2.087,5.182,3.144,7.758.926,2.256,1.737,4.6,2.731,6.818,1.1,2.451,2.592,4.729,3.769,7.144,1.157,2.374,2.215,4.788,3.275,7.2.985,2.246,2.138,4.42,3.185,6.639.409.866.887,1.69,1.352,2.524A22.847,22.847,0,0,1,216.3,445.879Zm7.592,1.228c-.691-.081-1.388-.152-2.085-.228-.4-.609-.709-1.376-1.027-1.906-.695-1.159-1.232-2.389-1.862-3.585-1.117-2.12-2.087-4.28-3.1-6.448-2.345-5.008-5.368-9.77-7.221-14.979-1.795-5.045-4.2-9.809-5.754-14.952-.753-2.493-1.791-4.934-2.435-7.453-.185-.721-.317-1.5-.523-2.25a14.064,14.064,0,0,0,7.655.8,26.562,26.562,0,0,0,6.47-1.723c.46,2.257,1.273,4.394,1.7,6.658.454,2.373.9,4.721,1.4,7.086a77.113,77.113,0,0,0,1.943,7.546,52.061,52.061,0,0,0,2.024,6.225c2.077,4.448,3.172,9.152,4.692,13.8.732,2.237,1.262,4.474,2.17,6.654.683,1.636,1.062,3.481,1.682,5.165C227.712,447.459,225.8,447.328,223.887,447.108Zm7.475.449c-.316-.806-.425-1.717-.692-2.529-.368-1.12-.791-2.212-1.232-3.305-.951-2.359-1.451-4.821-2.275-7.217-1.486-4.313-2.13-8.821-4.151-12.952-2.068-4.227-3.3-9.281-4.317-13.862-.516-2.332-1.177-4.668-1.78-6.982-.6-2.285-1.8-4.25-2.636-6.447a14.351,14.351,0,0,0,3-1.787,13.949,13.949,0,0,1,1.781-1.484c.828-.444,1.541-.1,2.351.168a31.677,31.677,0,0,0,5.037,1.142,15.656,15.656,0,0,0,1.745.176,124.561,124.561,0,0,1,2.864,12.557c.73,4.981,1.678,9.878,2.656,14.8.5,2.535,1.277,4.973,2,7.451a75.37,75.37,0,0,1,1.445,7.41c.5,2.653,1.169,5.271,1.709,7.916.3,1.451.508,3.021.955,4.473A68.663,68.663,0,0,1,231.362,447.557Zm11.275-.866c-.361.058-.721.111-1.083.162a43.339,43.339,0,0,1-1.218-5.511c-.586-2.62-1.255-5.226-1.729-7.869-.906-5.055-2.439-9.886-3.558-14.891-1.03-4.606-1.887-9.242-2.73-13.9a68.939,68.939,0,0,0-3.373-12.189,17.3,17.3,0,0,0,7.435-1.771,20.014,20.014,0,0,0,4.33-2.716,9,9,0,0,0,.758-.749c-.021.831-.037,1.752-.038,1.742.055,1.28.291,2.558.437,3.83.314,2.738.671,5.47.948,8.211.491,4.885.416,9.817,1.126,14.682s1.618,9.7,2.4,14.556c.411,2.554.631,5.112.936,7.679.291,2.451.977,4.858,1.138,7.323A47.352,47.352,0,0,1,242.637,446.69Zm7.394-1.883c-.2-1.948-.7-3.847-.994-5.783-.367-2.409-.5-4.847-.845-7.259-.732-5.08-1.737-10.13-2.635-15.184-.938-5.276-.858-10.658-1.457-15.973-.53-4.7-.9-9.577-1.886-14.2a10.521,10.521,0,0,1,2.359-2.3c1.354-.832,3.237.318,4.736.405a18.679,18.679,0,0,0,5.264-.588c.647-.154,1.322-.347,2-.577-.055,1.064-.2,2.134-.206,2.444-.075,2.81.026,5.557.21,8.361a65.658,65.658,0,0,1-.051,8.651c-.191,2.908.034,5.766.065,8.668.053,4.854.09,9.71.136,14.553.05,5.23.615,10.47.556,15.706a.842.842,0,0,0,.281.671,41.2,41.2,0,0,1-5.523,1.834C251.367,444.42,250.7,444.613,250.031,444.807Zm20.453-67.889c-.03,1.354-.055,2.706-.058,4.06,0,3.319.048,6.62-.145,9.935-.365,6.29-.244,12.6-.586,18.888-.33,6.051.081,12.077-.442,18.125-.557,6.458-3.982,10.5-9.6,13.492-.168.09-.339.172-.508.258.009-5.574-.66-11.131-.714-16.7-.054-5.639-.251-11.348-.514-16.989-.148-3.171.213-6.331.164-9.5s-.465-6.3-.576-9.463a48.189,48.189,0,0,0,.011-6.014,13.869,13.869,0,0,0,5.854-3.942c.88-1.112,1.323-2.6,2.373-3.567,1.306-1.206,3.377-1.289,5.042-1.887C270.787,374.713,270.5,376.027,270.484,376.918Zm3.725-9.436c-1.991,2.79-4.791,3.583-7.893,4.5-2.349.695-3.5,2.116-4.964,3.971-1.879,2.372-5.231,3.781-8.137,4.416a10.637,10.637,0,0,1-4.757.2,10.042,10.042,0,0,0-3.58-.6c-2.6.267-4.125,2.452-5.784,4.2a16.7,16.7,0,0,1-9.041,4.717,18.646,18.646,0,0,1-8.061-.994c-2.847-.845-4.213.045-6.365,1.865-5.025,4.25-13.957,5.393-18.813.428-1.52-1.554-2.505-2.765-4.861-2.432-3.214.454-6.86,1-9.968-.224-3.729-1.47-6.88-5.084-5.536-9.315.358-1.125,1.338-2.087,1.236-3.335a4.624,4.624,0,0,0-1.619-2.608c-1.281-1.4-3.09-2.641-3.208-4.674a9.558,9.558,0,0,1,1.6-5.545,32.567,32.567,0,0,1,3.434-4.528,22.709,22.709,0,0,1,2.275-2.615c.067.038.129.082.2.12,2.51,1.317,5.628.515,7.914-.888a21.488,21.488,0,0,0,6.806-7.217c1-1.667,1.957-3.391,2.8-5.142.9-1.875,1.454-3.9,2.883-5.475.342-.376,1.866-1.8,2.59-1.68.9.152.784,1.175.788,1.822.008,1.321-.214,2.662-.32,3.976a80.6,80.6,0,0,0-.378,12.822,16.185,16.185,0,0,0,2.926,8.7c1.564,2.026,4.526,4.468,7.3,3.694,2.3-.639,3.708-3.346,4.305-5.467a26.882,26.882,0,0,0,.265-10.518c-.552-4.02-1.614-7.988-2.018-12.027-.128-1.278.015-5.383,2.036-3.514a16.406,16.406,0,0,1,1.446,2.385,11.038,11.038,0,0,0,1.6,1.788c1.665,1.476,4.7,2.837,6.476.862,1.638-1.816,1.223-4.627.811-6.809a43.08,43.08,0,0,0-1.505-5.117c-.577-1.807-1.78-4.565-.72-6.361,1.017-1.725,2.922-.881,3.8.386a14.071,14.071,0,0,1,1.235,2.258c.84,1.853,1.6,3.744,2.373,5.626,2.728,6.66,5.5,13.421,10.281,18.911,1.924,2.209,4.641,4.65,7.815,3.876,2.571-.626,3.2-3,2.727-5.331-.705-3.476-2.595-6.8-4.012-10.026a23.711,23.711,0,0,1-1.116-2.821,5.782,5.782,0,0,1-.4-1.891c.053-.329-.511-.357-.011-.272,1.356.23,3.07,2.9,4.04,3.81,2.108,1.97,5.088,3.81,8.112,3.427a4.242,4.242,0,0,0,2.8-1.479,1.443,1.443,0,0,0,1.119-.3c.239-.186,5.03,4.856,5.447,5.339,2.316,2.674,4.728,5.811,4.163,9.585-.329,2.187-2,4.6-1.12,6.817.535,1.34,1.484,2.26,1.718,3.766A6.711,6.711,0,0,1,274.21,367.483Z" transform="translate(-169.92 -289.293)" fill="#291f27"/>
      <path id="Path_230" data-name="Path 230" d="M214.812,360.3a23.149,23.149,0,0,1-6.205,2.378c-1.458.2-2.862.07-3.439-1.54a4.162,4.162,0,0,0-.864-1.7,1.093,1.093,0,0,0-1.516,0c-2.323,2.028-5.277,4.788-8.66,3.868a4.053,4.053,0,0,1-3.213-3.674c-.1-.989.337-2.09-.189-3-1.021-1.758-4.155-.792-5.759-.983-2.856-.339-4.828-1.644-4.251-4.857a26.079,26.079,0,0,1,1.737-5.017c.206-.514-.671-.887-.9-.38-1.352,2.991-4.137,7.731-.983,10.426a8.85,8.85,0,0,0,5.066,1.818c.438.038,2.555-.236,2.937.011a14.524,14.524,0,0,1-.243,1.977,6.817,6.817,0,0,0,6.1,6.93,9.009,9.009,0,0,0,9.026-4.32,3.615,3.615,0,0,0,1.146,1.972,5,5,0,0,0,3.275.775,12.191,12.191,0,0,0,7.9-3.443A.8.8,0,0,0,214.812,360.3Z" transform="translate(-166.97 -271.385)" fill="#291f27"/>
      <path id="Path_231" data-name="Path 231" d="M244.636,344.2a1.126,1.126,0,0,0-2.17.6c.372,2.722-2.4,6.326-4.608,3.128a1.019,1.019,0,0,0-1.582-.2,10.408,10.408,0,0,0-1.391,2.949,7.837,7.837,0,0,1-2.575,3.37c-1.508,1.166-3.659,1.862-5.171.271-.45-.474-.35-.861-1.105-.984-1.476-.242-2.23,1.677-2.859,2.639a10.038,10.038,0,0,1-2.959,3.056c-2.263,1.4-4.416.516-5.64-1.778-.3-.559-1.148-.062-.849.5,1.483,2.776,3.457,5.342,6.93,3.968a8.039,8.039,0,0,0,3.3-2.728,28.181,28.181,0,0,0,1.781-3.261,5.484,5.484,0,0,0,6.746,1.639,8.742,8.742,0,0,0,3.513-3.019,9.332,9.332,0,0,0,.955-2.1,12.084,12.084,0,0,0,.382-1.634C240.833,353.971,246.446,349.247,244.636,344.2Z" transform="translate(-155.896 -271.946)" fill="#291f27"/>
      <path id="Path_232" data-name="Path 232" d="M228.808,340.007a1.1,1.1,0,0,0-2.1,0c-.218,1.416-.227,3.939-1.269,5.03-1.327,1.392-2.114-1.152-3.706-.464-1.26.544-1.492,2.388-2.089,3.447-.626,1.107-1.844,2.643-3.16,3-1.42.387-3.161-.4-4.511-.77-.915-.251-1.227,1.058-.383,1.391,2.528,1,4.8,2.069,7.3.45a7.523,7.523,0,0,0,2.266-2.347c.211-.333.819-2.028,1.29-2.846a3.141,3.141,0,0,0,2.209,1.28,3.62,3.62,0,0,0,2.961-1.157C229.393,345.187,229.214,342.332,228.808,340.007Z" transform="translate(-156.72 -273.284)" fill="#291f27"/>
      <path id="Path_233" data-name="Path 233" d="M218.394,338.672a4.41,4.41,0,0,1-2.88,1,11.918,11.918,0,0,1-2.821-1.037c-.9-.364-1.537,1.149-.663,1.574a12.082,12.082,0,0,0,3.923,1.607,3.936,3.936,0,0,0,3.548-1.7C220.1,339.361,219.34,338.058,218.394,338.672Z" transform="translate(-156.553 -273.513)" fill="#291f27"/>
      <path id="Path_234" data-name="Path 234" d="M222.4,333.83c-.614.287-1.185.66-1.777.989-.483.268-1.33.869-1.939.687-.882-.264-.979-2.017-1.138-2.751-.185-.839-1.594-.671-1.52.206.14,1.661.18,3.918,2.114,4.516a4.748,4.748,0,0,0,5.319-2.834C223.7,334,222.917,333.59,222.4,333.83Z" transform="translate(-155.139 -275.535)" fill="#291f27"/>
      <path id="Path_235" data-name="Path 235" d="M195.774,348.746c-2.054.09-4.114.569-6.13-.087-1.277-.415-2.015-1.22-1.748-2.6a22.96,22.96,0,0,1,.667-2.241c.18-.6-.693-.8-.915-.252-.887,2.208-1.97,4.413.284,6.163a8.754,8.754,0,0,0,8.3.717A.921.921,0,0,0,195.774,348.746Z" transform="translate(-164.575 -271.995)" fill="#291f27"/>
    </g>
    <g id="Group_430" data-name="Group 430" transform="translate(1274.09 1446.199)">
      <g id="Group_429" data-name="Group 429" transform="translate(0 0)">
        <path id="Path_244" data-name="Path 244" d="M477.334,346.69c-3.346-5.164-10.17-7.172-16.064-6.269-2.933.449-6.351,1.1-8.888,2.7a8.36,8.36,0,0,0-3.012,2.557c-.324.049-1.169.222-1.483.312l-.02.007c-3.927.17-7.081,2.311-10.021,5.426a14.346,14.346,0,0,0-3.633,5.737,5.239,5.239,0,0,0-.125,2.418c.25,1.261,1.311,2.1,1.589,3.246.372,1.541-1.541,2.949-2.533,4a11.772,11.772,0,0,0-2.219,3.041,9.759,9.759,0,0,0-.747,6.888c1.606,5.273,8.159,6.039,12.756,5.337a14.713,14.713,0,0,0,6.79-2.609c.654-.5,1.672-1.988,2.509-1.927.441.033,1.237.923,1.6,1.166a7.059,7.059,0,0,0,2.007.971c4.77,1.326,10.006-1.047,13.38-4.334a20.1,20.1,0,0,0,4.4-6.47,15.733,15.733,0,0,0,1.05-3.237c.38-1.991.474-3.233,1.85-4.814C479.679,357.2,479.922,350.683,477.334,346.69Zm-2.743,12.2a15.409,15.409,0,0,0-2.129,5.408,16.453,16.453,0,0,1-4.145,8.1c-3.464,3.731-9.282,6.687-13.9,3.381-1.321-.944-2.777-1.89-4.358-.93-.885.537-1.532,1.362-2.468,1.861a17.376,17.376,0,0,1-4.067,1.513c-2.882.692-5.805.876-8.452-.638-2.576-1.472-2.495-4.6-1.315-7.059,1.15-2.4,3.777-3.972,4.363-6.689.288-1.338-.38-2.277-.994-3.246.029-2.448.2-4.63,1.99-6.681a16.181,16.181,0,0,1,7.052-4.794,16.524,16.524,0,0,1,2.9-.73,5.5,5.5,0,0,0,1.948-.407c.445-.259.512-.7.67-1.035.034.1.343.042.432.032.392-.048.9-.654,1.253-.886,2.131-1.408,4.8-1.772,7.275-2.224a17.3,17.3,0,0,1,9.168.964A9.963,9.963,0,0,1,474.591,358.891Z" transform="translate(-429.844 -340.212)" fill="#291f27"/>
        <path id="Path_245" data-name="Path 245" d="M454.1,363.563c-1.244.339-2.365.927-3.566,1.383-.709.268-1.648.667-2.359.132-1.022-.77-.668-2.32-.325-3.3s-.815-1.594-1.6-1.228c-1.339.627-6.706,3.6-5.99-.6.24-1.406,1.631-2.734,2.431-3.835.292-.4-.372-.918-.689-.532-1.429,1.737-4.137,4.225-2.831,6.734,1.207,2.319,3.877,1.741,6.077.944-.211,1.919.341,3.863,2.438,4.584,2.625.9,5.494-.961,7.419-2.543C455.944,364.614,455.045,363.307,454.1,363.563Z" transform="translate(-426.962 -335.328)" fill="#291f27"/>
        <path id="Path_246" data-name="Path 246" d="M455.829,357.313c-1.174.5-2.134,2.013-3.456,2.052-1.657.049-2.487-1.741-2.908-3.057a.489.489,0,0,0-.063-.116,7.4,7.4,0,0,0,1.778-1.113c.644-.544,2.7-2.359,1.457-3.2a.8.8,0,0,0-.806,0,7.234,7.234,0,0,0-1.435,1.241,7.84,7.84,0,0,1-2.466,1.635,1.116,1.116,0,0,1-1.535-.545,2.81,2.81,0,0,1,.165-1.292c.066-.318.276-1.727.663-1.76a.353.353,0,0,0,.094-.689c-1.087-.293-1.545,1.3-1.829,2.055-.536,1.432-.784,3.144.907,3.867a3.333,3.333,0,0,0,2.12.108.717.717,0,0,0,0,.075c.409,1.956,1.327,4.032,3.414,4.63,2.233.639,4.14-1.148,4.932-3.093C457.124,357.462,456.314,357.106,455.829,357.313Z" transform="translate(-424.957 -336.936)" fill="#291f27"/>
      </g>
      <path id="Path_247" data-name="Path 247" d="M453.91,351.754c-.779-.011-1.6.366-2.114-.408-.613-.93-.279-1.923-.05-2.913a.282.282,0,0,0-.543-.149,5.017,5.017,0,0,0,.013,3.868,2.077,2.077,0,0,0,2.978.65A.566.566,0,0,0,453.91,351.754Z" transform="translate(-423.12 -337.688)" fill="#291f27"/>
    </g>
    <g id="Group_432" data-name="Group 432" transform="translate(1325.826 1429.263)">
      <g id="Group_431" data-name="Group 431" transform="translate(0 0)">
        <path id="Path_248" data-name="Path 248" d="M503.95,332.117a9.347,9.347,0,0,0-6.83-4.651,6.748,6.748,0,0,0-3.733.445,7.164,7.164,0,0,0-2.633,2.283,9.4,9.4,0,0,0-3.555.606,17.555,17.555,0,0,0-3.315,1.323c-1.094.465-2.161,1-3.212,1.535-2.978,1.5-5.479,3.506-6.484,6.805a7.407,7.407,0,0,0-.132,4.337c.5,1.589,1.593,2.377,2.615,3.534l-.108.022a4.791,4.791,0,0,0-1.194.615,11.078,11.078,0,0,0-1.842,1.475,16.585,16.585,0,0,0-3.125,4.247c-1.624,3.143-2.083,6.353.1,9.388a9.8,9.8,0,0,0,8.177,3.822,19.326,19.326,0,0,0,10.776-3.968c.409-.3,1.55-1.49,2.057-1.389.214.042.721.907.971,1.087a7.759,7.759,0,0,0,4.37.989c3.677-.17,6.285-3.259,6.981-6.7a11.556,11.556,0,0,0-.12-5.063,6.3,6.3,0,0,0-1.678-2.794,17.062,17.062,0,0,0,1.347-1.317,22.763,22.763,0,0,0,1.4-2.164,9.526,9.526,0,0,0,1.748-4.3A18.115,18.115,0,0,0,503.95,332.117Zm-1.116,11.93a19.033,19.033,0,0,1-2.031,3.415,10.375,10.375,0,0,0-1.692,2.312,1.265,1.265,0,0,0,.333,1.26c.619.618,1.181.763,1.54,1.68a7.023,7.023,0,0,1,.31,2.518,8.057,8.057,0,0,1-1.342,4.989c-1.24,1.747-4.141,2.973-6.217,1.829-.95-.523-1.286-1.681-2.547-1.6-1.187.077-2.485,1.272-3.51,1.859a18.775,18.775,0,0,1-6.145,2.345c-3.55.629-8.226.127-9.327-4.019-.887-3.336,2.587-7.662,5.294-9.329,2.195-1.351,4.019-3.026,1.245-5.042-1.752-1.274-2.633-2.635-2.2-4.819a8.061,8.061,0,0,1,.8-2.263,15.974,15.974,0,0,1,4.781-4.289,14.787,14.787,0,0,1,4.19-1.9c.956-.264,3.373-1.092,4.283-.547a1.169,1.169,0,0,0,1.385-.18c1.61-1.521,2.924-2.574,5.363-1.828,2.546.78,4.032,2.95,4.893,5.352C503.144,338.311,504,341.53,502.834,344.047Z" transform="translate(-469.02 -327.387)" fill="#291f27"/>
        <path id="Path_249" data-name="Path 249" d="M486.948,351.833a4.877,4.877,0,0,1-1.763.755c-2.183.1-1.664-1.9-.877-2.773a1.123,1.123,0,0,0,0-1.569c-1.392-1.178-2.922-1.976-2.269-4.2a7.506,7.506,0,0,1,2.505-3.249c.577-.5-.2-1.545-.831-1.076-1.659,1.239-3.447,2.907-3.793,5.058-.325,2.021.765,3.407,2.17,4.547-.82,1.692-1.108,3.772.825,4.994,1.73,1.095,3.992.054,5.066-1.455C488.455,352.2,487.562,351.524,486.948,351.833Z" transform="translate(-465.544 -323.471)" fill="#291f27"/>
        <path id="Path_250" data-name="Path 250" d="M489.722,339.794a25.729,25.729,0,0,1-3.084-.666c-1.332-.531-1.218-1.529-1.037-2.757.128-.87-1.161-1.277-1.356-.374-.331,1.533-.614,3.123.677,4.3,1.224,1.117,2.963,1.253,4.542,1.395C490.565,341.791,490.758,340.066,489.722,339.794Z" transform="translate(-464.229 -324.79)" fill="#291f27"/>
      </g>
      <path id="Path_251" data-name="Path 251" d="M481.886,352.565c-1.71-.32-3.7.91-5.36.135-1.178-.549-.487-2.4-.091-3.266a7.52,7.52,0,0,1,2.187-2.422c.194-.169-.061-.506-.276-.359a7.615,7.615,0,0,0-2.885,2.748c-.56,1.1-1.421,2.517-.846,3.768,1.148,2.5,5.552,1.884,7.479.971A.87.87,0,0,0,481.886,352.565Z" transform="translate(-467.288 -321.223)" fill="#291f27"/>
    </g>
    <g id="Group_437" data-name="Group 437" transform="translate(937.019 1525.58)">
      <path id="Path_266" data-name="Path 266" d="M298.036,401.838c-4.617-2.812-10.542-1.3-14.888,1.21-5.416,3.132-10.4,6.843-16.023,9.647A146.1,146.1,0,0,1,227,425.481q-2.607.45-5.178.788a148.212,148.212,0,0,1-17.449.515c-6.341-.239-12.69-1.984-19.044-1a12.613,12.613,0,0,0-10.113,9.277c-1.109,5-.88,10.324,2.126,14.645,2.772,3.983,7.288,5.339,11.924,5.792,12.93,1.26,26.244-.774,39.038-2.46,12.7-1.674,24.852-5.086,37.027-9A171.511,171.511,0,0,0,282.41,437.7c5.223-2.315,10.781-4.976,15-8.906,3.753-3.493,5.463-8.946,5.961-13.96C303.826,410.274,302.15,404.345,298.036,401.838Zm2.491,16.947c-.8,2.69-1.693,5.263-3.7,7.3a28.482,28.482,0,0,1-7.206,4.95,112.258,112.258,0,0,1-15.724,6.709c-10.987,3.8-22.108,7.167-33.415,9.869a164.865,164.865,0,0,1-17.667,2.718c-5.99.758-11.982,1.4-18.014,1.7-5.541.277-11.426.7-16.93-.177a12.825,12.825,0,0,1-6.109-2.3,11.8,11.8,0,0,1-3.683-6.942,18.073,18.073,0,0,1,.557-8.024c.808-2.612,4.025-5.273,6.606-5.981a20.794,20.794,0,0,1,5.261-.684c.688.094,1.381.168,2.079.277,2.73.425,5.449.994,8.211,1.162,1.252.077,2.517.135,3.789.178,3.056,1.14,5.9,2.417,7.751,5.344,1.315,2.077,2.113,4.8,4.559,5.791a.746.746,0,0,0,.835-1.086c-1.792-2.541-3.144-5.577-5.441-7.727a9.505,9.505,0,0,0-4.338-2.249c3.369.032,6.748-.069,10.044-.357q2.347-.206,4.707-.474a39.845,39.845,0,0,1,5.005,3.307,6.2,6.2,0,0,1,2.514,2.629c.535,1.389.177,2.812.383,4.229.1.677.969.578,1.285.168,3.8-4.952-1.4-8.8-6.6-10.649a122,122,0,0,0,18.12-3.669c4.091,1.009,8.156,3.327,8.28,7.469a.76.76,0,0,0,1.486.2c.9-3.847-1.466-5.677-4.551-7.287a17.462,17.462,0,0,0-2.714-1.144q2.062-.66,4.087-1.413c3.257-1.22,6.528-2.324,9.763-3.548a18.6,18.6,0,0,1,5.5,1.828,6.3,6.3,0,0,1,2.493,2.526,10.021,10.021,0,0,0,1.033,2.118.709.709,0,0,0,1.1-.143c1.273-1.916-.219-4.338-1.927-5.418A8.73,8.73,0,0,0,264,418.732c-.919-.069-1.83-.149-2.739-.242,1.438-.565,2.87-1.158,4.287-1.805a102.467,102.467,0,0,0,10.191-5.436,15.368,15.368,0,0,1,5.148,2.776,7.8,7.8,0,0,1,1.974,4.522c.191,1.034,1.652.692,1.727-.234.176-2.151-.178-4.287-1.91-5.742-1.659-1.393-3.848-1.685-5.977-1.906q2.088-1.28,4.147-2.623c4.549-2.965,9.474-6.38,15.224-4.839,2.868.769,4.19,3.857,4.922,6.452C301.908,412.885,301.454,415.65,300.527,418.785Z" transform="translate(-174.601 -400.322)" fill="#291f27"/>
      <path id="Path_267" data-name="Path 267" d="M244.738,413.7a.106.106,0,0,0-.107.182c1.888,1.149,3.657,2.16,4.405,4.365a.477.477,0,0,0,.932-.127C249.971,415.631,246.578,414.547,244.738,413.7Z" transform="translate(-152.167 -396.037)" fill="#291f27"/>
      <path id="Path_268" data-name="Path 268" d="M234.329,418.3a.317.317,0,0,0-.32.547,15.432,15.432,0,0,1,2.863,2.293,7.3,7.3,0,0,1,1.443,3.324.442.442,0,0,0,.846,0C239.772,421.4,236.574,419.58,234.329,418.3Z" transform="translate(-155.602 -394.572)" fill="#291f27"/>
      <path id="Path_269" data-name="Path 269" d="M221.265,428.5c-.481-2.011-.917-4-1.478-6a.369.369,0,0,0-.712.2,45.251,45.251,0,0,0,1.409,6.023A.405.405,0,0,0,221.265,428.5Z" transform="translate(-160.347 -393.298)" fill="#291f27"/>
      <path id="Path_270" data-name="Path 270" d="M208.57,428.316a39.018,39.018,0,0,0-3.01-5.046c-.387-.578-1.311-.054-.942.549a34.976,34.976,0,0,1,2.331,4.092,19.9,19.9,0,0,1,1.531,3.937.478.478,0,0,0,.915,0C209.72,430.528,209.123,429.487,208.57,428.316Z" transform="translate(-165.005 -393.045)" fill="#291f27"/>
      <path id="Path_271" data-name="Path 271" d="M185.7,431.912a8.516,8.516,0,0,0-.582-1.383c.045-.012.085-.03.131-.038.663-.1.511-1.22-.158-1.174a2.254,2.254,0,0,0-.964.3,5.68,5.68,0,0,1-1.634-1.554.335.335,0,0,0-.577.338,24.506,24.506,0,0,0,1.2,2.167,8.331,8.331,0,0,0-.553.88c-.528.957-1.594,2.541-.949,3.625a.692.692,0,0,0,1.185,0c.386-.821.485-1.784.86-2.637.087-.2.18-.424.284-.648a3,3,0,0,0,.831.84C185.2,432.894,185.915,432.438,185.7,431.912Z" transform="translate(-172.42 -391.48)" fill="#291f27"/>
    </g>
  </g>
</svg>
