<svg xmlns="http://www.w3.org/2000/svg" width="399.787" height="353.153" viewBox="0 0 399.787 353.153">
  <g id="Group_445" data-name="Group 445" transform="translate(-1263.982 -1086.847)">
    <g id="Group_400" data-name="Group 400" transform="translate(1263.982 1188.077)">
      <path id="Path_41" data-name="Path 41" d="M699.776,154.888c1.016-1.931,1.559-4.173-.152-5.613a29.942,29.942,0,0,0,3.951-5.191c2.3-3.7,2.382-7.026,1.6-11.224-1.493-8.064-6.561-14.507-13.318-18.936a159.147,159.147,0,0,0-24.456-12.8,150.88,150.88,0,0,0-17.282-5.936,126.8,126.8,0,0,0-16.64-4.6c-4.455-.888-8.816-1.773-13.339-2.321-4.588-.553-9.244-.636-13.861-.785-18.165-.589-36.769.607-54.151,6.367a112.646,112.646,0,0,0-23.964,11.179,69.606,69.606,0,0,0-10.45,7.483,40.25,40.25,0,0,0-7.556,9.674c-3.981,6.769-7.439,14.76-3.677,22.507a21.5,21.5,0,0,0,1.566,2.706c-3.554,1.417-3.342,5.588-1.738,8.5a8.363,8.363,0,0,0-3.011,4.008,5.178,5.178,0,0,0,.327,3.921c1.011,1.924,3.681,2.686,4.429,4.627.587,1.524-.046,3.207.814,4.82a5.723,5.723,0,0,0,1.778,1.958c-.329,5.167.56,9.884,5.021,13.295a21.474,21.474,0,0,0,8.518,3.689c3.773.822,7.5,1.653,11.251,2.581,6.6,1.636,13.908,2.166,20.7,2.477,7.884.362,15.785.143,23.673.2,7.708.059,15.429.665,23.133.963,7.508.289,15.043.358,22.556.471a172.938,172.938,0,0,0,43.353-4.66,107.409,107.409,0,0,0,11.852-3.875,35.082,35.082,0,0,0,10.063-5.094,22.085,22.085,0,0,0,6.531-7.844c1.166-2.321,3.01-5.306,2.336-7.985a6.721,6.721,0,0,0,.616-.391c1.739-1.245,2.366-3.024,2.906-5.022C704.049,160.75,703.443,155.928,699.776,154.888ZM507.948,141.926a19.59,19.59,0,0,1,.878-13.361c3.131-7.618,9.386-14.278,16.2-18.733.627-.411,1.262-.812,1.9-1.213,2.218.945,4.661,1.17,6.817,2.358,2.414,1.332,4.7,3,6.982,4.547,4.492,3.056,9.129,7.046,12.117,11.619.242.371.914.053.706-.361-2.514-5.027-7.412-9.725-11.911-13-3.68-2.676-7.946-5.971-12.637-6.451a101.943,101.943,0,0,1,16.489-8.23,36.014,36.014,0,0,1,4.525,1.07c2.179.784,4.431,1.358,6.632,2.069,4.436,1.432,8.513,4.371,12.7,6.409,4.454,2.165,8.313,5.462,12.368,8.278a44.755,44.755,0,0,1,9.951,9.6.191.191,0,0,0,.315-.216,40.985,40.985,0,0,0-8.738-10.479,65.133,65.133,0,0,0-12.64-8.8c-4.189-2.077-8.373-4.982-12.825-6.418-2.425-.784-4.9-1.4-7.316-2.21a8.805,8.805,0,0,0-1.9-.417,132.944,132.944,0,0,1,31.5-6.42c3.8.947,7.708,1.685,11.255,3.318a87.55,87.55,0,0,1,14.248,7.721c3.948,2.808,7.778,5.592,11.58,8.594a47.2,47.2,0,0,1,5.32,4.9,33.663,33.663,0,0,1,5.022,6.024c.183.327.693.047.573-.292-.756-2.12-2.457-3.974-3.859-5.708a43.4,43.4,0,0,0-4.977-5.346c-4.085-3.591-8.318-6.677-12.693-9.891-4.262-3.133-9.149-5.383-13.94-7.6a35.656,35.656,0,0,0-6.451-2.147q5.8-.305,11.622-.264a254.012,254.012,0,0,1,26.286,1.3q1.882.208,3.79.464a8.152,8.152,0,0,0,.768.428c1,.474,2.076.761,3.071,1.252,2.122,1.047,4.245,2.226,6.293,3.412a65.8,65.8,0,0,1,9.78,6.872,70.917,70.917,0,0,1,8.6,9.1c1.371,1.673,2.735,3.333,4.024,5.07,1.09,1.47,2.051,3.117,3.266,4.472.176.195.487-.095.339-.3-1.269-1.781-2.154-3.9-3.359-5.74s-2.523-3.667-3.856-5.4a58.639,58.639,0,0,0-9.135-9.632,64.852,64.852,0,0,0-10.055-6.72c-1.142-.623-2.3-1.258-3.487-1.841a101.009,101.009,0,0,1,14.735,3.7,177.039,177.039,0,0,1,18.536,6.985c1.537.8,3.066,1.6,4.594,2.412.189.235.375.46.54.663,1.557,1.914,3.613,3.289,5.084,5.306,1.553,2.126,2.831,4.372,4.282,6.554s2.461,4.509,3.835,6.7a.172.172,0,0,0,.3-.155c-.966-2.462-1.7-4.792-2.9-7.175a44.536,44.536,0,0,0-3.961-6.542,20.235,20.235,0,0,0-2.447-2.71c5.759,3.3,11.44,6.786,16.87,10.573.059.04.113.086.172.127a33.261,33.261,0,0,1,3.044,3.207A23.587,23.587,0,0,1,701.429,134c.36,2.077.689,4.2-.156,6.208a31.134,31.134,0,0,1-2.835,4.964c-4.716,7.091-15.611,8.349-23.37,8.8-8.995.523-18.054.927-27.063,1.143-17.932.428-35.782,2.013-53.683,3.093-17.792,1.074-36.041,1.788-53.8-.117a96.5,96.5,0,0,1-12.514-2.239c-4.206-1.021-8.382-2.167-12-4.633C512.8,149.025,509.142,145.719,507.948,141.926Zm158.563,15.091c1.053-.04,2.106-.089,3.159-.127a133.567,133.567,0,0,0,14.355-1.018c4-.583,8.261-1.233,11.721-3.448.473-.3.921-.616,1.351-.935a3.8,3.8,0,0,1-.829,3.212,25.322,25.322,0,0,1-3.137,4.309c-1.735,1.712-4.075,2.2-6.415,2.511a61.553,61.553,0,0,1-11.99.338,20.155,20.155,0,0,1-5.835-.882,4.507,4.507,0,0,1-2.576-2.422c.073-.275.142-.551.2-.837A1.66,1.66,0,0,0,666.511,157.017Zm-33.658,1.6c2.666-.18,5.333-.348,8-.477q11.2-.544,22.424-.993c-.643,2.96-2.142,4.869-5.11,5.7a40.575,40.575,0,0,1-10.082,1.113c-3.209.052-6.476.1-9.675-.119a11.508,11.508,0,0,1-4.624-1.11,1.443,1.443,0,0,1-1.339-1.272c-.047-.039-.085-.079-.126-.119a19.325,19.325,0,0,0,.49-1.945A1.678,1.678,0,0,0,632.853,158.619Zm-37.4,3.018c11.272-.788,22.517-1.931,33.785-2.769a19.024,19.024,0,0,1-1.5,4.535,5.872,5.872,0,0,1-3.752,2.848,40.464,40.464,0,0,1-10.347,1.7,64.7,64.7,0,0,1-10.189-.019,28.942,28.942,0,0,1-4.719-.8c-.857-.222-2.63-.666-3.252-1.447a4.213,4.213,0,0,1-.678-1.659,8.892,8.892,0,0,0,.632-1.789A1.5,1.5,0,0,0,595.452,161.637Zm-12.158,5.594c-3.961.12-7.886.666-11.841.8-4.372.15-8.635-.845-12.923-1.573-2.074-.352-6.249-.136-6.936-2.684a2.581,2.581,0,0,1-.083-.613c.059-.236.115-.474.165-.712,10.068.55,20.222.269,30.165-.076,3.494-.122,6.983-.305,10.469-.526l-.017.332v.006C592.064,166.629,586.869,167.123,583.294,167.231Zm-34.969-5a6.251,6.251,0,0,1-.862,2.381,6.683,6.683,0,0,1-2.4,1.368c-2.673,1.351-5.465,1.152-8.377.868a60.871,60.871,0,0,1-15.558-3.649c-4.022-1.531-8.68-3.491-11.791-6.552-1.828-1.8-2.826-4.916-.922-7.014.19-.211.534-.443.778-.716,4.032,4.945,9.993,7.913,16.173,9.586A122.194,122.194,0,0,0,548.326,162.233Zm146.822,12.35a34.5,34.5,0,0,1-1.891,3.657,19.089,19.089,0,0,1-6.822,6.165,64.181,64.181,0,0,1-9.414,3.947,77.905,77.905,0,0,1-9.25,2.9,181.69,181.69,0,0,1-39.977,5.266c-13.723.235-27.558-.168-41.264-.828-6.763-.327-13.527.195-20.29.11a202.445,202.445,0,0,1-20.679-1.381,54.082,54.082,0,0,1-11.865-2.445c-3.362-1.16-6.873-1.872-10.212-3.066-3.249-1.16-6.333-2.737-8.373-5.594a14.882,14.882,0,0,1-2.18-6.9l.042.016a11.85,11.85,0,0,0,6.117.49c1.2-.168,2.533-.6,3.563.256.693.579,1.037,1.421,1.815,1.985a10.006,10.006,0,0,0,5.375,1.508,12.018,12.018,0,0,0,2.74-.122c1.021-.175,1.889-.9,2.848-1.073,1.329-.233,2,.966,2.856,1.667a8.255,8.255,0,0,0,2.454,1.309,19.659,19.659,0,0,0,6.592.854,12.475,12.475,0,0,0,5.744-1.281c.768-.384,2.369-1.59,3.286-1.209.817.341,1.516,1.431,2.427,1.845a15.691,15.691,0,0,0,11.858.451c2.2-.834,4.33-2.624,6.761-1.655,2.166.865,3.876,2.474,6.163,3.162a12.044,12.044,0,0,0,6.008.229c2.005-.427,3.318-1.45,5.067-2.374,2.2-1.16,4.522.51,6.784,1.01a15.536,15.536,0,0,0,6.731.107c2.121-.48,4.084-2.278,6.216-2.13,2.331.163,4.425,1.689,6.83,1.832a11.853,11.853,0,0,0,6.065-1.464,11.233,11.233,0,0,1,2.568-1.378c1.507-.2,2.6.915,3.851,1.454a7.694,7.694,0,0,0,5.1.168c2.647-.7,4.32-2.706,7.193-1.782,3.757,1.209,7.286,2.355,11.095.421A27.335,27.335,0,0,1,660.09,179a6.445,6.445,0,0,1,3.263.043,32.728,32.728,0,0,0,6.194.652,12.942,12.942,0,0,0,6.1-1.467,18.255,18.255,0,0,0,2.356-1.887c1.357-1.073,2.929-.264,4.537-.13a11.12,11.12,0,0,0,6.4-.941,9.276,9.276,0,0,0,2.649-2.206c.775-.967.891-1.612,2.133-1.945.974-.262,1.937-.41,2.875-.6C696.769,171.681,695.58,173.638,695.148,174.582Zm4.972-11.516a5.79,5.79,0,0,1-4.081,4.59c-1.5.541-3.522.388-4.909,1.165a3.786,3.786,0,0,0-1.071,1.129,6.869,6.869,0,0,1-2.935,2.576,13.185,13.185,0,0,1-6.661.308c-1.839-.269-2.819-.37-4.328.838-3.239,2.6-6.727,3.253-10.841,2.717a21.848,21.848,0,0,0-4.5-.514,9.98,9.98,0,0,0-4.36,1.868,9.116,9.116,0,0,1-6.337,1.18c-1.925-.265-3.57-1.518-5.471-1.718-3.809-.4-6.786,3.813-10.692,1.781-1.231-.642-2.144-1.448-3.61-1.374-1.7.086-3.151,1.126-4.7,1.722a10.05,10.05,0,0,1-6.367.583c-1.845-.488-3.753-1.822-5.706-1.7-1.687.1-3.258,1.051-4.858,1.516a12.847,12.847,0,0,1-6.589.142c-3.6-.818-6.052-2.683-9.568-.474-3.9,2.451-7.145,3.007-11.38.693-3.438-1.878-5.676-2.136-9.34-.713-3.6,1.4-8.5,2.389-12.03.166-1.3-.818-1.789-2.028-3.491-2.152-1.73-.125-3.285.88-4.815,1.513-3.945,1.63-9.119,1.7-12.491-1-1.122-.9-2.195-1.55-3.687-1.192a13.774,13.774,0,0,0-2.081.938,8.292,8.292,0,0,1-3.9.5c-1.7-.119-3.226-.374-4.406-1.738-.527-.607-.742-1.262-1.445-1.729-1.285-.854-3.17-.529-4.6-.428-2.391.166-5.335.4-7.286-1.384-1.768-1.617-.453-3.551-1.316-5.326-.987-2.031-3.747-2.664-4.762-4.658a3.708,3.708,0,0,1,.3-3.808c.311-.5,1.708-1.577,1.208-1.914a.846.846,0,0,0,.238.11c.064.076.129.152.2.223a23.56,23.56,0,0,0,6.127,4.113,53.9,53.9,0,0,0,7.9,3.328c6.193,2.063,12.7,4.038,19.264,4.378a17.375,17.375,0,0,0,7.423-1.475,4.8,4.8,0,0,0,2.4-2.14,3.257,3.257,0,0,0,.4.6c1.243,1.518,3.548,1.72,5.343,2.073,5.408,1.064,10.688,2.376,16.242,2.037,4.977-.305,10.016-.788,14.921-1.581a10.093,10.093,0,0,0,6.231-3.093c2.389,4.982,14.514,4.028,18.784,3.669,4.524-.382,9.181-.294,13.6-1.368a8.078,8.078,0,0,0,5.4-4.56,8.744,8.744,0,0,0,2.176,1.289c3.925,1.8,8.688,1.368,12.9,1.52,4.522.162,9.328.14,13.7-1.175a8.471,8.471,0,0,0,5.376-4.677,8.268,8.268,0,0,0,5.481,2.841,66.474,66.474,0,0,0,15.787.407,17.981,17.981,0,0,0,6.1-1.311c2.146-1.064,3.574-2.961,4.992-4.8a1.539,1.539,0,0,0,.226.052C700.714,157.958,700.59,161.23,700.12,163.066Z" transform="translate(-503.065 -87.352)" fill="#291f27"/>
      <path id="Path_42" data-name="Path 42" d="M536.92,146.717c-2.177.413-4.217,1.5-6.406,1.846-3.262.521-3.863-1.662-5.872-3.385a1.117,1.117,0,0,0-1.335-.074c-1.14.794-2.942.716-4.3.91-2.431.345-4.037-.446-5.85-1.951-.064-.053-.17.033-.113.1,1.45,1.752,2.872,3.027,5.2,3.24a14.167,14.167,0,0,0,5.372-.115c1.644,1.871,2.812,3.5,5.7,3.621,3.014.125,5.677-1.305,8.063-2.909C537.93,147.633,537.636,146.583,536.92,146.717Z" transform="translate(-498.756 -62.832)" fill="#291f27"/>
      <path id="Path_43" data-name="Path 43" d="M575.428,147.647a9.71,9.71,0,0,1-7.714,1.977c-1.6-.309-2.405-1.45-3.755-1.991a1.5,1.5,0,0,0-1.219-.168c-.513.172-.6.552-.953.925a6.06,6.06,0,0,1-3.371,1.617,10.687,10.687,0,0,1-4.5.1c-.91-.192-4.538-1.3-4.32-2.6.143-.845-1.021-1.517-1.587-.765-1.334,1.775-3.686,1.848-5.746,2.04a8.942,8.942,0,0,1-4.454-.606,22.034,22.034,0,0,1-2.6-1.8c-.133-.083-.252.122-.146.221,1.2,1.124,1.733,2.567,3.325,3.3a10.844,10.844,0,0,0,4.558.741c1.911,0,4.11-.234,5.539-1.506a9.618,9.618,0,0,0,4.3,2.557c2.892.963,6.895.892,9.423-.991.365-.272.686-.782,1.036-1,.566-.354,0-.414,1.014.477a8.244,8.244,0,0,0,4.224,1.55,8.391,8.391,0,0,0,8.018-2.871A.824.824,0,0,0,575.428,147.647Z" transform="translate(-489.24 -61.829)" fill="#291f27"/>
      <path id="Path_44" data-name="Path 44" d="M619.114,145.052c-2.379,2.548-5.975,3.18-8.483.537-.816-.859-1.377-1.077-2.405-.284-1.112.86-1.682,1.988-3.03,2.632a10.718,10.718,0,0,1-3.226.9,7.633,7.633,0,0,1-4.047-.209c-1.1-.467-1.788-1.5-2.876-2a1.024,1.024,0,0,0-1.185.242c-2.167,2.309-4.173,2.765-7.191,3.014s-6.259.3-8.435-2.232a.1.1,0,0,0-.156.107c1.925,3.131,4.256,4.191,7.966,4.229,3.906.039,6.352-.474,8.864-3.293,1.142.584,2,1.8,3.295,2.226a10.055,10.055,0,0,0,4.28.178c2.253-.288,5.3-1.3,6.392-3.534.348-.2.456-.453.32-.745q-.176-.531.2.173c.331.13.95.914,1.275,1.145a7.417,7.417,0,0,0,3.69,1.457,6.587,6.587,0,0,0,6.263-3.547A.92.92,0,0,0,619.114,145.052Z" transform="translate(-470.629 -62.524)" fill="#291f27"/>
      <path id="Path_45" data-name="Path 45" d="M637.492,143.362c-2.293,1.491-5.939,2.917-8.108.56-.507-.55-.619-1.5-1.712-1.061-.365.146-.5.464-.721.758-.815,1.069-1.218,1.964-2.507,2.584-2.331,1.123-7.127,2.286-8.575-.746a.152.152,0,0,0-.287.1c1.51,5.651,9.714,4.532,12.381.371.077-.107.139-.222.2-.334l.146.284a3.83,3.83,0,0,0,3.06,1.74c2.861.244,6.039-.36,7.373-3.174A.865.865,0,0,0,637.492,143.362Z" transform="translate(-454.405 -63.393)" fill="#291f27"/>
      <path id="Path_46" data-name="Path 46" d="M673.931,127.869c-20.869,3.618-41.769,6.6-63,6.685-10.245.04-20.487.308-30.733.372-5.184.033-10.35.408-15.53.629s-10.348.07-15.518-.15A100.158,100.158,0,0,1,530.9,133.43c-6.38-1.471-12.229-4.111-18.157-6.8a.057.057,0,0,0-.05.1,110.958,110.958,0,0,0,14.417,6.4,71.471,71.471,0,0,0,16.207,3.043,236.926,236.926,0,0,0,31.041,1.033c5.236-.222,10.493-.077,15.736-.129,5.428-.052,10.815-.425,16.229-.849,10.738-.841,21.523-1.119,32.251-2.09a281.138,281.138,0,0,0,35.594-5.166C674.8,128.839,674.569,127.757,673.931,127.869Z" transform="translate(-498.913 -70.367)" fill="#291f27"/>
    </g>
    <g id="Group_409" data-name="Group 409" transform="translate(1394.68 1295.711)">
      <path id="Path_96" data-name="Path 96" d="M721.61,187.526C712.79,174.1,696.7,165.7,680.927,163.714a110.567,110.567,0,0,0-12.815-1.223c-4.428-.037-8.685.888-13.017,1.665-2.663.478-5.336,1.113-7.99,1.865q-3.292.612-6.528,1.329c-8.106,1.788-15.58,6.045-21.9,11.378a69.835,69.835,0,0,0-9.02,8.51,46.763,46.763,0,0,0-6.651,10.774,96.961,96.961,0,0,0-8.117,50.551c.529,4.6,1.816,9.691,4.769,13.371.191,1.931,1.136,3.564,1.924,5.4a36.95,36.95,0,0,0,3.929,6.585,88.928,88.928,0,0,0,10.529,13.1,47.647,47.647,0,0,0,13.907,9.559c5.388,2.331,10.638,5.13,16.372,6.539,10.947,2.689,22.845,4.643,34.1,3.129A54.343,54.343,0,0,0,710.7,292.2c4.366-4.12,7.354-9.4,9.808-14.79,2.331-5.118,5.144-10.433,6.154-16.047.129-.262.262-.521.384-.791,3.4-7.531,6.339-15.934,7.237-24.17C736.157,219.2,731.036,201.868,721.61,187.526ZM719.1,273.4c-2.276,4.631-4.3,8.9-7.579,12.921-6.635,8.135-16.419,13.243-26.514,15.626-10.9,2.57-22.154,1.291-33-.921a68.7,68.7,0,0,1-15.447-4.962c-4.9-2.258-9.649-4.176-14.122-7.28a58.5,58.5,0,0,1-13.152-12.954c-1.612-2.13-3.3-4.219-4.809-6.42-.805-1.172-1.367-2.464-2.057-3.7-.432-.775-.881-1.451-1.249-2.159a12.892,12.892,0,0,0,3.7,2.384,51.46,51.46,0,0,0,5.3,1.791c2.033.6,4.293.754,6.138,1.887,3.272,2.01,4.289,6.794,7.161,9.391a13.356,13.356,0,0,0,9.282,3.52c1.859.023,3.664-.324,5.514-.433,2.626-.155,4.4.878,6.435,2.419,6.16,4.668,12.665,7.751,20.533,5.925,1.964-.456,3.819-1.344,5.826-1.612a27.21,27.21,0,0,1,6.932.424,49.876,49.876,0,0,0,12.695-.115,24.152,24.152,0,0,0,11.023-3.948c3.235-2.281,5.554-5.34,8.273-8.157,2.991-3.1,6.776-5.051,10.152-7.654.527-.405,1.018-.831,1.5-1.266C720.82,269.91,719.948,271.679,719.1,273.4Zm9.006-25.62c-2.674,7.528-5.464,15.15-12.191,19.936a69.5,69.5,0,0,0-8.306,6.339c-2.76,2.669-5.061,5.686-8.2,7.968-6.465,4.7-15.71,4.573-23.3,3.707a22.748,22.748,0,0,0-10.182,1.291,17.164,17.164,0,0,1-11.824-.107c-3.494-1.457-6.147-3.724-9.159-5.926s-5.906-2.165-9.5-1.974c-3.945.208-7.512-.372-10.287-3.405-2.282-2.494-3.225-6.025-5.812-8.281-2.6-2.273-6.327-2.441-9.476-3.439-3.806-1.206-6.611-2.22-8.9-5.721-4.325-6.614-4.408-16.034-3.852-23.653a95.426,95.426,0,0,1,4.527-24.232c2.673-7.829,5.716-15.411,11.11-21.787,5-5.9,11.586-10.522,18.193-14.437.579-.342,1.169-.662,1.763-.97,3.316-1.238,6.71-2.289,10.183-3.245,2.886-.794,5.779-1.619,8.692-2.348,1.185-.2,2.366-.382,3.538-.559A131.676,131.676,0,0,1,670.9,165.42a90.44,90.44,0,0,1,19.728,3.739,62.841,62.841,0,0,1,21.24,11.393,39.5,39.5,0,0,1,7.713,8.658,58.365,58.365,0,0,1,5.892,9.929,73.539,73.539,0,0,1,6.167,24.019A60.813,60.813,0,0,1,728.106,247.782Z" transform="translate(-594.303 -162.489)" fill="#291f27"/>
      <path id="Path_97" data-name="Path 97" d="M684.719,207c-1.845-5.216-6.823-8.883-11.825-10.671a.306.306,0,0,0-.235.557c4.492,2.325,8.873,5.464,10.431,10.562a24.472,24.472,0,0,1,.971,6.4c-1.852-.48-2.112-3.176-2.912-4.618a7.41,7.41,0,0,0-3.164-2.848c-2.981-1.553-5.752-.844-8.933-1.079-4.276-.317-4.853-4.891-7.924-7.075-2.3-1.636-5.287-.576-7.637.413-3.173,1.336-5.751,4.045-8.972,5.088-3.7,1.2-7.4-.3-10.987,1.13a15.7,15.7,0,0,0-6.942,6.327c2.808-11.2,13.692-18.4,24.19-21.51a.172.172,0,0,0-.092-.331c-10.34,2.52-21.291,8.287-25.689,18.522a26.986,26.986,0,0,0-1.288,16.562c1.2,5.421,4.563,9.28,8.675,12.814a39.792,39.792,0,0,0,14.033,7.575c5.481,1.74,11.108,1.033,16.527-.635,9.549-2.937,19.076-10.778,21.907-20.622A28.126,28.126,0,0,0,684.719,207Zm-20.114,33.6a30.339,30.339,0,0,1-14.7,1.145,37.856,37.856,0,0,1-12.311-5.2c-3.813-2.382-7.924-5.8-9.8-9.98-.2-.448-.381-.912-.55-1.382a44.447,44.447,0,0,0,4.015-3.553,29.412,29.412,0,0,1,6.966-4.053,27.82,27.82,0,0,1,7.753-2.355,65.389,65.389,0,0,1,7.807-.158,43.793,43.793,0,0,1,14.766,2.673,27.253,27.253,0,0,1,7.24,4.521c1.692,1.347,4.1,2.872,4.911,5a1.45,1.45,0,0,0,.255.433A28.7,28.7,0,0,1,664.606,240.6Zm18.817-19.425a21.827,21.827,0,0,1-1.049,3.524,15.7,15.7,0,0,0-3.233-3.343,49.369,49.369,0,0,0-6.993-5.052c-4.815-2.792-11.307-3.841-16.787-4.17-5.812-.348-11.685-.029-17.049,2.415a33.508,33.508,0,0,0-7.205,4.161,19.741,19.741,0,0,0-4.293,5.114,25,25,0,0,1-.925-6.773,28.238,28.238,0,0,1,4.148-6.651,12.282,12.282,0,0,1,3.895-3.376c1.97-.958,3.915-.692,6-.434a14.978,14.978,0,0,0,8.263-1.12c2.978-1.47,5.408-3.611,8.725-4.434,3.243-.8,4.422,2.749,6.322,4.68,1.991,2.026,4.7,2.292,7.4,2,1.712-.188,3.478-.626,5.187-.152,2.4.669,3.331,2.189,4.213,4.3.778,1.864,1.95,3.745,4.005,4.21A32.023,32.023,0,0,1,683.423,221.172Z" transform="translate(-581.899 -150.878)" fill="#291f27"/>
      <path id="Path_98" data-name="Path 98" d="M717.052,231.2a63.564,63.564,0,0,1-8.628,9.781,54.374,54.374,0,0,1-11.536,7.555,64.454,64.454,0,0,1-26.772,6.161c-9.483.139-19.046-2.339-27.657-6.155a118.867,118.867,0,0,1-11.448-5.608c-3.826-2.209-7.333-5.272-10.8-7.992-3.669-2.875-8.3-5.077-11.418-8.562-3.041-3.4-5.2-8.012-6.982-12.159-.026-.06-.123-.017-.1.044a52.774,52.774,0,0,0,5.184,11.767c2.2,3.537,5.916,5.7,9.05,8.3,3.8,3.151,7.516,6.386,11.413,9.427a54.183,54.183,0,0,0,11.037,6.214c17.221,7.851,38.768,8.487,56.432,1.463a54.516,54.516,0,0,0,13-7.334c4.349-3.333,7.39-7.472,10.49-11.927C718.824,231.436,717.609,230.482,717.052,231.2Z" transform="translate(-591.105 -140.127)" fill="#291f27"/>
      <path id="Path_99" data-name="Path 99" d="M638.863,174.638c-3.852-.781-8.725,1.241-12.229,2.58-1.9.726-3.782,1.493-5.657,2.272-.786.232-1.573.461-2.356.7-2.116.646-7.347,1.7-7.535,4.571-.224,3.409,4.742,1.493,6.307,1.06,4.478-1.238,8.8-3.215,13.221-4.671a48.321,48.321,0,0,1,6.356-1.586c1.275-.238,3.157-.56,4.156-1.508C642.829,176.434,640.461,174.961,638.863,174.638Zm-.192,2.967c-2.713.974-5.693,1.193-8.449,2.126-2.98,1.007-5.929,2.054-8.87,3.169-1.431.543-2.862,1.137-4.336,1.554-.683.193-4.038,1.236-2.905-.587.521-.839,3.684-1.889,4.465-2.182,1.513-.566,3.051-1.077,4.571-1.62,3.1-1.1,6.287-1.944,9.384-3.044a.472.472,0,0,0,.254-.215,18.9,18.9,0,0,1,4.558-.7C638.88,176.1,641.07,176.743,638.671,177.6Z" transform="translate(-587.049 -157.31)" fill="#291f27"/>
      <path id="Path_100" data-name="Path 100" d="M686.467,186.918c-3.043-2.488-8.3-2.975-12.02-3.427-2.02-.245-4.041-.445-6.064-.632-.8-.162-1.606-.327-2.411-.48-2.172-.417-7.29-1.925-8.8.526-1.789,2.911,3.5,3.531,5.084,3.881,4.537,1,9.285,1.266,13.872,2.04a48.56,48.56,0,0,1,6.362,1.564c1.238.385,3.053.978,4.378.606C689.137,190.358,687.729,187.951,686.467,186.918Zm-1.554,2.534c-2.855-.4-5.592-1.6-8.465-2.064-3.106-.5-6.2-.951-9.324-1.338-1.518-.188-3.063-.329-4.56-.649-.695-.149-4.148-.792-2.295-1.877.852-.5,4.14.049,4.967.155,1.6.206,3.2.471,4.8.7,3.253.47,6.466,1.215,9.719,1.688a.468.468,0,0,0,.325-.07,18.839,18.839,0,0,1,4.359,1.5C685.8,188.222,687.435,189.81,684.912,189.452Z" transform="translate(-567.27 -154.251)" fill="#291f27"/>
      <path id="Path_101" data-name="Path 101" d="M650.671,233.11c-3.043-2.49-8.294-2.977-12.019-3.427-2.02-.245-4.041-.447-6.064-.632-.8-.162-1.607-.327-2.411-.48-2.172-.417-7.291-1.927-8.8.524-1.789,2.912,3.5,3.533,5.084,3.882,4.537,1,9.285,1.266,13.871,2.04a48.493,48.493,0,0,1,6.362,1.564c1.239.385,3.054.978,4.379.606C653.341,236.55,651.935,234.143,650.671,233.11Zm-1.554,2.534c-2.854-.405-5.592-1.6-8.465-2.064-3.1-.5-6.2-.951-9.323-1.338-1.518-.188-3.063-.331-4.56-.65-.695-.148-4.148-.791-2.295-1.875.852-.5,4.14.049,4.966.155,1.6.206,3.2.471,4.8.7,3.253.468,6.466,1.215,9.719,1.687a.468.468,0,0,0,.325-.07,18.835,18.835,0,0,1,4.359,1.5C650,234.414,651.641,236,649.117,235.645Z" transform="translate(-582.75 -134.273)" fill="#291f27"/>
      <path id="Path_102" data-name="Path 102" d="M685.505,223.452c-3.832-.875-8.753,1.024-12.288,2.278-1.919.679-3.819,1.4-5.711,2.133-.792.212-1.586.423-2.374.642-2.132.593-7.387,1.518-7.645,4.385-.308,3.4,4.7,1.607,6.28,1.213,4.505-1.126,8.879-3,13.331-4.345a48.54,48.54,0,0,1,6.393-1.428c1.279-.206,3.17-.483,4.19-1.407C689.427,225.345,687.1,223.815,685.505,223.452Zm-.265,2.961c-2.736.907-5.721,1.053-8.5,1.917-3,.934-5.978,1.908-8.946,2.95-1.443.507-2.888,1.067-4.372,1.447-.688.176-4.067,1.137-2.891-.659.543-.827,3.73-1.8,4.518-2.07,1.526-.529,3.076-1,4.61-1.507,3.123-1.027,6.333-1.789,9.456-2.813a.462.462,0,0,0,.259-.208,18.863,18.863,0,0,1,4.574-.592C685.485,224.916,687.66,225.611,685.24,226.413Z" transform="translate(-566.983 -136.22)" fill="#291f27"/>
      <path id="Path_103" data-name="Path 103" d="M628.521,196.163c-3.832-.877-8.753,1.024-12.288,2.278-1.918.679-3.818,1.4-5.711,2.133-.792.211-1.584.421-2.374.642-2.13.593-7.386,1.518-7.645,4.383-.307,3.4,4.7,1.609,6.28,1.215,4.507-1.126,8.88-3,13.331-4.345a48.641,48.641,0,0,1,6.393-1.428c1.281-.206,3.17-.483,4.192-1.407C632.443,198.056,630.111,196.526,628.521,196.163Zm-.264,2.961c-2.737.907-5.721,1.053-8.5,1.917-3,.934-5.979,1.908-8.946,2.949-1.444.507-2.889,1.067-4.372,1.447-.689.176-4.068,1.137-2.891-.659.542-.827,3.73-1.8,4.518-2.071,1.526-.529,3.076-1,4.61-1.507,3.123-1.027,6.332-1.788,9.455-2.812a.472.472,0,0,0,.261-.208,18.782,18.782,0,0,1,4.572-.592C628.5,197.627,630.676,198.322,628.258,199.124Z" transform="translate(-591.628 -148.022)" fill="#291f27"/>
      <path id="Path_104" data-name="Path 104" d="M663.356,173.84c-.288-1.491-2.271-1.309-3.381-1.147a19.119,19.119,0,0,0-3.712.968,34.314,34.314,0,0,0-6.859,3c-3.189,1.616-6.437,3.134-9.7,4.6-1.187.536-5.133,1.991-5.028,3.845.089,1.577,3.434,1.1,4.249.974,3.157-.51,6.293-2.2,9.2-3.512,3.359-1.513,6.9-2.9,10.155-4.617C659.57,177.268,663.75,175.879,663.356,173.84Zm-3.558,1.788c-2.845,1.692-5.876,2.885-8.811,4.4a82.147,82.147,0,0,1-9.767,4.6c-.87.312-5.509,1.818-5.423-.393.037-.968,4.144-2.3,4.81-2.6l1.143-.517c4.9-2.027,9.715-4.259,14.684-6.061,1.176-.425,2.785-1.2,4.065-1.051.441.05,1.155-.332,1.116.473A11.988,11.988,0,0,1,659.8,175.628Z" transform="translate(-576.841 -158.122)" fill="#291f27"/>
      <path id="Path_105" data-name="Path 105" d="M669.67,218.226c.719,1.338,2.558.574,3.57.09a19.215,19.215,0,0,0,3.255-2.03,34.342,34.342,0,0,0,5.657-4.9c2.561-2.49,5.213-4.908,7.884-7.278.976-.865,4.308-3.428,3.657-5.167-.554-1.48-3.608-.033-4.348.335-2.862,1.425-5.352,3.978-7.734,6.09-2.756,2.444-5.729,4.822-8.32,7.43C672.264,213.826,668.687,216.4,669.67,218.226Zm2.865-2.765c2.213-2.462,4.751-4.5,7.1-6.823a81.952,81.952,0,0,1,7.955-7.3c.738-.557,4.717-3.375,5.294-1.239.252.935-3.273,3.425-3.819,3.912l-.938.834c-4.071,3.392-8.008,6.958-12.215,10.158-.994.756-2.3,1.97-3.567,2.213-.437.083-1,.662-1.208-.119A12,12,0,0,1,672.535,215.461Z" transform="translate(-561.781 -147.008)" fill="#291f27"/>
      <path id="Path_106" data-name="Path 106" d="M604.528,209.953c-1.077,1.07.179,2.616.933,3.447a19.115,19.115,0,0,0,2.875,2.54,34.207,34.207,0,0,0,6.313,4.021c3.117,1.746,6.191,3.6,9.227,5.481,1.107.688,4.515,3.15,5.995,2.03,1.261-.954-1-3.467-1.561-4.071-2.183-2.336-5.34-3.994-8.045-5.674-3.127-1.944-6.256-4.114-9.5-5.853C609.485,211.183,606,208.489,604.528,209.953ZM608,211.908c2.991,1.418,5.673,3.269,8.565,4.86a81.914,81.914,0,0,1,9.27,5.539c.743.549,4.58,3.558,2.7,4.72-.826.51-4.219-2.159-4.84-2.543l-1.067-.66c-4.414-2.934-8.953-5.69-13.22-8.808-1.01-.738-2.546-1.644-3.14-2.788-.2-.4-.921-.772-.231-1.19A12.064,12.064,0,0,1,608,211.908Z" transform="translate(-590.062 -142.147)" fill="#291f27"/>
    </g>
    <g id="Group_410" data-name="Group 410" transform="translate(1494.688 1154.695)">
      <path id="Path_107" data-name="Path 107" d="M819.484,105.226a42.587,42.587,0,0,0-7.214-18.135c-3.9-5.263-9.591-9.555-15.278-12.668a50.9,50.9,0,0,0-18.115-5.734,45.085,45.085,0,0,0-11.192.033,1.2,1.2,0,0,0-.239-.675c-.862-2.341-2.819-3.535-5.4-3.9a13.034,13.034,0,0,0-5.012.414c-1.566.4-3.038,1.3-4.624,1.589-1.3.241-2.388-.67-3.712-.839a7.722,7.722,0,0,0-3.977.627,7.031,7.031,0,0,1-5.877.145l-.112-.037a1.073,1.073,0,0,0-.443-.7c-2.25-1.6-4.358-1.352-6.989-1.156a67.993,67.993,0,0,0-8.853,1.195,27.893,27.893,0,0,0-7.46,2.56c-1.021.541-2.02,1-2.915,1.547a56.768,56.768,0,0,0-18.912,11.312,84.44,84.44,0,0,0-16.2,18.767c-4.36,7.087-6.764,15.332-9.043,23.268a129.424,129.424,0,0,0-2.728,13.533,47.049,47.049,0,0,0-.961,12.268c.2,2.132.252,4.342.636,6.452a51.163,51.163,0,0,0,1.667,5.816,15.469,15.469,0,0,0,1.073,2.57,1.031,1.031,0,0,0,.1.382c2.543,5.326,5.529,10.844,10.629,14.074a36.593,36.593,0,0,0,7.413,4.06,46.909,46.909,0,0,0,11,2.1c6.885.769,14.232.04,21.063-.923,7.349-1.036,14.662-2.034,21.97-3.379,14.735-2.713,28.853-7.44,42.7-13.077,11.725-4.773,24.391-10.381,31.748-21.218a39.453,39.453,0,0,0,6.614-17.5C821.708,120.379,820.675,112.747,819.484,105.226Zm-76.34-36.288c1.239-.282,2.328-1.024,3.564-1.273,1.729-.35,2.563.723,3.974,1.285,2.219.882,4.708-.556,6.819-1.051a7.4,7.4,0,0,1,6.9,1.316,71.053,71.053,0,0,0-6.943,1.623,62.849,62.849,0,0,0-20.141,9.846c-1.622-1.157-3.272-.658-5.193-.014a12.291,12.291,0,0,0-5.807,4.26.534.534,0,0,0,.755.755,11.432,11.432,0,0,1,5.545-3.229,8.422,8.422,0,0,1,2.788-.294,55.768,55.768,0,0,0-10.335,10.883c-.563.785-1.079,1.6-1.573,2.419-.662-1.1-2.177-1.773-3.087-2.673a52.069,52.069,0,0,1-4.978-5.433,32.029,32.029,0,0,0-3.086-3.639c.772-2.7,1.4-5.353,4.219-6.728,2.086-1.019,3.409-.519,4.408-2.758,1.514-3.391,4.382-3.1,7.6-3.458a18.1,18.1,0,0,0,3.912-.924c1.057-.365,1.9-1.15,3-1.4C738.049,67.878,740.5,69.54,743.143,68.938Zm-57.461,72.524c-.368.083-.854.175-.953.223a5.17,5.17,0,0,0-1.623,1.4,10.012,10.012,0,0,0-2.722,4.5,4.614,4.614,0,0,0-.039,1.719.814.814,0,0,0-.922-.34c-1.25.362-2.51.652-3.727,1.123-1.173.454-.679,2.358.527,1.912a27.5,27.5,0,0,0,3.876-1.432.783.783,0,0,0,.418-.623c.713,1.918,2.944,2.878,5.138,3.331a.613.613,0,0,0,.47-1.116c-1.965-1.155-4.732-2.21-3.866-5.04a5.792,5.792,0,0,1,4.829-4.1,1,1,0,0,0,.7-.7c.451-1.39-.07-2.464.935-3.808a4.642,4.642,0,0,1,4.32-2.03c1.938.268,4.583,1.814,6.6.953a3.373,3.373,0,0,0,1.388-1.391,9.863,9.863,0,0,1,2.759-2.911c3.361-2.071,6.68-.341,9.635,1.443-.087.642-.182,1.284-.264,1.924-1.07,8.382-2.862,16.432-6.549,24.112a98.729,98.729,0,0,1-5.9,10.621,17.036,17.036,0,0,1-6.118,6.069,12,12,0,0,1-3.024.189c-1.685-.169-2.779-1.322-4.043-2.348a50.919,50.919,0,0,1-6.43-6.059c-3.568-4.068-5.673-9.595-7.347-14.686a.283.283,0,0,0,.1-.52c-.435-.291-.539-3.2-.566-3.462a14.56,14.56,0,0,1,.106-4.571,9.858,9.858,0,0,1,4.677-6.6c1.763-1.059,4.593-1.739,5.995-3.266,1.695-1.848.775-5.078,2.262-7.2,1.679-2.392,5.11-2.541,7.767-2.381,1.4.083,2.765.658,4.166.5a11.6,11.6,0,0,0,3.048-1.109,6.711,6.711,0,0,1,5.282-.186c1.553.65,2.057,1.792,3.223,2.819a2.134,2.134,0,0,0,1.728.658c.331-.029,2.153-.918,2.818-.8q-.382,2.428-.728,4.868c-2.68-1.348-5.187-2.765-8.32-2.248a8.346,8.346,0,0,0-4.138,1.911,20.319,20.319,0,0,1-1.514,1.46c-.708.44-1.115.249-2.013.12-3.268-.468-6.1-2.119-9.129.152a9.156,9.156,0,0,0-2.785,3.59A4.96,4.96,0,0,0,685.682,141.462ZM693.4,113.75a22.719,22.719,0,0,0,4.784,5.144c.165.14.334.271.5.4a39.36,39.36,0,0,1-7.16-5.127c-1.1-1.011-2.358-2.746-3.759-3.954-.342-2.223-.991-4.322-.6-6.589.249-1.444.918-4.084,2.265-4.932.967-.61,2.71-.183,3.656.337,1.115.612,1.3,1.455,1.788,2.5a9.092,9.092,0,0,0,.672,1.4,3.332,3.332,0,0,0-2.058.633C689.882,106.036,691.455,110.727,693.4,113.75Zm-4.79-.394a41.149,41.149,0,0,0,8.009,6.94c1.238.805,2.579,1.917,4.017,2.72-.147.044-.3.087-.441.135a3.825,3.825,0,0,1-2.65.251,18.122,18.122,0,0,0-3.017-.673,16.022,16.022,0,0,0-5.806.556,7.777,7.777,0,0,0-1.09-1.46c-1.077-1.094-2.374-1.918-3.376-3.094a5.787,5.787,0,0,1-1.283-5.739c.455-1.306,1.523-2.752,3.28-1.952A9.055,9.055,0,0,1,688.605,113.356Zm23.948,13.283c-1.465.148-1.2-.037-1.958-1.056a7.18,7.18,0,0,0-1.553-1.5,8.311,8.311,0,0,0-3.828-1.518,1.041,1.041,0,0,0-.276-.242c-2.9-2.886-6.21-5.241-8.632-8.611a15.434,15.434,0,0,1-2.564-5.266c-.4-1.672.425-4.479,3.005-3.3a10.028,10.028,0,0,1,2.3,2.061c2.753,2.752,4.643,5.78,7.9,8.055a23.017,23.017,0,0,0,4.684,2.932,11.369,11.369,0,0,0,4.087.434c-.387,2.611-.658,5.231-1.083,7.859l-.006.032A12.456,12.456,0,0,0,712.554,126.639Zm-3.732-12.4a31.571,31.571,0,0,1-5.4-4.286.828.828,0,0,0,.089-.647c-.435-1.735-.8-3.206.034-4.985,1.682-3.617,3.21-1.331,5.2.2a41.009,41.009,0,0,0,5.59,3.323,18.549,18.549,0,0,0,3.391,1.729q-.593,2.138-1.106,4.285c-.206.857-.378,1.716-.533,2.574A14.076,14.076,0,0,1,708.822,114.244Zm6.992-8.321c-1.084-.709-2.282-1.2-3.389-1.877-2.071-1.266-3.773-4.04-6.31-4.306-2.04-.215-3.727,1.748-4.356,3.5a8.407,8.407,0,0,0-.407,4.19c-1.2-1.551-2.72-3.381-4.4-4.141a.618.618,0,0,0-.052-.723l-.037-.047c.471-3.207-2.674-6.249-1.822-9.566a7.012,7.012,0,0,1,.824-2.057c.822-1.268,1.473-.331,2.239.526a34.949,34.949,0,0,0,4.57,3.941c3.053,2.377,6.211,5.065,10.05,6.042,1.424.364,5,1.877,7.191,1.46q-.92,2.392-1.657,4.85C717.452,107.107,716.658,106.475,715.814,105.922Zm-8.881-9.5c-1.18-.894-2.354-1.788-3.511-2.7a6.324,6.324,0,0,0-.839-1.685c-1.147-1.98-1.665-3.974-.671-6.187.692-1.537,1.99-3.7,3.689-4.267,2.735-.914,4.608,1.518,6.034,3.386,1.831,2.4,3.425,4.879,5.36,7.22a33.3,33.3,0,0,0,2.811,3.272,11.463,11.463,0,0,1-1.147-.437,9.158,9.158,0,0,1-2.7-2.242c-1.988-1.955-5.418-4.676-8.334-3C705.1,91.226,705.651,94.2,706.933,96.424Zm12.173,4.353a8.045,8.045,0,0,0-.875-.183c-.2-.052-.371-.1-.478-.12-1.295-.288-2.573-.633-3.876-.887-.133-.026-.266-.06-.4-.09a6.953,6.953,0,0,1-1.361-.892,12.868,12.868,0,0,1-3.164-3.485c-.609-1.135-1.432-3.388.924-3.689a3.866,3.866,0,0,1,2.173.788c2.18,1.278,3.462,3.448,5.747,4.521a19.271,19.271,0,0,0,4.148,1.521q-.586,1.167-1.11,2.365a.778.778,0,0,0-.784.085A1.443,1.443,0,0,1,719.106,100.777Zm97.8,32.462c-3.917,12.751-14.185,20.4-25.763,25.889a236.988,236.988,0,0,1-39.073,14.134c-7.495,2.044-15.133,3.421-22.785,4.73a162.306,162.306,0,0,1-23.726,2.684c-7.231.155-15.651.437-22.189-3.1-1.6-.867-3.217-1.748-4.793-2.66-1.675-.97-2.573-2.388-3.838-3.812a34.744,34.744,0,0,1-4.673-7.016c-.143-.443-.259-.917-.387-1.2a29.878,29.878,0,0,1-1.624-5.415,41.5,41.5,0,0,1-1.239-10.749c.17-7.952,2.233-16.176,4.65-23.724,2.238-6.986,4.323-14,7.919-20.447,3.687-6.614,8.909-12.3,14.325-17.522a79.166,79.166,0,0,1,21.214-14.175.976.976,0,0,0,.3-.222,65.247,65.247,0,0,1,7.585-2.2c.265-.057.531-.1.8-.152a7.5,7.5,0,0,0-4.528,4.234c-.2.5-.287,1.341-.721,1.685a9.527,9.527,0,0,1-1.928.514,8.547,8.547,0,0,0-3.543,2.409,6.12,6.12,0,0,0-1.692,5.581,7.918,7.918,0,0,0-3.693-1.746c-3.545-.527-6.317,1.238-7.617,4.62a7.489,7.489,0,0,0-.093,4.909c-.337-.368-.671-.745-1.03-1.133a3.265,3.265,0,0,0-1.6-1.127c-2.444-.593-3.762,2.77-4.191,4.6a9.7,9.7,0,0,0,.594,5.431c-.083-.034-.165-.07-.254-.1-2.179-.716-4.071-1.789-6.1-.213-2.912,2.266-3.775,7.809-1.7,11a3.083,3.083,0,0,0-2.677.685,7.53,7.53,0,0,0-2.1,9.053,12.644,12.644,0,0,0,4.481,4.353c.533.34,1.051.715,1.584,1.049a8.349,8.349,0,0,0-1.318.9,8.723,8.723,0,0,0-2.6,3.935,8.854,8.854,0,0,0-.448,2.189c-.06.86.307,1.993.059,2.8-.519,1.7-3.745,2.561-5.144,3.4A12.862,12.862,0,0,0,674,140.1a11.631,11.631,0,0,0-2.508,5.789c-.026-.228-.056-.454-.074-.688a44.8,44.8,0,0,1,.18-9.317,57.076,57.076,0,0,1,5.484-17.951.344.344,0,0,0-.593-.347,39.385,39.385,0,0,0-4.156,9.227,67.593,67.593,0,0,0-2.606,10.386,43.407,43.407,0,0,0-.741,10.671,45.067,45.067,0,0,0,2.193,9.639A37.973,37.973,0,0,0,681.323,173.5a25.912,25.912,0,0,0,3.783,2.811,19.692,19.692,0,0,0,4.372,2.554,5.555,5.555,0,0,0,1.491.269.192.192,0,0,0,.191.083c5.693-.639,9.353-3.534,12.471-8.223a95.48,95.48,0,0,0,9.038-17.512c2.5-6.211,3.037-12.617,4.368-19.1,1.325-6.452,2.037-13,3.584-19.417,1.52-6.3,3.392-12.473,6.8-18.059A51.474,51.474,0,0,1,740.694,82.6c10.7-7.851,24.778-13.077,38.183-11.408C791.983,72.82,805.912,79.9,812.3,91.93c3.342,6.3,4.7,12.9,5.56,19.913C818.723,118.9,819.019,126.373,816.911,133.239Z" transform="translate(-664.117 -64.048)" fill="#291f27"/>
      <path id="Path_108" data-name="Path 108" d="M698.722,123.451c-.517-.057-1.505-.139-1.869-.567-.451-.53-.1-1.516,0-2.126.195-1.112.331-2.876,1.536-3.341a.307.307,0,0,0-.082-.6c-2.027-.1-2.833,1.839-3.4,3.512a1.049,1.049,0,0,0-.3-.053c-3.282-.076-6.2.208-8.562,2.719a4.992,4.992,0,0,0-1.564,3.449,6.025,6.025,0,0,0,.6,2.339c.019.04.059.123.11.223a3.887,3.887,0,0,0-.99-.027,6.674,6.674,0,0,0-2.718,1.1,7.054,7.054,0,0,0-2.984,4.641,5.631,5.631,0,0,0,1.2,4.3c1.189,1.375,2.961,1.345,4.633,1.318a1.035,1.035,0,0,0,.274-2.023c-2.03-.778-4.021-1.563-3.121-4.237a4.209,4.209,0,0,1,4.065-2.818,4.257,4.257,0,0,0,1.557-.086,1.128,1.128,0,0,0,.789-.789c.351-2.225-2.04-3.272-.372-5.651,1.655-2.359,4.279-2.524,6.9-2.546-.176,2.3,1.809,3.518,4.29,3.4A1.069,1.069,0,0,0,698.722,123.451Z" transform="translate(-657.917 -41.228)" fill="#291f27"/>
      <path id="Path_109" data-name="Path 109" d="M690.626,130.765c-1.03-.255-2.345.232-2.265-1.253.082-1.537,1.238-2.716,2.186-3.82.632-.736-.4-1.8-1.079-1.079-1.454,1.537-3.656,3.762-3.144,6.125.509,2.346,2.662,2.768,4.489,1.457A.794.794,0,0,0,690.626,130.765Z" transform="translate(-654.545 -37.959)" fill="#291f27"/>
      <path id="Path_110" data-name="Path 110" d="M697.98,116.7c.244-.453-.4-1.023-.749-.577-1.6,2.069-4.714,6.183-1.229,8.038a1.073,1.073,0,0,0,1.3-1.677,2.522,2.522,0,0,1-.725-2.706A12.443,12.443,0,0,1,697.98,116.7Z" transform="translate(-651.013 -41.595)" fill="#291f27"/>
      <path id="Path_111" data-name="Path 111" d="M698.719,125.376c-1.706.52-3.422,1.04-4.494,2.561a10.014,10.014,0,0,0-1.378,3.246,11.491,11.491,0,0,0-.12,2.195,28.1,28.1,0,0,0-3.59.751,12.126,12.126,0,0,0-4.178,2.472c-2.031,1.977-3.147,5.948-.854,8.043a1.15,1.15,0,0,0,1.8-1.387c-1.219-2.5.6-5.028,2.779-6.147a12.285,12.285,0,0,1,3.432-1.12,11.894,11.894,0,0,0,1.964-.254c1.261-.471,1.132-1.394,1.086-2.53a10.561,10.561,0,0,1,.636-4.027c.6-1.52,1.8-2.043,3.245-2.627C699.751,126.267,699.491,125.141,698.719,125.376Z" transform="translate(-656.024 -37.539)" fill="#291f27"/>
      <path id="Path_112" data-name="Path 112" d="M679.3,128.41a7.593,7.593,0,0,0-6.588,2.614.592.592,0,0,0,.837.837c1.57-1.425,3.763-1.607,5.751-1.905A.807.807,0,0,0,679.3,128.41Z" transform="translate(-660.467 -36.239)" fill="#291f27"/>
      <path id="Path_113" data-name="Path 113" d="M730.35,71.009c-.725-2.578-3.316-2.216-5.289-1.314-.186.085-.367.176-.544.271-1.22-.769-3.1-.415-4.435-.209-2.354.362-5.508,1.229-7.138,3.127-.305.355-.521,1.106-.824,1.377-1.418,1.272-.891.113-1.779-.087a5.522,5.522,0,0,0-2.455-.362c-2.309.405-3.818,2.564-5,4.392-.606.934.867,1.773,1.481.867a10.967,10.967,0,0,1,2.17-2.577c1.3-1.021,2.263-.7,3.626-.069,1.159.541,1.881.832,2.952-.145.67-.61.911-1.484,1.559-2.124a7.6,7.6,0,0,1,3.325-1.646,14.364,14.364,0,0,1,4.451-.643c-.758,1.335-.324,1.942.418,3.147.318.517,1.21.189,1.011-.425-.662-2.036,3.607-4.4,5.008-2.725C729.464,72.553,730.575,71.81,730.35,71.009Z" transform="translate(-647.413 -61.898)" fill="#291f27"/>
      <path id="Path_114" data-name="Path 114" d="M709.287,80.7a3.384,3.384,0,0,0-2.786-1.786,6.636,6.636,0,0,0-3.855,1.037c-.679.335-.2,1.443.514,1.22a4.511,4.511,0,0,1,2.937-.266,10.089,10.089,0,0,1,1.99,1A.885.885,0,0,0,709.287,80.7Z" transform="translate(-647.595 -57.629)" fill="#291f27"/>
      <path id="Path_115" data-name="Path 115" d="M746.709,71.786A53.15,53.15,0,0,0,728.6,78.95a88.233,88.233,0,0,0-8.094,5.135C718,86.079,716,88.827,713.992,91.3c-3.713,4.577-4.889,10.708-5.482,16.474a188.234,188.234,0,0,1-3.813,22.1c-.163.716.921,1.021,1.1.305,1.61-6.38,1.848-12.98,3.243-19.394,1.309-6.024,2.232-12.9,6.141-17.886,1.806-2.3,3.611-4.767,5.635-6.882,2.292-2.392,5.344-3.9,8.068-5.727a62.489,62.489,0,0,1,17.883-8.283C746.914,71.968,746.852,71.759,746.709,71.786Z" transform="translate(-646.574 -60.703)" fill="#291f27"/>
      <path id="Path_116" data-name="Path 116" d="M708.924,119.678a.229.229,0,0,0-.457,0c-.382,2.915-2.061,6.18-3.117,8.94-1.225,3.2-2.491,6.281-3.845,9.419-1.126,2.61-2.2,5.564-3.912,7.847-.66.878-1.213,1.825-1.851,2.719a51.4,51.4,0,0,1-3.694,3.929.306.306,0,0,0,.431.433c2.548-2.03,5.17-3.557,7.254-6.14a21.055,21.055,0,0,0,1.792-3.461,40.718,40.718,0,0,0,2.063-4.451,90.821,90.821,0,0,0,3.5-9.817C707.9,126.135,709.144,122.779,708.924,119.678Z" transform="translate(-652.075 -40.085)" fill="#291f27"/>
    </g>
    <g id="Group_414" data-name="Group 414" transform="translate(1548.468 1255.901)">
      <path id="Path_155" data-name="Path 155" d="M807.537,237.416a14.366,14.366,0,0,0,6.824-11.837c.232-4.571-1.077-11.142-5.495-13.468a26.516,26.516,0,0,0,4.459-4.395,16.193,16.193,0,0,0,2.663-15.723c-1.222-3.348-4.431-7.324-8.048-8.881a8.749,8.749,0,0,0,2.333-11.65,22.559,22.559,0,0,0-6.183-7.178,66.253,66.253,0,0,1-8.389-6.706c-2.607-2.69-4.749-5.63-5.068-9.463a32.562,32.562,0,0,1,.9-10.278c.077-.249.143-.5.2-.756.6-2.11-2.866-3.411-3.682-1.326-1.779,4.547-5.719,8.263-9.285,11.451a59.459,59.459,0,0,1-6.32,4.862c-2.135,1.45-4.614,2.159-6.932,3.272-2.014.967-4.286,1.812-5.958,3.331a16.014,16.014,0,0,0-3.722,5.539,9.967,9.967,0,0,0-.782,6.145c.092.413.183.848.289,1.285a16.226,16.226,0,0,0-15.689-.375c-5.422,2.654-9.324,6.9-10.264,12.769-6.827.68-12.607,4.024-15.405,10.6a13.614,13.614,0,0,0-.329,10.655,11.785,11.785,0,0,0,.51,1.112,3.806,3.806,0,0,0-1.1,1.781,48.843,48.843,0,0,0-2.293,10.355c-.355,3.268-1.683,6.26-2.2,9.5-.851,5.327-1.861,10.651-2.455,16.02q-.4,2.306-.761,4.615c-1.113,7.048-2.165,14.079-3.106,21.146-.756,5.678-1.051,12.016.814,17.491,1.928,5.658,6.5,10.254,11.136,13.855a57.245,57.245,0,0,0,15.883,8.356c3.184,1.166,6.383,2.258,9.6,3.319,3.492,1.15,6.847,2.769,10.418,3.681,5.177,1.322,10.834,2.02,15.206-1.637a59.465,59.465,0,0,0,6.1-6.528c2.348-2.664,4.757-5.237,6.922-8.061a105.982,105.982,0,0,0,9.937-15.906c3.156-6.075,6.69-11.873,9.417-18.168,2.826-6.525,5.833-12.861,9.248-19.1,1.031-1.882,3.379-4.968,3.123-7.283A2.813,2.813,0,0,0,807.537,237.416Zm-87.658-45.483c1.944-2.422,5.285-3.889,8.205-4.729,3.187-.915,7.367-1.7,10.386.064,2.921,1.709,5.59,4.853,7.755,7.407,2.339,2.758,4.474,5.68,6.816,8.434,3.9,4.59,9.559,7.632,15.207,9.533.42.14.62-.513.256-.712-3.975-2.173-8.214-3.737-11.815-6.564-3.672-2.882-6.231-6.986-9.172-10.555a76.69,76.69,0,0,0-7.473-8.522c-2.566-2.3-5.945-2.518-9.218-2.365,2.987-5.038,6.958-9.31,12.9-10.923,7.4-2.011,13.848,2.563,17.756,8.545,1.791,2.74,2.977,5.783,4.889,8.433a25.163,25.163,0,0,0,6.355,6.158,29.363,29.363,0,0,0,18.607,4.555.515.515,0,0,0-.059-1.027c-7.867-.215-17.1-3.783-21.989-10.133-2.159-2.8-3.369-6.167-5.214-9.179a23.913,23.913,0,0,0-6.387-7.261c-.289-.2-.579-.392-.87-.58.033-.521.094-1.043.077-1.527a13.728,13.728,0,0,1,.036-4.074,14.329,14.329,0,0,1,3.912-6.73c3.518-3.213,8.77-3.363,12.819-5.571a52.925,52.925,0,0,0,10.62-7.6c.892-.818,1.894-1.73,2.871-2.72-.049.612-.084,1.225-.083,1.841a16.46,16.46,0,0,0,1.993,8.376c3.113,5.418,8.29,8.788,13.147,12.445a22.668,22.668,0,0,1,6.048,6.587c2.312,3.975-.421,7.637-4.184,9.225-6.075,2.564-12.7,2.8-19.084,4.126-.743.153-.5,1.368.246,1.3,6.832-.617,13.875-.8,20.257-3.623.057-.026.113-.054.169-.08,3.041,2.186,6.446,5.734,7.311,9.281a16.158,16.158,0,0,1-.059,7.579c-.681,2.458-2.629,4.591-4.411,6.345a26.039,26.039,0,0,1-12.126,6.42c-4.913,1.183-9.688,1.137-14.7,1.394-.979.05-1.165,1.645-.136,1.772,6.062.742,11.881.965,17.853-.539a25.6,25.6,0,0,0,7.942-3.533,16.03,16.03,0,0,1,3.068,4.835,14.775,14.775,0,0,1,.457,7.973c-.838,4.992-3.767,8.614-8.1,11.143a1.3,1.3,0,0,0-.178.126c-2.226.1-4.451.262-6.685.241-3.813-.034-7.6-.357-11.385-.762a109.115,109.115,0,0,1-19.664-3.591,113.826,113.826,0,0,1-19.641-8.194c-6.833-3.55-13.01-8.371-19.268-12.821-2.657-1.888-5.259-4.2-8.215-5.588C715.15,202.054,716.736,195.852,719.878,191.933Zm-14.392,85.285c-.026-1.812-.169-3.571-.052-5.386.262-4.067.595-8.223,1.039-12.275A246.573,246.573,0,0,1,710.5,233.4c.709-3.22,1.149-6.489,1.736-9.728.189-.541.382-1.086.572-1.636.6-1.732.774-3.54,1.225-5.315.494-1.94,1.644-4.207,1.818-6.183.139-1.577-.011-.615-.337-.961.016-.08.031-.159.047-.239.367.17.986.39.991.392a14.875,14.875,0,0,1,2.454,1.6c2,1.49,4.071,2.885,6.107,4.32,3.406,2.4,6.786,4.833,10.25,7.122-.642,1.862.073,4.448.126,6.3.1,3.563-1.1,6.5-2.614,9.661-3.255,6.809-7.711,12.384-12.838,17.862-4.336,4.634-8.476,9.056-11.285,14.856a29.908,29.908,0,0,0-2.861,12.318,18.611,18.611,0,0,1-.38-1.955A36.923,36.923,0,0,1,705.486,277.218Zm1.576,9.916a19.715,19.715,0,0,0,.236-2.358,38.206,38.206,0,0,1,.317-5.431,28.125,28.125,0,0,1,3.917-9.97c3.508-5.783,8.205-10.287,12.695-15.266a71.23,71.23,0,0,0,10.87-16.254,21.63,21.63,0,0,0,2.52-7.94,16.89,16.89,0,0,0-.195-3.883c-.079-.506-.305-1.394-.408-2.19a84.8,84.8,0,0,0,11.636,6.376,111.113,111.113,0,0,0,16.192,5.717c-2.716,6.87-9.571,12.689-16.017,15.822-6.827,3.318-14.179,5.976-20.4,10.4a55.568,55.568,0,0,0-7.778,6.932,30.21,30.21,0,0,0-5.85,7.886,33.711,33.711,0,0,0-3.111,10.207,25.793,25.793,0,0,0-.212,6.456A24.706,24.706,0,0,1,707.062,287.134ZM737.727,308.2c-7.108-2.356-14.281-4.812-20.347-9.328a44.737,44.737,0,0,1-4.994-4.273,37.1,37.1,0,0,1,1.165-9.83,27.309,27.309,0,0,1,4.859-10.291,54.759,54.759,0,0,1,16.343-14.189c6.511-3.586,13.673-6.051,19.8-10.334,4.729-3.306,10.423-7.69,11.981-13.584q4.381,1.081,8.891,1.763l.064.009c-1.056,2.419-.8,5.81-1.179,8.243-.7,4.449-2.914,9.495-6.177,12.606-6.206,5.919-14.041,9.645-20.82,14.852a27.182,27.182,0,0,0-10.772,18.393c-.778,5.256-1.3,11.277,1.291,16Zm3.647,1.324c-4.554-5.671-3.56-14.437-1.967-21.082,2.02-8.423,8.194-12.973,14.838-17.8,5.876-4.27,12.764-7.45,17.12-13.53a26.642,26.642,0,0,0,4.252-9.659,40.059,40.059,0,0,0,.645-4.783c.112-1.371,0-2.955.17-4.393,4.9.706,9.831,1.239,14.755,1.7q.87.082,1.741.152a.813.813,0,0,0,.016.1c.5,1.907-.978,4.986-1.709,6.655a37.053,37.053,0,0,1-2.856,5.472,42.606,42.606,0,0,1-9.118,9.781c-6.5,5.209-13.637,9.628-20.422,14.441-5.711,4.053-11.019,8.881-13.766,15.491a36.327,36.327,0,0,0-2.193,10.831,27.2,27.2,0,0,0,.132,7.257Zm60.816-60.61c-1.838,3.681-3.415,7.4-4.976,11.208A199.148,199.148,0,0,1,787.2,280.755c-3.67,6.65-7.29,13.008-12.13,18.912-2.266,2.763-4.772,5.315-7.165,7.968-2.554,2.829-5.074,5.706-9.106,6.061-4.643.41-9.344-1.1-13.88-2.815-.894-7.39-.328-15.322,3.578-21.8,4.365-7.234,11.586-10.844,18.21-15.607,6.526-4.694,13.862-8.767,19.244-14.836a38.083,38.083,0,0,0,6.522-9.631c1.054-2.351,2.643-6.038,2.09-8.77,1.4.093,2.811.159,4.217.179,1.162.019,5.928-.663,7.482.117C805.56,243.421,803.46,246.365,802.191,248.91Z" transform="translate(-701.66 -134.698)" fill="#291f27"/>
      <path id="Path_156" data-name="Path 156" d="M777.473,204.644c-1.842-.5-3.72-.254-5.6-.468a63.887,63.887,0,0,1-6.64-1.2,46.664,46.664,0,0,1-12.616-4.465c-7.489-4.134-14.919-9.042-20.658-15.429-.1-.112-.3.054-.2.17a80.85,80.85,0,0,0,19.911,17.077,39.689,39.689,0,0,0,13.046,5.064,27.243,27.243,0,0,0,6.589.45c2.056-.093,4.074-.785,6.125-.633C777.764,205.235,777.767,204.723,777.473,204.644Z" transform="translate(-688.654 -113.789)" fill="#291f27"/>
      <path id="Path_157" data-name="Path 157" d="M768.432,169.709c-3.865-1.133-8.058-.563-11.989-1.736a27.326,27.326,0,0,1-11.628-7.469c-.057-.063-.17.032-.115.1,2.8,3.452,6.221,6.847,10.353,8.644a25.641,25.641,0,0,0,13.265,1.932A.747.747,0,0,0,768.432,169.709Z" transform="translate(-683.051 -123.546)" fill="#291f27"/>
      <path id="Path_158" data-name="Path 158" d="M766.7,165.859c-2.355-1.428-5.171-1.865-7.707-2.892a25.63,25.63,0,0,1-7.26-4.988.153.153,0,0,0-.206.225,26.985,26.985,0,0,0,6.3,5.383c2.706,1.5,5.578,2.034,8.4,3.184A.515.515,0,0,0,766.7,165.859Z" transform="translate(-680.114 -124.647)" fill="#291f27"/>
    </g>
    <g id="Group_416" data-name="Group 416" transform="translate(1339.234 1086.847)">
      <path id="Path_163" data-name="Path 163" d="M743.206,56.663a68.774,68.774,0,0,0,.69-8.953c.577-10.992,1.03-26.944-12.278-30.461a16.624,16.624,0,0,0-4.942-.5,17.74,17.74,0,0,0-2.018-.062c-5.115.145-8.724,1.881-11.744,6.11-.244.342-.464.688-.67,1.034-1.752-1.229-5.014-1.841-6.082-2.107a72.6,72.6,0,0,0-15.424-2.03c-5.28-.159-10.368,1.5-15.62,1.806-6.072.357-11.625-.954-17.534-2.069a40.108,40.108,0,0,0-15.68-.342c-5.438,1.112-10.4,2.919-16.067,2.533-5.87-.4-11.3-1.438-17.19-.471-5.1.835-9.963,2.581-15.031,3.554-5.518,1.059-11.059,1.7-16.624,2.431-5.094.669-10.563,1.285-15.4,3.1-3.573,1.342-7.135,4.363-5.658,8.529a7.964,7.964,0,0,0,.956,1.841,9.023,9.023,0,0,0-.265,2.722,9.782,9.782,0,0,0,2.643,5.686c3.051,3.762,7.485,4.565,11.595,6.726,9.036,4.75,16.421,12.117,24.274,18.564a135.052,135.052,0,0,0,13.113,9.338c4.913,3.139,9.707,6.608,14.775,9.489,9.5,5.4,19.366,10.132,28.441,16.279,5.087,3.447,10.28,6.737,15.365,10.184a61.4,61.4,0,0,0,6.711,3.8,17.779,17.779,0,0,0,3.179,1.518,12.517,12.517,0,0,0,1.336,8.3c2.309,4.148,8.486,6.63,13.049,5.915,5.186-.814,9.49-5.376,13.122-8.838a72.52,72.52,0,0,0,11.261-13.729,321.661,321.661,0,0,0,18.251-32.9A113.3,113.3,0,0,0,740.9,65.8C741.754,62.8,742.637,59.73,743.206,56.663ZM703.793,23.425a1.335,1.335,0,0,0-.063.213,14.218,14.218,0,0,1-2.117,5.472c-1.414,2.134-4.531,2.957-5.8.2-.832-1.815-.162-3.779-.539-5.65a3.582,3.582,0,0,0-.569-1.348c.493.026.984.054,1.471.092A73.669,73.669,0,0,1,703.793,23.425ZM621.98,24.77a44.517,44.517,0,0,0,9.2.357c4.9-.481,9.495-2.438,14.379-2.9,4.929-.463,9.621.6,14.366,1.612a20.718,20.718,0,0,1,.1,2.356,14.6,14.6,0,0,1-1.329,4.279,27.189,27.189,0,0,1-3.885,6.552c-1.719,2.1-3.289,4.273-5.895,5.306a21.372,21.372,0,0,1-8.178,1.384,28.991,28.991,0,0,1-7.556-1.617,21.925,21.925,0,0,1-6.819-3.331,12.172,12.172,0,0,1-4.524-6.462C621.272,30.179,621.007,27.011,621.98,24.77Zm-39.826,5.72c1.593-.175,3.186-.357,4.777-.572.189-.026.377-.054.566-.08-.739,2.113-.872,4.532-1.567,6.675a10.9,10.9,0,0,1-2.7,4.886c-1.2,1.156-2.878,2.9-4.636,2.418a6.026,6.026,0,0,1-2.149-1.215c-.958-1.584,0-2.972.93-4.19.892-1.163,1.9-2.226,2.69-3.462A13.176,13.176,0,0,0,582.154,30.49Zm97.064,87.66a23.37,23.37,0,0,0-1.794,3.981c-.418-.245-.828-.576-1.123-.764a15.056,15.056,0,0,0-2.419-1.112,44.78,44.78,0,0,1-6.5-3.427c-4.239-2.709-8.562-5.273-12.711-8.127C646.373,103,638.03,97.4,628.958,92.974a245.061,245.061,0,0,1-27.04-15.545c-8.235-5.412-15.292-12.391-22.977-18.475-3.537-2.8-6.6-5.6-10.838-7.309-2.61-1.054-5.054-2.034-6.976-4.173a11.406,11.406,0,0,1-2.56-3.717,16.15,16.15,0,0,1-.415-1.645c2.12,2.093,5.143,3.522,7.614,4.684,5.167,2.427,10.949,4.335,15.548,7.77,4.219,3.15,6.938,7.555,10.755,11.079,8.159,7.533,19.972,8.725,29.164,14.553,4.994,3.164,9.293,7.154,14.513,9.986,5.581,3.027,11.936,4.671,17.22,8.185,5.224,3.475,9.953,7.748,14.871,11.633,3.462,2.736,7.526,6.143,12.033,7.082C679.642,117.434,679.423,117.789,679.218,118.15ZM615.386,73.973c.988-.882,1.907-1.917,2.783-2.79,1.806-1.8,3.515-3.737,5.452-5.393a40.512,40.512,0,0,1,6.451-4.458c1.8-1,5.117-2.669,7.279-1.985q1.392-.11,1.034,1.829,1.154,1.272.238,2.038a5.935,5.935,0,0,1-1.258,1.255,31.966,31.966,0,0,1-2.852,2.354c-1.854,1.316-3.982,2.2-5.856,3.475-2.672,1.815-5.2,4.5-6.008,7.675-.878-.6-1.773-1.178-2.7-1.719A41.955,41.955,0,0,0,615.386,73.973Zm20.93,13.839a.323.323,0,0,0,.056-.072c2.271-5.491,5.708-10.552,11.211-13.282,6.277-3.116,13.206-3.442,19.334.219a17.6,17.6,0,0,1,8.711,16.6,21.73,21.73,0,0,1-3.435,9.877c-1.143,1.93-2.541,3.555-3.594,5.509-3.432-2.649-6.826-5.376-10.347-7.894a61.019,61.019,0,0,0-5.979-3.926,72.288,72.288,0,0,0-7.687-3.226A80.9,80.9,0,0,1,636.316,87.813Zm45.75,26.354a1.606,1.606,0,0,0-.213-.043c-4.15-.405-8.013-3.455-11.247-5.919a24.851,24.851,0,0,0,1.775-2.806,31.808,31.808,0,0,0,2.755-4.588c1.781-3.777,2.878-7.158,2.544-11.406a19.577,19.577,0,0,0-11.593-16.621,24.522,24.522,0,0,0-20.967.066,22.221,22.221,0,0,0-8.167,7.4c-1.079,1.6-3.024,4.83-1.945,6.814a35.446,35.446,0,0,1-3.832-2.576c-2.28-1.783-4.5-3.611-6.814-5.309a13.047,13.047,0,0,1,1.786-4.042A20.264,20.264,0,0,1,629.17,72.1c2.137-1.753,4.795-2.8,6.918-4.605,2.5-2.12,8.029-7.105,2.811-9.77-4.756-2.43-10.208,1.47-13.972,4.02a32.3,32.3,0,0,0-6.587,6.028,34.811,34.811,0,0,0-2.861,3.607,14.957,14.957,0,0,0-1.061,2.182c-2.921-1.206-5.928-2.212-8.89-3.352-4.679-1.8-9.447-3.909-13.054-7.491-3.388-3.362-6.23-7.034-10.123-9.877-3.965-2.9-8.778-4.749-13.255-6.723a46.228,46.228,0,0,1-6.254-3.183c-1.9-1.213-6.18-4.2-4.62-7.038,1.1-2,3.906-2.653,5.942-3.1,2.553-.557,5.188-.7,7.77-1.093,2.975-.447,5.964-.759,8.95-1.08a20.053,20.053,0,0,1-2.836,4.4c-1.308,1.583-3.187,3.233-3.831,5.241-.892,2.785,2.1,4.838,4.435,5.554,2.667.819,6.114-2.932,7.518-4.846,2.273-3.1,2.909-7.824,3.646-11.486a87.9,87.9,0,0,0,11.414-2.566c4.769-1.44,9.486-2.71,14.514-2.637,1.637.024,3.26.168,4.879.337-2.682,4.06-.788,10.426,1.99,13.816,3.789,4.624,10.951,6.74,16.734,7.161a19.772,19.772,0,0,0,15.862-6.084,32.876,32.876,0,0,0,5.865-7.78,14.946,14.946,0,0,0,1.746-7.3l.388.076a43.71,43.71,0,0,0,15.99-.286c2.919-.547,5.81-1.421,8.762-1.773a36.31,36.31,0,0,1,5.22-.2,8.038,8.038,0,0,1,.39,3.111,12.432,12.432,0,0,0,.175,4.094,4.742,4.742,0,0,0,3.836,3.793c5.2.749,7.491-5.062,8.459-9.095a1.182,1.182,0,0,0,.034-.284,35.643,35.643,0,0,1,5.4,1.458c-1.907,4.269-1.441,8.846-.964,13.6.582,5.813,1.109,11.636,1.326,17.475.235,6.3-.658,12.554-1.619,18.771-.988,6.4-2.64,13.156-6.37,18.569-3.624,5.26-8.551,9.156-13.544,13A55.9,55.9,0,0,0,682.066,114.166Zm18.806,14.167a74,74,0,0,1-5.833,4.749c-3.9,2.852-9.858,2.885-13.253-.986-3.713-4.234-1.083-10.949,1.889-14.937,3.146-2.511,7.25-4.2,10.97-3.723,3.371.435,5.107,3.111,6.714,5.774C703.036,121.992,701.86,125.4,700.872,128.334Zm30.4-46.529A293.126,293.126,0,0,1,716.053,109.7a86.187,86.187,0,0,1-11.617,15.2,8.338,8.338,0,0,0-.761-5.262,10.724,10.724,0,0,0-1.664-2c-.822-.87-1.432-1.9-2.235-2.772a12.278,12.278,0,0,0-4.151-2.855,10.653,10.653,0,0,0-7.117.074c2.123-1.871,4.4-3.581,6.63-5.264a53.139,53.139,0,0,0,10.578-10.685c6.16-8.341,8.294-19.492,9.384-29.58a73.687,73.687,0,0,0,.026-16.159c-.636-5.594-1.869-11.232-2.265-16.836-.3-4.187,1.152-9.071,4.259-12.069a19.525,19.525,0,0,1,1.9-.911c4.73-1.973,9.957-2.381,14.508.328,9.4,5.6,7.67,19.449,7.194,28.7C740.141,60.958,736.069,71.6,731.268,81.8Z" transform="translate(-555.597 -16.685)" fill="#291f27"/>
      <path id="Path_164" data-name="Path 164" d="M662.536,32.421a25.836,25.836,0,0,0-9.728-4.752,20.231,20.231,0,0,0-8.023-.175,16.644,16.644,0,0,0-9.712,2.862c-2.95,2.109-5.164,6.981-3.477,10.492,1.753,3.651,5.691,4.87,9.281,5.978a9.719,9.719,0,0,0-1.779,2.465,6.625,6.625,0,0,0-.1,3.8c.474,2.553,1.765,3.918,4.005,5.194,2.279,1.3,5.846,2.865,8.506,2.23,2.556-.609,4.144-3.106,5.048-5.376a9.974,9.974,0,0,0,.564-2.664c.278-.019.8.023.953,0a8.508,8.508,0,0,0,1.91-.706,10.483,10.483,0,0,0,5.273-5.369C667.4,41.468,666.913,35.922,662.536,32.421ZM660.6,48.745A6.149,6.149,0,0,1,656.744,50a1.734,1.734,0,0,0-1.42.549c-.645.759-.529,2.213-.8,3.063a7.4,7.4,0,0,1-2.278,3.71c-2.356,1.749-7.538-.729-9.467-2.567a4.977,4.977,0,0,1-1.344-3.464c.007-1.871,1.728-3.021,2.553-4.538a1.253,1.253,0,0,0-.825-1.788c-3.318-.981-7.221-1.418-9.414-4.548-1.271-1.815-.471-4.734.536-6.492a9.51,9.51,0,0,1,4.673-3.626c3.339-1.418,6.893-1.238,10.421-.911.756.069,1.484.165,2.19.285a25.035,25.035,0,0,1,8.709,4.074,8.505,8.505,0,0,1,3.8,6.988C663.967,43.709,663.041,46.846,660.6,48.745Z" transform="translate(-522.981 -12.146)" fill="#291f27"/>
      <path id="Path_165" data-name="Path 165" d="M609.623,44.693a4.785,4.785,0,0,0-2.733-1.013,20.182,20.182,0,0,0-2.318-.06l-.718,0q-.864.249-.352-.261a9.49,9.49,0,0,1,.7-1.388,12.52,12.52,0,0,0,.521-2.2,26.252,26.252,0,0,0,.446-4.328c.053-2.355-.592-5.247-2.435-6.895-3.134-2.8-8.2-1.064-11.567,1.248a21.351,21.351,0,0,0-3.586,2.235c-4.743,3.653-7.939,8.591-7.058,14.76.775,5.422,3.57,9.771,9.167,10.729a8.9,8.9,0,0,0,7.21-1.46,9.563,9.563,0,0,0,3.246-3.982c3.269,2.217,8.579,2.806,10.185-1.408C611.03,48.84,611.214,46.144,609.623,44.693Zm-1.43,5.779c-1.278,2.262-6.44,1.768-7.538-.579-.355-.762-1.564-1.122-1.994-.178a12.617,12.617,0,0,1-3.242,4c-1.838,1.355-3.828,1.411-6.005,1.016-4.627-.842-6.84-5.731-6.961-10.116-.133-4.883,2.927-8.778,6.667-11.6,2.418-1.826,6.531-4.032,9.99-3.974a4.091,4.091,0,0,1,2.871,2.421,11.618,11.618,0,0,1,.814,5.681,18.636,18.636,0,0,1-.4,2.884c-.242,1.04-.785,1.887-1.086,2.889-.785,2.621,1.367,2.881,3.371,2.9,1.695.016,3.492-.3,3.975,1.848A4.626,4.626,0,0,1,608.194,50.472Z" transform="translate(-544.878 -12.182)" fill="#291f27"/>
      <path id="Path_166" data-name="Path 166" d="M667.065,47.7c-1.514-2.295-4.674-.741-6.343.473a58.717,58.717,0,0,0-8.307,7.872,29.37,29.37,0,0,0-5.243,7.724,30.168,30.168,0,0,0-1.616,2.692c-1.183,2.245-2.556,5.005-.421,7.046,2.177,2.084,4.586,1.637,6.9.109,2.722-1.8,4.909-4.793,6.72-7.459,2.229-3.285,4.131-6.983,6.075-10.446C665.966,53.694,668.637,50.086,667.065,47.7Zm-2.672,3.722a14.7,14.7,0,0,1-1.1,2.136c-1.547,2.982-3.3,5.895-4.981,8.808a37.55,37.55,0,0,1-6.105,8.048c-1.1,1.083-4.008,3.252-5.389,1.279-.967-1.382.384-3.618,1.066-4.952a54.238,54.238,0,0,1,9.878-13.258c.463-.44.928-.88,1.4-1.316,1.014-.931,3.09-3.249,4.577-3.124q1.347-.707.973,1.649Z" transform="translate(-517.355 -3.778)" fill="#291f27"/>
    </g>
  </g>
</svg>
